
<svg width="361" height="274" viewBox="0 0 361 274" fill="none" xmlns="http://www.w3.org/2000/svg">
<path d="M0.474385 233.748H124.628C124.899 232.43 125.102 19.7578 125.102 19.7578H0C0 19.8353 0.203308 232.43 0.474385 233.748Z" fill="white"/>
<path d="M211.172 233.748H335.325C335.596 232.43 335.799 19.7578 335.799 19.7578H210.697C210.697 19.8353 210.901 232.43 211.172 233.748Z" fill="white"/>
<path d="M62.9433 107.238C76.2757 107.238 87.0838 96.4168 87.0838 83.0687C87.0838 69.7206 76.2757 58.8999 62.9433 58.8999C49.6108 58.8999 38.8027 69.7206 38.8027 83.0687C38.8027 96.4168 49.6108 107.238 62.9433 107.238Z" fill="#F5F1EE"/>
<mask id="mask0" mask-type="alpha" maskUnits="userSpaceOnUse" x="38" y="58" width="50" height="50">
<path d="M62.9433 107.238C76.2757 107.238 87.0838 96.4168 87.0838 83.0687C87.0838 69.7206 76.2757 58.8999 62.9433 58.8999C49.6108 58.8999 38.8027 69.7206 38.8027 83.0687C38.8027 96.4168 49.6108 107.238 62.9433 107.238Z" fill="#F5F1EE"/>
</mask>
<g mask="url(#mask0)">
<path d="M71.695 80.8605C71.1366 83.4844 68.4848 85.6309 65.8024 85.6309H59.7244C57.0421 85.6309 54.3902 83.4844 53.8318 80.8605L53.4599 79.1133C52.9015 76.4895 54.6389 74.343 57.3213 74.343H68.2062C70.8885 74.343 72.6259 76.4895 72.0675 79.1133L71.695 80.8605Z" fill="#644B44"/>
<path d="M72.7563 114.033C72.7563 118.977 68.2706 119.938 62.7371 119.938C57.2035 119.938 52.7179 118.977 52.7179 114.033L47.7598 96.1622C47.7598 91.2175 57.2041 87.2092 62.7377 87.2092C68.2712 87.2092 77.7156 91.2175 77.7156 96.1622L72.7563 114.033Z" fill="white"/>
<path d="M71.9374 79.1847C73.2135 79.1847 74.2479 78.1502 74.2479 76.8742C74.2479 75.5982 73.2135 74.5637 71.9374 74.5637C70.6614 74.5637 69.627 75.5982 69.627 76.8742C69.627 78.1502 70.6614 79.1847 71.9374 79.1847Z" fill="#EDC7B2"/>
<path d="M62.7377 85.3906C68.1146 85.3906 72.4734 81.0318 72.4734 75.6549C72.4734 70.278 68.1146 65.9192 62.7377 65.9192C57.3608 65.9192 53.002 70.278 53.002 75.6549C53.002 81.0318 57.3608 85.3906 62.7377 85.3906Z" fill="#EDC7B2"/>
<path d="M66.9397 76.7588C67.2128 76.7588 67.4341 76.5375 67.4341 76.2644C67.4341 75.9914 67.2128 75.77 66.9397 75.77C66.6667 75.77 66.4453 75.9914 66.4453 76.2644C66.4453 76.5375 66.6667 76.7588 66.9397 76.7588Z" fill="#644B44" stroke="#644B44" stroke-width="0.2" stroke-miterlimit="10"/>
<path d="M58.5315 76.7588C58.8046 76.7588 59.0259 76.5375 59.0259 76.2644C59.0259 75.9914 58.8046 75.77 58.5315 75.77C58.2585 75.77 58.0371 75.9914 58.0371 76.2644C58.0371 76.5375 58.2585 76.7588 58.5315 76.7588Z" fill="#644B44" stroke="#644B44" stroke-width="0.2" stroke-miterlimit="10"/>
<path d="M53.539 79.1847C54.815 79.1847 55.8495 78.1502 55.8495 76.8742C55.8495 75.5982 54.815 74.5637 53.539 74.5637C52.263 74.5637 51.2285 75.5982 51.2285 76.8742C51.2285 78.1502 52.263 79.1847 53.539 79.1847Z" fill="#EDC7B2"/>
<path d="M55.11 96.7785C55.4447 94.7552 54.0889 92.7642 52.0655 92.4301C50.0422 92.096 48.131 93.4646 47.7969 95.488L43.5777 112.273C43.243 114.296 44.6122 116.207 46.6356 116.541C48.6589 116.875 50.5701 115.507 50.9042 113.484L55.11 96.7785Z" fill="#BBB3AF"/>
<path d="M70.3496 96.7784C70.0149 94.7551 71.3707 92.7641 73.394 92.43C75.4174 92.0953 77.3286 93.4645 77.6626 95.4879L81.8819 112.273C82.2165 114.296 80.8473 116.207 78.824 116.541C76.8006 116.876 74.8895 115.507 74.5554 113.483L70.3496 96.7784Z" fill="#BBB3AF"/>
<path d="M66.4506 89.1031C66.4506 91.1539 64.7882 92.8158 62.738 92.8158C60.6872 92.8158 59.0254 91.1533 59.0254 89.1031V83.0691C59.0254 81.0183 60.6878 79.3564 62.738 79.3564C64.7888 79.3564 66.4506 81.0189 66.4506 83.0691V89.1031Z" fill="#EDC7B2"/>
<path d="M62.7377 64.1001C57.3608 64.1001 53.002 68.4589 53.002 73.8358C53.002 74.1333 53.0202 74.4266 53.0465 74.7173C53.0763 74.7052 53.1074 74.6948 53.1367 74.6826C54.5821 71.6064 57.0761 69.132 60.1504 67.6835C62.7145 71.782 67.2544 74.5156 72.4374 74.5509C72.4545 74.3138 72.4734 74.0772 72.4734 73.8352C72.4734 68.4589 68.1146 64.1001 62.7377 64.1001Z" fill="#644B44" stroke="#644B44" stroke-width="0.2" stroke-miterlimit="10"/>
<path d="M68.7357 88.3149L62.7357 104.314L56.7358 88.3149C52.1739 89.8384 47.7578 92.7805 47.7578 96.1621L52.4623 113.118L52.9994 120.438C52.9994 125.815 57.3582 125.928 62.7351 125.928C68.112 125.928 72.4708 125.815 72.4708 120.438L73.0079 113.118L77.7124 96.1621C77.7136 92.7811 73.2981 89.8384 68.7357 88.3149Z" fill="#BBB3AF"/>
<path d="M69.0641 93.5579C69.3422 93.5579 69.5676 93.3324 69.5676 93.0543C69.5676 92.7762 69.3422 92.5508 69.0641 92.5508C68.786 92.5508 68.5605 92.7762 68.5605 93.0543C68.5605 93.3324 68.786 93.5579 69.0641 93.5579Z" fill="#A88E56"/>
<path d="M67.0272 88.0153L66.4486 86.3992L62.736 88.2183L59.0228 86.3992L58.3516 88.0122L58.4784 89.515L62.736 100.95L67.2661 89.515L67.0272 88.0153Z" fill="white"/>
</g>
<path d="M272.033 107.238C285.366 107.238 296.174 96.4168 296.174 83.0687C296.174 69.7206 285.366 58.8999 272.033 58.8999C258.701 58.8999 247.893 69.7206 247.893 83.0687C247.893 96.4168 258.701 107.238 272.033 107.238Z" fill="#F5F1EE"/>
<mask id="mask1" mask-type="alpha" maskUnits="userSpaceOnUse" x="247" y="58" width="50" height="50">
<path d="M272.033 107.238C285.366 107.238 296.174 96.4168 296.174 83.0687C296.174 69.7206 285.366 58.8999 272.033 58.8999C258.701 58.8999 247.893 69.7206 247.893 83.0687C247.893 96.4168 258.701 107.238 272.033 107.238Z" fill="#F5F1EE"/>
</mask>
<g mask="url(#mask1)">
<path d="M271.788 107.827C281.863 107.827 290.03 103.544 290.03 98.26C290.03 92.9762 281.863 88.6929 271.788 88.6929C261.712 88.6929 253.545 92.9762 253.545 98.26C253.545 103.544 261.712 107.827 271.788 107.827Z" fill="#BBB3AF"/>
<path d="M283.703 137.421C283.703 138.182 278.368 138.799 271.788 138.799C265.208 138.799 259.873 138.182 259.873 137.421V99.6385C259.873 98.877 265.208 98.26 271.788 98.26C278.368 98.26 283.703 98.877 283.703 99.6385V137.421V137.421Z" fill="#BBB3AF"/>
<path d="M271.786 86.0114C277.07 86.0114 281.353 81.7281 281.353 76.4443C281.353 71.1605 277.07 66.8772 271.786 66.8772C266.502 66.8772 262.219 71.1605 262.219 76.4443C262.219 81.7281 266.502 86.0114 271.786 86.0114Z" fill="#EDC7B2"/>
<path d="M271.786 84.2245C277.07 84.2245 281.353 79.9412 281.353 74.6574C281.353 69.3737 277.07 65.0903 271.786 65.0903C266.502 65.0903 262.219 69.3737 262.219 74.6574C262.219 79.9412 266.502 84.2245 271.786 84.2245Z" fill="#EDC7B2"/>
<path d="M281.342 73.3155C281.207 68.1491 276.986 64 271.788 64C266.678 64 262.516 68.0096 262.246 73.0519C262.2 73.6516 262.181 74.277 262.221 74.9569C262.3 76.3318 262.634 77.6162 263.171 78.7688C262.812 77.763 262.606 76.6846 262.606 75.556C262.606 75.1744 262.634 74.8006 262.678 74.4303C263.058 72.6104 264.111 71.0414 265.562 69.9841C265.795 68.5134 267.059 67.3853 268.595 67.3853C269.632 67.3853 270.543 67.9005 271.102 68.6847C271.28 68.7153 271.459 68.7404 271.632 68.7823C272.189 68.6476 272.768 68.5685 273.367 68.5685C277.44 68.5685 280.743 71.8711 280.743 75.9448C280.743 76.3875 280.697 76.8194 280.622 77.2406C280.736 76.968 280.835 76.6882 280.924 76.4037C280.849 77.2262 280.666 78.0176 280.399 78.7682C280.935 77.6156 281.269 76.3312 281.349 74.9563C281.381 74.3764 281.371 73.8367 281.342 73.3155Z" fill="#716C6B"/>
<path d="M271.788 64C269.034 64 266.56 65.1694 264.814 67.0307C268.905 71.5219 274.776 74.3591 281.31 74.4387C281.336 74.1512 281.354 73.8612 281.354 73.5671C281.355 68.2833 277.071 64 271.788 64Z" fill="#716C6B"/>
<path d="M275.916 76.9302C276.184 76.9302 276.401 76.7127 276.401 76.4443C276.401 76.176 276.184 75.9585 275.916 75.9585C275.647 75.9585 275.43 76.176 275.43 76.4443C275.43 76.7127 275.647 76.9302 275.916 76.9302Z" fill="#644B44" stroke="#644B44" stroke-width="0.2" stroke-miterlimit="10"/>
<path d="M267.654 76.9302C267.922 76.9302 268.14 76.7127 268.14 76.4443C268.14 76.176 267.922 75.9585 267.654 75.9585C267.385 75.9585 267.168 76.176 267.168 76.4443C267.168 76.7127 267.385 76.9302 267.654 76.9302Z" fill="#644B44" stroke="#644B44" stroke-width="0.2" stroke-miterlimit="10"/>
<path d="M262.747 79.913C264.001 79.913 265.017 78.8965 265.017 77.6425C265.017 76.3886 264.001 75.3721 262.747 75.3721C261.493 75.3721 260.477 76.3886 260.477 77.6425C260.477 78.8965 261.493 79.913 262.747 79.913Z" fill="#EDC7B2"/>
<path d="M273.895 78.761C273.813 78.761 273.746 78.6939 273.746 78.6113C273.746 78.1955 272.917 77.3969 271.784 77.3969C270.728 77.3969 269.823 78.0649 269.823 78.6113C269.823 78.6939 269.756 78.761 269.673 78.761C269.591 78.761 269.523 78.6939 269.523 78.6113C269.523 77.9109 270.511 77.0974 271.784 77.0974C272.981 77.0974 274.045 77.9439 274.045 78.6113C274.045 78.6933 273.978 78.761 273.895 78.761Z" fill="#716C6B"/>
<path d="M271.787 80.082C269.772 80.082 268.139 81.7157 268.139 83.7303V88.8614C269.264 89.3262 270.495 89.5856 271.787 89.5856C273.08 89.5856 274.311 89.3262 275.435 88.8614V83.7297C275.435 81.7157 273.802 80.082 271.787 80.082Z" fill="#EDC7B2"/>
<path d="M262.026 99.79C262.208 97.7832 259.53 94.8106 257.523 94.6291C255.516 94.4476 253.742 95.9267 253.56 97.9335L250.621 119.648C250.439 121.655 251.918 123.429 253.925 123.611C255.932 123.792 257.706 122.313 257.888 120.306L262.026 99.79Z" fill="#BBB3AF"/>
<path d="M281.526 99.7901C281.344 97.7833 284.022 94.8107 286.029 94.6292C288.036 94.4471 289.81 95.9268 289.992 97.9336L292.931 119.648C293.114 121.655 291.634 123.429 289.627 123.611C287.62 123.793 285.846 122.313 285.664 120.306L281.526 99.7901Z" fill="#BBB3AF"/>
<path d="M276.005 88.8696L275.436 87.7991L271.788 89.5861L268.139 87.7991L267.479 88.8672L265.967 89.1883L271.788 106.048L277.608 89.1883L276.005 88.8696Z" fill="white"/>
<path d="M271.788 90.1252L270.059 92.1711L270.674 93.7178L269.893 100.559L271.788 106.048" fill="#716C6B"/>
<path d="M271.787 90.1252L273.57 92.1711L272.988 93.7178L273.682 100.559L271.787 106.048" fill="#716C6B"/>
<path d="M278.702 95.4787C278.975 95.4787 279.197 95.2571 279.197 94.9838C279.197 94.7106 278.975 94.489 278.702 94.489C278.429 94.489 278.207 94.7106 278.207 94.9838C278.207 95.2571 278.429 95.4787 278.702 95.4787Z" fill="#A88E56"/>
<path d="M280.56 69.7576C275.649 69.6036 271.135 67.8615 267.51 65.0261C267.313 65.125 267.118 65.2256 266.93 65.3376C270.747 68.3947 275.557 70.2572 280.792 70.3644C280.72 70.1595 280.647 69.9552 280.56 69.7576Z" fill="#A39C99"/>
<path d="M281.191 71.8424C275.368 71.822 270.065 69.5719 266.083 65.9062C265.96 65.9979 265.841 66.0938 265.723 66.1908C269.808 69.9721 275.267 72.2899 281.259 72.2929C281.239 72.1419 281.218 71.991 281.191 71.8424Z" fill="#A39C99"/>
<path d="M269.067 79.9771H266.356C265.943 79.9771 265.607 79.641 265.607 79.2283V77.9073C265.607 77.8247 265.675 77.7576 265.757 77.7576C265.84 77.7576 265.907 77.8247 265.907 77.9073V79.2283C265.907 79.4757 266.109 79.6776 266.356 79.6776H269.067C269.314 79.6776 269.516 79.4757 269.516 79.2283V77.9073C269.516 77.8247 269.583 77.7576 269.666 77.7576C269.749 77.7576 269.816 77.8247 269.816 77.9073V79.2283C269.816 79.641 269.48 79.9771 269.067 79.9771Z" fill="#716C6B"/>
<path d="M277.219 79.9771H274.509C274.096 79.9771 273.76 79.641 273.76 79.2283V77.9073C273.76 77.8247 273.827 77.7576 273.91 77.7576C273.992 77.7576 274.059 77.8247 274.059 77.9073V79.2283C274.059 79.4757 274.261 79.6776 274.509 79.6776H277.219C277.466 79.6776 277.668 79.4757 277.668 79.2283V77.9073C277.668 77.8247 277.735 77.7576 277.818 77.7576C277.901 77.7576 277.968 77.8247 277.968 77.9073V79.2283C277.968 79.641 277.632 79.9771 277.219 79.9771Z" fill="#716C6B"/>
<path d="M280.827 79.913C282.081 79.913 283.098 78.8965 283.098 77.6425C283.098 76.3886 282.081 75.3721 280.827 75.3721C279.573 75.3721 278.557 76.3886 278.557 77.6425C278.557 78.8965 279.573 79.913 280.827 79.913Z" fill="#EDC7B2"/>
</g>
<path d="M67.2903 169.262H27.1914V173.595H67.2903V169.262Z" fill="#F0EBE9"/>
<path d="M82.8411 122.275H42.7422V126.607H82.8411V122.275Z" fill="#F0EBE9"/>
<path d="M99.1596 160.724H27.0762V165.057H99.1596V160.724Z" fill="#F0EBE9"/>
<path d="M99.021 152.202H26.9375V156.535H99.021V152.202Z" fill="#F0EBE9"/>
<path d="M98.8139 143.662H26.7305V147.995H98.8139V143.662Z" fill="#F0EBE9"/>
<path d="M67.2903 194.92H27.1914V199.253H67.2903V194.92Z" fill="#F0EBE9"/>
<path d="M99.1596 186.382H27.0762V190.715H99.1596V186.382Z" fill="#F0EBE9"/>
<path d="M99.021 177.859H26.9375V182.191H99.021V177.859Z" fill="#F0EBE9"/>
<path d="M276.413 169.263H236.314V173.596H276.413V169.263Z" fill="#F0EBE9"/>
<path d="M291.896 122.274H251.797V126.607H291.896V122.274Z" fill="#F0EBE9"/>
<path d="M308.22 160.724H236.137V165.057H308.22V160.724Z" fill="#F0EBE9"/>
<path d="M308.081 152.202H235.998V156.535H308.081V152.202Z" fill="#F0EBE9"/>
<path d="M307.937 143.663H235.854V147.995H307.937V143.663Z" fill="#F0EBE9"/>
<path d="M276.413 194.92H236.314V199.253H276.413V194.92Z" fill="#F0EBE9"/>
<path d="M308.22 186.382H236.137V190.715H308.22V186.382Z" fill="#F0EBE9"/>
<path d="M308.081 177.859H235.998V182.191H308.081V177.859Z" fill="#F0EBE9"/>
<path d="M215.497 0H119.679C108.387 0 99.2578 9.13948 99.2578 20.4453V229.705C99.2578 241.011 108.387 250.151 119.679 250.151H215.43C226.722 250.151 235.851 241.011 235.851 229.705V20.4453C235.851 9.13948 226.722 0 215.497 0Z" fill="#E9E5E4"/>
<path d="M105.146 19.8378V229.91C105.146 231.197 105.349 232.415 105.62 233.566H229.5C229.771 232.415 229.974 231.197 229.974 229.91V19.8378C229.974 19.7701 229.974 19.7701 229.974 19.7024H105.146C105.146 19.7701 105.146 19.8378 105.146 19.8378Z" fill="white"/>
<path d="M215.301 5.07471H119.956C111.842 5.07471 105.215 11.7093 105.215 19.8333V24.6399H230.11V19.8333C230.042 11.7093 223.415 5.07471 215.301 5.07471Z" fill="white"/>
<path d="M105.146 228.823V229.974C105.146 238.098 111.773 244.732 119.888 244.732H215.233C223.347 244.732 229.974 238.098 229.974 229.974V228.823H105.146Z" fill="white"/>
<path d="M191.293 13.5414H144.297C138.279 13.5414 133.41 8.66703 133.41 2.64175V2.50635H202.18V2.64175C202.18 8.66703 197.311 13.5414 191.293 13.5414Z" fill="#E9E5E4"/>
<path d="M181.966 6.49418H154.85C154.58 6.49418 154.377 6.29108 154.377 6.02029C154.377 5.74949 154.58 5.54639 154.85 5.54639H181.966C182.237 5.54639 182.439 5.74949 182.439 6.02029C182.439 6.29108 182.237 6.49418 181.966 6.49418Z" fill="white"/>
<path d="M167.561 100.062C182.649 100.062 194.88 87.8167 194.88 72.7113C194.88 57.6059 182.649 45.3606 167.561 45.3606C152.473 45.3606 140.242 57.6059 140.242 72.7113C140.242 87.8167 152.473 100.062 167.561 100.062Z" fill="#F5F1EE"/>
<mask id="mask2" mask-type="alpha" maskUnits="userSpaceOnUse" x="140" y="45" width="55" height="56">
<path d="M167.561 100.062C182.649 100.062 194.88 87.8167 194.88 72.7113C194.88 57.6059 182.649 45.3606 167.561 45.3606C152.473 45.3606 140.242 57.6059 140.242 72.7113C140.242 87.8167 152.473 100.062 167.561 100.062Z" fill="#F5F1EE"/>
</mask>
<g mask="url(#mask2)">
<path d="M167.558 99.652C178.948 99.652 188.182 94.8023 188.182 88.82C188.182 82.8377 178.948 77.988 167.558 77.988C156.167 77.988 146.934 82.8377 146.934 88.82C146.934 94.8023 156.167 99.652 167.558 99.652Z" fill="#716C6B"/>
<path d="M181.011 133.103C181.011 133.983 174.992 134.66 167.554 134.66C160.116 134.66 154.098 133.983 154.098 133.103V90.3845C154.098 89.5044 160.116 88.8274 167.554 88.8274C174.992 88.8274 181.011 89.5044 181.011 90.3845V133.103Z" fill="#716C6B"/>
<path d="M167.543 68.3026C169.821 68.3026 171.668 66.4537 171.668 64.1729C171.668 61.8921 169.821 60.0432 167.543 60.0432C165.265 60.0432 163.418 61.8921 163.418 64.1729C163.418 66.4537 165.265 68.3026 167.543 68.3026Z" fill="#EDC7B2"/>
<path d="M167.551 75.0151C168.112 75.0151 168.566 74.5605 168.566 73.9996C168.566 73.4388 168.112 72.9841 167.551 72.9841C166.991 72.9841 166.537 73.4388 166.537 73.9996C166.537 74.5605 166.991 75.0151 167.551 75.0151Z" fill="#EDC7B2"/>
<path d="M167.551 76.9802C168.112 76.9802 168.566 76.5256 168.566 75.9647C168.566 75.4039 168.112 74.9492 167.551 74.9492C166.991 74.9492 166.537 75.4039 166.537 75.9647C166.537 76.5256 166.991 76.9802 167.551 76.9802Z" fill="#EDC7B2"/>
<path d="M167.551 79.0046C168.112 79.0046 168.566 78.55 168.566 77.9891C168.566 77.4283 168.112 76.9736 167.551 76.9736C166.991 76.9736 166.537 77.4283 166.537 77.9891C166.537 78.55 166.991 79.0046 167.551 79.0046Z" fill="#EDC7B2"/>
<path d="M167.551 53.3464C168.112 53.3464 168.566 52.8918 168.566 52.3309C168.566 51.7701 168.112 51.3154 167.551 51.3154C166.991 51.3154 166.537 51.7701 166.537 52.3309C166.537 52.8918 166.991 53.3464 167.551 53.3464Z" fill="#EDC7B2"/>
<path d="M175.794 66.7553C177.213 66.7553 178.364 65.6035 178.364 64.1827C178.364 62.7619 177.213 61.6101 175.794 61.6101C174.375 61.6101 173.225 62.7619 173.225 64.1827C173.225 65.6035 174.375 66.7553 175.794 66.7553Z" fill="#EDC7B2"/>
<path d="M159.376 66.7553C160.795 66.7553 161.946 65.6035 161.946 64.1827C161.946 62.7619 160.795 61.6101 159.376 61.6101C157.957 61.6101 156.807 62.7619 156.807 64.1827C156.807 65.6035 157.957 66.7553 159.376 66.7553Z" fill="#EDC7B2"/>
<path d="M177.761 68.1471C179.18 68.1471 180.331 66.9953 180.331 65.5745C180.331 64.1537 179.18 63.002 177.761 63.002C176.342 63.002 175.191 64.1537 175.191 65.5745C175.191 66.9953 176.342 68.1471 177.761 68.1471Z" fill="#EDC7B2"/>
<path d="M176.823 65.7392C177.682 65.7392 178.378 65.0421 178.378 64.1821C178.378 63.3221 177.682 62.625 176.823 62.625C175.964 62.625 175.268 63.3221 175.268 64.1821C175.268 65.0421 175.964 65.7392 176.823 65.7392Z" fill="#EDC7B2"/>
<path d="M167.55 75.0131C173.525 75.0131 178.369 70.1634 178.369 64.1811C178.369 58.1988 173.525 53.3491 167.55 53.3491C161.574 53.3491 156.73 58.1988 156.73 64.1811C156.73 70.1634 161.574 75.0131 167.55 75.0131Z" fill="#EDC7B2"/>
<path d="M167.55 72.9794C173.525 72.9794 178.369 68.1297 178.369 62.1474C178.369 56.1651 173.525 51.3154 167.55 51.3154C161.574 51.3154 156.73 56.1651 156.73 62.1474C156.73 68.1297 161.574 72.9794 167.55 72.9794Z" fill="#EDC7B2"/>
<path d="M172.212 64.722C172.511 64.722 172.754 64.4793 172.754 64.18C172.754 63.8806 172.511 63.6379 172.212 63.6379C171.913 63.6379 171.67 63.8806 171.67 64.18C171.67 64.4793 171.913 64.722 172.212 64.722Z" fill="#644B44" stroke="#644B44" stroke-width="0.2" stroke-miterlimit="10"/>
<path d="M162.884 64.722C163.183 64.722 163.426 64.4793 163.426 64.18C163.426 63.8806 163.183 63.6379 162.884 63.6379C162.584 63.6379 162.342 63.8806 162.342 64.18C162.342 64.4793 162.584 64.722 162.884 64.722Z" fill="#644B44" stroke="#644B44" stroke-width="0.2" stroke-miterlimit="10"/>
<path d="M157.407 68.109C158.827 68.109 159.977 66.9573 159.977 65.5365C159.977 64.1157 158.827 62.9639 157.407 62.9639C155.988 62.9639 154.838 64.1157 154.838 65.5365C154.838 66.9573 155.988 68.109 157.407 68.109Z" fill="#EDC7B2"/>
<path d="M158.362 65.7389C159.221 65.7389 159.917 65.0418 159.917 64.1819C159.917 63.3219 159.221 62.6248 158.362 62.6248C157.503 62.6248 156.807 63.3219 156.807 64.1819C156.807 65.0418 157.503 65.7389 158.362 65.7389Z" fill="#EDC7B2"/>
<path d="M178.368 62.6213C178.368 62.4859 178.368 62.2828 178.368 62.1474C178.368 56.1898 173.499 51.3154 167.549 51.3154C164.032 51.3154 160.99 53.0079 158.961 55.5805L178.368 62.6213Z" fill="#644B44"/>
<path d="M171.887 52.2692L177.973 59.5808C177.162 56.2635 174.93 53.6232 171.887 52.2692ZM156.74 62.1534C156.74 62.2211 156.74 62.3565 156.74 62.4242L169.656 51.5922C168.98 51.4568 168.236 51.3891 167.492 51.3891C161.541 51.3214 156.74 56.1958 156.74 62.1534Z" fill="#644B44"/>
<path d="M171.691 79.0776C171.691 81.3794 169.865 83.2073 167.566 83.2073C165.267 83.2073 163.441 81.3794 163.441 79.0776V72.3753C163.441 70.0735 165.267 68.2456 167.566 68.2456C169.865 68.2456 171.691 70.0735 171.691 72.3753V79.0776Z" fill="#EDC7B2"/>
<path d="M156.589 90.5846C156.792 88.3505 153.749 84.9655 151.517 84.7624C149.286 84.5593 147.257 86.2518 147.055 88.4859L143.741 112.993C143.538 115.227 145.229 117.258 147.46 117.461C149.692 117.665 151.72 115.972 151.923 113.738L156.589 90.5846Z" fill="#716C6B"/>
<path d="M178.57 90.5851C178.367 88.351 181.41 84.966 183.642 84.7629C185.873 84.5598 187.902 86.2523 188.105 88.4864L191.418 112.994C191.621 115.228 189.93 117.259 187.699 117.462C185.467 117.665 183.439 115.972 183.236 113.738L178.57 90.5851Z" fill="#716C6B"/>
<path d="M163.502 76.9751L167.559 79.0061V97.6235L161 78.5999L162.758 78.1937L163.502 76.9751Z" fill="white"/>
<path d="M171.693 76.9751L167.568 79.0061V97.6235L174.195 78.5999L172.369 78.1937L171.693 76.9751Z" fill="white"/>
<path d="M167.555 79.6157L165.662 81.9175L166.338 83.6777L165.459 91.3955L167.555 97.6239" fill="#7F5640"/>
<path d="M167.568 79.6157L169.597 81.9175L168.988 83.6777L169.732 91.3955L167.568 97.6239" fill="#7F5640"/>
<path d="M175.413 85.6419C175.712 85.6419 175.955 85.3992 175.955 85.0999C175.955 84.8005 175.712 84.5579 175.413 84.5579C175.114 84.5579 174.871 84.8005 174.871 85.0999C174.871 85.3992 175.114 85.6419 175.413 85.6419Z" fill="#BAA371"/>
</g>
<path d="M173.971 171.817H128.598V176.759H173.971V171.817Z" fill="#F0EBE9"/>
<path d="M191.565 118.609H146.191V123.551H191.565V118.609Z" fill="#F0EBE9"/>
<path d="M209.97 162.135H128.42V167.077H209.97V162.135Z" fill="#F0EBE9"/>
<path d="M209.828 152.452H128.277V157.394H209.828V152.452Z" fill="#F0EBE9"/>
<path d="M209.621 142.779H128.07V147.721H209.621V142.779Z" fill="#F0EBE9"/>
<path d="M173.971 200.79H128.598V205.732H173.971V200.79Z" fill="#F0EBE9"/>
<path d="M209.97 191.117H128.42V196.059H209.97V191.117Z" fill="#F0EBE9"/>
<path d="M209.828 181.44H128.277V186.382H209.828V181.44Z" fill="#F0EBE9"/>
<path d="M345.954 201.01C352.545 201.01 357.888 195.667 357.888 189.076C357.888 182.485 352.545 177.142 345.954 177.142C339.363 177.142 334.02 182.485 334.02 189.076C334.02 195.667 339.363 201.01 345.954 201.01Z" fill="#BBB3AF"/>
<path d="M346.699 269.176C349.213 269.176 351.25 267.139 351.25 264.625C351.25 262.112 349.213 260.074 346.699 260.074C344.186 260.074 342.148 262.112 342.148 264.625C342.148 267.139 344.186 269.176 346.699 269.176Z" fill="#EDC7B2"/>
<path d="M355.054 191.907L351.25 264.625H339.906L333.928 187.356L355.054 191.907Z" fill="#BBB3AF"/>
<path d="M351.248 264.08C350.837 264.065 350.419 264.378 350.318 264.776C350.318 264.776 349.697 267.226 346.83 267.226C343.964 267.226 343.415 264.843 343.415 264.843C343.323 264.442 342.931 264.001 342.544 263.862L342.278 263.766C341.891 263.627 341.397 263.798 341.178 264.146C341.178 264.146 340.221 265.675 338.789 265.915C337.356 266.154 334.28 266.37 334.28 266.37C333.869 266.4 333.24 266.586 332.881 266.786C332.881 266.786 330.986 267.838 330.986 270.863C330.986 272.512 330.986 272.963 330.986 272.963C330.986 273.374 331.323 273.71 331.734 273.71H350.734C351.145 273.71 351.507 273.375 351.536 272.965L352.142 264.859C352.172 264.45 351.862 264.102 351.451 264.087L351.248 264.08Z" fill="#7F5640"/>
<path d="M330.23 190.222C330.288 191.17 336.977 191.53 345.17 191.026C353.363 190.522 359.957 189.345 359.899 188.397L356.763 137.429C356.705 136.481 350.015 136.121 341.823 136.625C333.63 137.129 331.28 138.045 331.339 138.993L330.23 190.222Z" fill="#E9E5E4"/>
<path d="M331.337 138.993C331.678 144.526 338.948 148.581 345.527 148.176C352.105 147.772 357.162 142.958 356.822 137.425C356.482 131.892 350.873 127.735 344.294 128.139C337.715 128.544 330.997 133.46 331.337 138.993Z" fill="#E9E5E4"/>
<path d="M342.835 126.061C350.031 126.061 355.865 120.227 355.865 113.03C355.865 105.834 350.031 100 342.835 100C335.639 100 329.805 105.834 329.805 113.03C329.805 120.227 335.639 126.061 342.835 126.061Z" fill="#EDC7B2"/>
<path d="M333.731 114.732C334.066 114.732 334.337 114.461 334.337 114.126C334.337 113.791 334.066 113.52 333.731 113.52C333.396 113.52 333.125 113.791 333.125 114.126C333.125 114.461 333.396 114.732 333.731 114.732Z" fill="#644B44" stroke="#644B44" stroke-width="0.2" stroke-miterlimit="10"/>
<path d="M342.85 119.709C340.356 120.019 338.585 122.292 338.895 124.786L339.685 131.138C341.149 131.541 342.713 131.672 344.312 131.474C345.912 131.275 347.397 130.764 348.717 130.016L347.928 123.664C347.618 121.17 345.345 119.399 342.85 119.709Z" fill="#EDC7B2"/>
<path d="M342.834 100C340.766 100 338.817 100.495 337.08 101.353C332.447 104.095 329.354 104.017 329.354 104.017C332.615 106.764 338.53 104.839 338.53 104.839L338.544 104.832C340.085 108.18 341.985 111.326 344.185 114.232C344.671 113.374 345.582 112.788 346.639 112.788C348.203 112.788 349.47 114.056 349.47 115.62C349.47 116.851 348.68 117.888 347.584 118.278C347.599 118.294 347.613 118.311 347.628 118.327L353.213 120.871C354.869 118.689 355.865 115.981 355.865 113.03C355.865 105.834 350.031 100 342.834 100Z" fill="#644B44"/>
<path d="M333.342 137.052C335.665 138.013 337.399 142.692 336.438 145.016C335.477 147.34 332.815 148.445 330.492 147.484L304.798 138.167C302.475 137.206 301.371 134.544 302.332 132.221C303.293 129.897 305.955 128.792 308.277 129.753L333.342 137.052Z" fill="#E9E5E4"/>
<path d="M325.603 119.333L309.654 136.796C307.939 138.634 305.059 138.734 303.222 137.018C301.385 135.303 301.286 132.423 303.001 130.585L319.584 113.422L325.603 119.333Z" fill="#E9E5E4"/>
<path d="M327.022 115.366C327.634 115.063 328.037 114.387 327.92 113.855C327.804 113.324 327.213 113.138 326.601 113.441L323.355 115.086C322.743 115.389 322.34 116.065 322.456 116.596C322.572 117.128 323.163 117.313 323.776 117.011L327.022 115.366Z" fill="#EDC7B2"/>
<path d="M325.464 116.06L322.778 117.906L319.22 114.313C319.22 114.313 320.66 112.234 322.964 110.702C325.268 109.169 327.56 108.122 330.434 109.004C332.18 109.54 332.57 111.054 331.526 111.434C330.502 111.808 329.693 111.397 328.225 112.32C327.547 112.746 324.479 114.76 325.464 116.06Z" fill="#EDC7B2"/>
</svg>
