<svg width="180" height="95" viewBox="0 0 180 95" fill="none" xmlns="http://www.w3.org/2000/svg">
<g clip-path="url(#clip0)">
<path d="M128.38 5.60133L84.8027 0L77.695 55.3698L121.272 60.9711L128.38 5.60133Z" fill="white"/>
<path d="M90.7305 33.7997L114.249 36.824" stroke="#E7E4E2" stroke-miterlimit="10"/>
<path d="M90.0859 38.8343L113.604 41.8587" stroke="#E7E4E2" stroke-miterlimit="10"/>
<path d="M89.4395 43.87L102.777 45.5845" stroke="#E7E4E2" stroke-miterlimit="10"/>
<path d="M92.0234 23.7293L115.542 26.7536" stroke="#E7E4E2" stroke-miterlimit="10"/>
<path d="M91.377 28.765L107.407 30.8254" stroke="#E7E4E2" stroke-miterlimit="10"/>
<path d="M90.7305 33.7996L114.249 36.824" stroke="#E7E4E2" stroke-miterlimit="10"/>
<path d="M93.3184 13.6589L116.836 16.6833" stroke="#E7E4E2" stroke-miterlimit="10"/>
<path d="M92.6719 18.6946L116.189 21.7179" stroke="#E7E4E2" stroke-miterlimit="10"/>
<path d="M92.0254 23.7293L115.544 26.7536" stroke="#E7E4E2" stroke-miterlimit="10"/>
<path d="M164.437 42.1826C173.032 42.1826 180 35.2104 180 26.6098C180 18.0092 173.032 11.037 164.437 11.037C155.843 11.037 148.875 18.0092 148.875 26.6098C148.875 35.2104 155.843 42.1826 164.437 42.1826Z" fill="#E9C5B1"/>
<path d="M144.07 118.583C144.07 119.733 152.008 120.673 161.826 120.673C171.644 120.673 179.582 119.733 179.582 118.583V57.6508C179.582 56.5011 171.644 55.5605 161.826 55.5605C152.008 55.5605 149.188 57.6508 149.188 57.6508L144.07 118.583Z" fill="#726C6B"/>
<path d="M149.188 57.6508C149.188 64.2352 157.543 69.67 165.377 69.67C173.21 69.67 179.581 64.3397 179.581 57.6508C179.581 50.9618 173.21 45.318 165.377 45.6315C152.739 46.2586 149.188 57.6508 149.188 57.6508Z" fill="#726C6B"/>
<path d="M164.437 42.078C172.282 42.078 178.642 35.7142 178.642 27.864C178.642 20.0138 172.282 13.6499 164.437 13.6499C156.592 13.6499 150.232 20.0138 150.232 27.864C150.232 35.7142 156.592 42.078 164.437 42.078Z" fill="#E9C5B1"/>
<path d="M153.575 28.5956C153.979 28.5956 154.306 28.268 154.306 27.864C154.306 27.4599 153.979 27.1324 153.575 27.1324C153.171 27.1324 152.844 27.4599 152.844 27.864C152.844 28.268 153.171 28.5956 153.575 28.5956Z" fill="#644A44" stroke="#644A44" stroke-width="0.1706" stroke-miterlimit="10"/>
<path d="M165.377 33.2988C162.348 33.2988 159.945 35.7026 159.945 38.7336V46.3632C161.616 47.0948 163.496 47.4083 165.377 47.4083C167.257 47.4083 169.137 46.9902 170.808 46.3632V38.7336C170.808 35.7026 168.301 33.2988 165.377 33.2988Z" fill="#E9C5B1"/>
<path d="M175.404 15.5312L179.477 30.5814C179.79 29.3272 179.999 27.9685 179.999 26.6098C179.999 22.3247 178.224 18.3531 175.404 15.5312ZM149.814 21.2795L174.464 14.6951C171.748 12.3957 168.301 11.037 164.437 11.037C157.752 11.037 152.008 15.3222 149.814 21.2795Z" fill="#644A44"/>
<path d="M176.867 35.9117C178.852 33.2988 180.001 30.0588 180.001 26.6098C180.001 18.0396 173.003 11.037 164.438 11.037C161.932 11.037 159.634 11.6641 157.545 12.6048C160.365 20.2344 164.647 27.0279 170.183 32.8807L176.867 35.9117Z" fill="#644A44"/>
<path d="M169.034 32.9852C170.88 32.9852 172.376 31.4878 172.376 29.6407C172.376 27.7936 170.88 26.2962 169.034 26.2962C167.188 26.2962 165.691 27.7936 165.691 29.6407C165.691 31.4878 167.188 32.9852 169.034 32.9852Z" fill="#E9C5B1"/>
<path d="M170.808 42.8097L171.956 47.0948L148.561 64.8623L153.47 53.3657L155.35 47.9309L155.663 45.5271L170.808 42.8097Z" fill="white"/>
<path d="M155.35 47.9309L156.603 54.3063L148.561 64.8623L150.127 57.6508L152.112 53.7837L152.007 49.8121L155.35 47.9309Z" fill="#7D5540"/>
<path d="M171.539 43.7502L162.452 45.8405L148.561 64.8623V66.43L172.896 47.5128L171.539 43.7502Z" fill="#726C6B"/>
<path d="M162.348 52.425C162.867 52.425 163.288 52.0039 163.288 51.4844C163.288 50.9649 162.867 50.5438 162.348 50.5438C161.829 50.5438 161.408 50.9649 161.408 51.4844C161.408 52.0039 161.829 52.425 162.348 52.425Z" fill="#B7A170"/>
<path d="M15.5348 41.8221C24.1145 41.8221 31.0697 34.8623 31.0697 26.277C31.0697 17.6916 24.1145 10.7318 15.5348 10.7318C6.95519 10.7318 0 17.6916 0 26.277C0 34.8623 6.95519 41.8221 15.5348 41.8221Z" fill="#E8C4AF"/>
<path d="M35.9269 118.326C35.9269 119.459 27.9934 120.377 18.2076 120.377C8.42181 120.377 0.488281 119.459 0.488281 118.326V57.4059C0.488281 56.2727 8.42181 55.3549 18.2076 55.3549C27.9934 55.3549 30.857 56.2727 30.857 57.4059L35.9269 118.326Z" fill="#E7E4E2"/>
<path d="M30.8568 57.4059C30.8568 64.0191 22.5022 69.3799 14.6439 69.3799C6.78561 69.3799 0.416016 64.0191 0.416016 57.4059C0.416016 50.7927 6.78666 45.4319 14.6439 45.4319C22.5012 45.4319 30.8568 50.7927 30.8568 57.4059Z" fill="#E7E4E2"/>
<path d="M15.5346 41.821C23.3924 41.821 29.7625 35.4468 29.7625 27.5837C29.7625 19.7207 23.3924 13.3464 15.5346 13.3464C7.67669 13.3464 1.30664 19.7207 1.30664 27.5837C1.30664 35.4468 7.67669 41.821 15.5346 41.821Z" fill="#E8C4AF"/>
<path d="M26.386 28.3061C26.7846 28.3061 27.1078 27.9827 27.1078 27.5837C27.1078 27.1848 26.7846 26.8614 26.386 26.8614C25.9873 26.8614 25.6641 27.1848 25.6641 27.5837C25.6641 27.9827 25.9873 28.3061 26.386 28.3061Z" fill="#634A43" stroke="#634A43" stroke-width="0.1706" stroke-miterlimit="10"/>
<path d="M14.643 32.9968C11.6468 32.9968 9.2168 35.4274 9.2168 38.4266V46.0633C10.8894 46.7543 12.7208 47.1411 14.643 47.1411C16.5653 47.1411 18.3967 46.7543 20.0692 46.0633V38.4266C20.0692 35.4284 17.6393 32.9968 14.643 32.9968Z" fill="#E8C4AF"/>
<path d="M9.79207 32.609C15.2402 26.8112 19.5695 19.9491 22.3955 12.3459C20.3238 11.3225 18.0014 10.7318 15.5348 10.7318C6.95464 10.7318 0 17.6911 0 26.277C0 29.7968 1.18784 33.0282 3.16129 35.6323L9.79207 32.609Z" fill="#634A43"/>
<path d="M10.9995 32.7459C12.8643 32.7459 14.376 31.2332 14.376 29.3672C14.376 27.5011 12.8643 25.9884 10.9995 25.9884C9.13476 25.9884 7.62305 27.5011 7.62305 29.3672C7.62305 31.2332 9.13476 32.7459 10.9995 32.7459Z" fill="#E8C4AF"/>
<path d="M22.395 12.3459C27.9195 15.6181 31.6062 15.525 31.6062 15.525C27.7178 18.8013 20.666 16.5056 20.666 16.5056L16.8633 14.2956L22.395 12.3459Z" fill="#634A43"/>
<path d="M89.7335 31.8892L49.4219 37.7216L53.4843 65.8368L93.796 60.0043L89.7335 31.8892Z" fill="white"/>
<path d="M49.4219 37.7229L71.039 52.2822L89.7341 31.8927L71.6993 56.8527L49.4219 37.7229Z" fill="#E7E4E2"/>
<path d="M63.7112 17.5124C63.7112 17.5124 63.5253 32.7062 72.772 37.3321" stroke="#66A278" stroke-width="0.5" stroke-miterlimit="10"/>
<path d="M63.869 27.6297C63.869 27.6297 64.149 27.3976 62.4315 26.4599C60.714 25.5222 59.0352 24.8061 59.0352 24.8061C59.0352 24.8061 59.1699 26.1097 60.8383 27.5597C62.5078 29.0096 64.6411 28.9145 63.869 27.6297Z" fill="#8EC77A"/>
<path d="M67.7914 31.7748C67.7914 31.7748 66.1941 29.1968 66.986 27.9235C67.7778 26.6512 68.3639 25.9289 68.3639 25.9289C68.3639 25.9289 68.7254 26.785 68.834 28.5079C68.9437 30.2317 67.7914 31.7748 67.7914 31.7748Z" fill="#8EC77A"/>
<path d="M65.9362 11.9571C65.9362 11.9571 67.8365 12.0564 67.9326 13.3245C68.0287 14.5925 67.1992 14.7859 66.7615 14.9323C66.3227 15.0776 67.0519 16.054 66.2235 16.9802C65.394 17.9054 64.0296 18.1971 63.688 17.9033C63.3474 17.6106 62.6642 18.4877 61.5432 18.0476C60.4232 17.6075 59.3524 16.5819 59.7912 15.9484C60.23 15.3149 59.5969 15.363 59.3545 14.1441C59.1121 12.9251 59.1142 11.4616 60.3324 11.219C61.5505 10.9765 61.4533 11.172 62.0875 10.3921C62.7216 9.61225 63.5031 8.54071 64.1832 9.85792C64.1832 9.85792 65.6458 9.3718 66.1326 10.1036C66.6194 10.8364 66.5202 11.7626 65.9362 11.9571Z" fill="#F1E8AD"/>
<path d="M64.0177 17.2374C63.9498 17.2092 63.8986 17.3001 63.8631 17.3461C63.8171 17.4047 63.7722 17.4695 63.7471 17.5406C63.6938 17.6984 63.3428 17.2144 63.2979 17.2102C63.2812 17.2092 63.2644 17.2165 63.254 17.2301C63.2227 17.275 63.2509 17.3691 63.2592 17.4182C63.2644 17.4517 63.2697 17.4841 63.278 17.5165C63.2822 17.5332 63.3104 17.5876 63.3031 17.6012C63.2937 17.6179 63.2227 17.6273 63.2039 17.6315C63.1642 17.6399 63.1245 17.6409 63.0848 17.6336C63.0503 17.6284 63.0273 17.6064 62.9949 17.5918C62.9678 17.5792 62.9343 17.573 62.9082 17.5866C62.9082 17.6639 62.9667 17.7298 63.0221 17.7768C63.0743 17.8218 63.1245 17.8615 63.1662 17.9179C63.2091 17.9744 63.2321 18.0455 63.2697 18.1061C63.4504 18.3926 63.4138 18.5044 63.4713 18.6236C63.5277 18.7438 63.3783 18.3727 63.6437 18.2985C63.909 18.2242 63.9341 18.2838 64.0083 18.3779C64.0166 18.3884 63.9863 18.2075 64.0302 17.8782C64.0459 17.7611 64.0532 17.6441 64.0574 17.5259C64.0595 17.4705 64.0605 17.4162 64.0605 17.3608C64.0605 17.3168 64.0751 17.2688 64.0177 17.2374Z" fill="#8EC77A"/>
</g>
<defs>
<clipPath id="clip0">
<rect width="180" height="95" fill="white"/>
</clipPath>
</defs>
</svg>
