
<svg xmlns="http://www.w3.org/2000/svg" width="16" height="16" fill="none"><path stroke="#393837" stroke-linecap="round" stroke-linejoin="round" stroke-width="1.3" d="M7.268 1.577c.231-.616 1.156-.616 1.464 0l1.388 3.469c.077.308.385.462.693.462l3.7.231c.694.077 1.002.925.462 1.388l-2.851 2.389c-.232.154-.309.462-.232.77l.925 3.623c.154.694-.54 1.233-1.156.848l-3.16-2.004a.835.835 0 0 0-.848 0l-3.16 2.004c-.616.385-1.31-.154-1.156-.848l.848-3.622c.077-.309 0-.617-.231-.771l-2.93-2.39c-.539-.462-.23-1.31.463-1.387l3.7-.231c.308 0 .54-.231.693-.462l1.388-3.469Z"/></svg>