<svg xmlns="http://www.w3.org/2000/svg" fill="none" viewBox="0 0 15 14"><path fill="#f7723e" fill-rule="evenodd" d="M3.125 6.27h2.333a1.313 1.313 0 0 0 1.313-1.312V2.625a1.313 1.313 0 0 0-1.313-1.313H3.125a1.313 1.313 0 0 0-1.313 1.313v2.333a1.312 1.312 0 0 0 1.313 1.313Zm0 6.418h2.333a1.313 1.313 0 0 0 1.313-1.313V9.042a1.313 1.313 0 0 0-1.313-1.313H3.125a1.313 1.313 0 0 0-1.313 1.313v2.333a1.313 1.313 0 0 0 1.313 1.313Zm8.75-6.417H9.542a1.313 1.313 0 0 1-1.313-1.313V2.625a1.313 1.313 0 0 1 1.313-1.313h2.333a1.313 1.313 0 0 1 1.313 1.313v2.333a1.313 1.313 0 0 1-1.313 1.313Zm-2.333 6.417h2.333a1.313 1.313 0 0 0 1.313-1.313V9.042a1.313 1.313 0 0 0-1.313-1.313H9.542a1.313 1.313 0 0 0-1.313 1.313v2.333a1.313 1.313 0 0 0 1.313 1.313Z" clip-rule="evenodd"/></svg>