
<svg xmlns="http://www.w3.org/2000/svg" width="16" height="16" fill="none"><g clip-path="url(#a)"><path fill="#393837" d="M5.654.486c4.034-1.519 8.443.645 9.899 4.781 1.452 4.127-.594 8.72-4.606 10.235-3.9 1.481-8.178-.512-9.756-4.399l-.144-.382-.03-.129a.65.65 0 0 1 1.202-.42l.055.12.122.322c1.326 3.27 4.888 4.89 8.09 3.674l.001-.001c3.32-1.254 5.069-5.096 3.84-8.588C13.101 2.214 9.43.454 6.112 1.703c-1.604.609-2.84 1.818-3.553 3.306l.396-.182a.65.65 0 0 1 .548 1.18l-1.797.833c-.006.003-.013.004-.02.006a.647.647 0 0 1-.188.048c-.022.002-.043.005-.065.005-.022 0-.043-.003-.065-.005-.021-.002-.042-.004-.063-.008l-.023-.003c-.015-.003-.03-.01-.044-.015-.012-.004-.026-.005-.038-.01l-.018-.01a.638.638 0 0 1-.065-.032l-.054-.031c-.014-.01-.027-.022-.04-.034-.02-.016-.041-.032-.06-.051l-.028-.034a.646.646 0 0 1-.05-.066l-.028-.052c-.007-.013-.016-.026-.022-.04L.032 4.64l-.039-.126a.65.65 0 0 1 1.17-.503l.065.115.147.345C2.222 2.69 3.705 1.226 5.652.487l.002-.001ZM7.98 3.79c.36 0 .65.291.65.65v3.18h2.096l.13.012a.65.65 0 0 1 0 1.274l-.13.013H7.98a.65.65 0 0 1-.65-.65v-3.83c0-.358.292-.65.65-.65Z"/></g><defs><clipPath id="a"><path fill="#fff" d="M0 0h16v16H0z"/></clipPath></defs></svg>