<svg width="11" height="11" fill="none" xmlns="http://www.w3.org/2000/svg"><path d="M9.78 6.246a.582.582 0 0 0 .377-.72l-.184-.577a3.14 3.14 0 0 0 .55-2.897 3.126 3.126 0 0 0-5.958 1.87c.046.145.104.286.174.422-.082-.055-.16-.11-.243-.156a3.009 3.009 0 0 0-2.96 5.239 3.025 3.025 0 0 0 2.892.036l.582.33a.481.481 0 0 0 .224.06.578.578 0 0 0 .124 0 .458.458 0 0 0 .275-.216l.32-.568.248.193c.486.39 1.334 1.072 2.255 1.072.446 0 .876-.163 1.21-.458a1.54 1.54 0 0 0 .591-1.16c.042-.825-.531-1.691-1.017-2.292l.54-.178Zm-5.5 1.26a1.471 1.471 0 1 1-.554-2.003 1.467 1.467 0 0 1 .537 2.003h.018Zm2.838-5.958a1.471 1.471 0 1 1-.963 1.833A1.471 1.471 0 0 1 7.1 1.548h.018Zm2.457 7.118a.889.889 0 0 1-.349.66c-.825.692-1.737.073-2.594-.619a6.065 6.065 0 0 0-.339-.257l.481-.852A.458.458 0 0 0 6.6 6.97l-.582-.33a3.034 3.034 0 0 0-.289-1.118c.28.2.589.355.917.458l.183.577a.587.587 0 0 0 .28.34.596.596 0 0 0 .44.036l.949-.298c.582.624 1.1 1.417 1.077 2.03Z" fill="white"/></svg>