<svg width="11" height="11" fill="none" xmlns="http://www.w3.org/2000/svg"><path fill-rule="evenodd" clip-rule="evenodd" d="M3.334 1.146a2.567 2.567 0 0 0-1.882.76 2.567 2.567 0 0 0-.764 1.898v.003c.042 1.026.467 2 1.19 2.73a40.225 40.225 0 0 0 3.01 3l.467.424a.23.23 0 0 0 .314-.004l.445-.432a40.224 40.224 0 0 0 3.008-2.998 4.115 4.115 0 0 0 1.189-2.73v-.001a2.567 2.567 0 0 0-.74-1.89 2.567 2.567 0 0 0-1.88-.76 2.66 2.66 0 0 0-1.241.307l-.007.004a3.53 3.53 0 0 0-.724.546.347.347 0 0 1-.021.033l-.686.939.958 1.26a.344.344 0 0 1-.067.482l-.838.63.63.838a.344.344 0 0 1-.55.414L4.31 5.486a.344.344 0 0 1 .068-.482l.836-.629-.903-1.188a.344.344 0 0 1-.004-.41l.749-1.026a2.951 2.951 0 0 0-.459-.298l-.003-.002a2.857 2.857 0 0 0-1.26-.305Z" fill="white"/></svg>