<svg width="11" height="11" fill="none" xmlns="http://www.w3.org/2000/svg"><path fill-rule="evenodd" clip-rule="evenodd" d="M1.902.458h6.875a.687.687 0 0 1 .674.688v5.252L7.41 7.471c.063-.25.029-.513-.096-.738a1.082 1.082 0 0 0-.71-.55L3.79 5.408a1.636 1.636 0 0 0-1.164.05l-1.411.761V1.146a.688.688 0 0 1 .687-.688ZM6.61 3.921a.261.261 0 0 0-.1-.02h-.972v-.528h.916a.257.257 0 0 0 .262-.261.261.261 0 0 0-.262-.266h-.628l.798-.87a.261.261 0 0 0 0-.372.266.266 0 0 0-.376 0L5.298 2.64l-.953-1.036a.261.261 0 0 0-.447.186c0 .07.027.136.076.185l.802.871h-.628a.266.266 0 0 0-.246.367.261.261 0 0 0 .246.16h.917V3.9h-.917a.266.266 0 0 0-.188.453.261.261 0 0 0 .188.074h.917v.518a.261.261 0 0 0 .265.262.257.257 0 0 0 .262-.262v-.518h.916a.257.257 0 0 0 .262-.26.261.261 0 0 0-.16-.246ZM0 7.407l1.2-.651-.325.192 1.958-1.081c.272-.1.57-.1.843 0l2.594.724.234.05a.619.619 0 0 1 .403.316.509.509 0 0 1-.238.743.54.54 0 0 1-.371.032 50.06 50.06 0 0 1-.456-.13c-.575-.164-1.481-.425-1.534-.425a.174.174 0 0 0-.123 0 .234.234 0 0 0-.097.307.225.225 0 0 0 .133.11l.133.046c.694.256 1.407.46 2.131.61a2.08 2.08 0 0 0 .835-.197l.068-.041 2.32-1.21a.62.62 0 1 1 .572 1.1L6.43 9.914c-.448.189-.947.221-1.416.091L3.26 9.671a1.755 1.755 0 0 0-.724-.028 2.003 2.003 0 0 0-.4.147l-.265.142-.43.225L0 7.407Z" fill="white"/></svg>