
<svg width="11" height="15" fill="none" xmlns="http://www.w3.org/2000/svg"><g clip-path="url(#a)"><mask id="b" style="mask-type:alpha" maskUnits="userSpaceOnUse" x="0" y="0" width="11" height="14"><path fill-rule="evenodd" clip-rule="evenodd" d="M6.592 1.937a1.5 1.5 0 0 1-1.767 0L3.252.791C2.262.068.87.776.87 2.003v6.576c0 .408.166.798.46 1.08l4.38 4.217 4.38-4.216a1.5 1.5 0 0 0 .46-1.08V2.002C10.549.776 9.156.068 8.165.79L6.592 1.937Z" fill="#D9D9D9"/></mask><g mask="url(#b)"><path d="m.869-.948 4.84 3.53v11.294L.869 9.217V-.948Z" fill="#F9EC67"/><path d="m10.549-.948-4.84 3.53v11.294l4.84-4.659V-.948Z" fill="#61AE7B"/></g></g><defs><clipPath id="a"><path fill="#fff" d="M.869.5h10.13v14H.87z"/></clipPath></defs></svg>