<svg width="14" height="15" viewBox="0 0 14 15" fill="none" xmlns="http://www.w3.org/2000/svg"><g id="sell"><mask id="mask0_3646_3962" style="mask-type:alpha" maskUnits="userSpaceOnUse" x="0" y="0" width="14" height="15"><rect id="Bounding box" y="0.500122" width="14" height="14" fill="#D9D9D9"/></mask><g mask="url(#mask0_3646_3962)"><path id="sell_2" d="M12.4832 8.81264L8.31234 12.9835C8.19567 13.1001 8.06442 13.1876 7.91859 13.246C7.77275 13.3043 7.62692 13.3335 7.48109 13.3335C7.33525 13.3335 7.18942 13.3043 7.04359 13.246C6.89775 13.1876 6.7665 13.1001 6.64984 12.9835L1.50192 7.83556C1.39498 7.72861 1.31234 7.60466 1.254 7.46368C1.19567 7.32271 1.1665 7.17445 1.1665 7.01889V2.83348C1.1665 2.51264 1.28074 2.23799 1.50921 2.00952C1.73768 1.78105 2.01234 1.66681 2.33317 1.66681H6.51859C6.67414 1.66681 6.82484 1.69841 6.97067 1.7616C7.1165 1.8248 7.24289 1.90986 7.34984 2.01681L12.4832 7.16473C12.5998 7.28139 12.6849 7.41264 12.7384 7.55848C12.7919 7.70431 12.8186 7.85014 12.8186 7.99598C12.8186 8.14181 12.7919 8.28521 12.7384 8.42618C12.6849 8.56716 12.5998 8.69598 12.4832 8.81264ZM3.7915 5.16681C4.03456 5.16681 4.24116 5.08174 4.4113 4.9116C4.58143 4.74146 4.6665 4.53486 4.6665 4.29181C4.6665 4.04875 4.58143 3.84216 4.4113 3.67202C4.24116 3.50188 4.03456 3.41681 3.7915 3.41681C3.54845 3.41681 3.34185 3.50188 3.17171 3.67202C3.00157 3.84216 2.9165 4.04875 2.9165 4.29181C2.9165 4.53486 3.00157 4.74146 3.17171 4.9116C3.34185 5.08174 3.54845 5.16681 3.7915 5.16681Z" fill="#f7723e"/></g></g></svg>