<svg xmlns="http://www.w3.org/2000/svg" width="18" height="18" fill="none"><path fill="#72706E" d="m16 12.2-.1.7-.2.7c-.1.4-.6.7-1.2 1a3.9 3.9 0 0 1-3.4.3 39.1 39.1 0 0 1-2.8-1.2c-.9-.6-1.7-1.3-2.6-2.2-1-.9-1.7-1.8-2.2-2.6a9 9 0 0 1-1-2.2A39.2 39.2 0 0 1 2 5v-.5c0-.7.2-1.3.5-1.9.4-.7.7-1 1-1.2a4 4 0 0 1 1.7-.3l.5.8a24 24 0 0 1 1.1 2l.2.3v.3s0 .3-.2.5l-.6.5a6 6 0 0 0-.6.5l-.3.5v.2a2.2 2.2 0 0 0 .3.4v.2a10.4 10.4 0 0 0 4.8 4.4h.2c.1 0 .3 0 .5-.2l.5-.6.5-.6.5-.3h.3l.4.3.2.2a21 21 0 0 0 1.7.9l.8.5v.2Z"/></svg>