<svg width="52" height="53" viewBox="0 0 52 53" xmlns="http://www.w3.org/2000/svg" fill="none"><g clip-path="url(#a)"><path d="M39.303 24.971c0-5.953-5.968-10.796-13.303-10.796-7.335 0-13.303 4.843-13.303 10.796 0 5.337 4.733 9.806 11.126 10.651.433.093 1.023.286 1.172.656.134.336.088.863.043 1.203l-.19 1.139c-.058.336-.267 1.315 1.152.717 1.42-.598 7.661-4.511 10.452-7.724h-.001c1.928-2.114 2.852-4.259 2.852-6.642z" fill="#fff"/><path d="M23.297 22.094h-.933c-.143 0-.259.116-.259.259v5.797c0 .143.116.259.259.259h.933c.143 0 .259-.116.259-.259v-5.797c0-.143-.116-.259-.259-.259zM29.719 22.094h-.933c-.143 0-.259.116-.259.259v3.444l-2.656-3.587-.02-.026-.002-.002-.016-.016-.005-.004-.014-.012-.007-.005-.013-.009-.008-.005-.014-.008-.008-.004-.015-.006-.008-.003-.015-.005-.009-.002-.015-.003-.011-.001-.014-.002-.013-.001h-.9420000000000001c-.143 0-.259.116-.259.259v5.797c0 .143.116.259.259.259h.933c.143 0 .259-.116.259-.259v-3.443l2.66 3.592.066.064.003.002.016.01.007.004.012.006.013.005.008.003.018.006.004.001.066.009h.933c.143 0 .259-.116.259-.259v-5.797c0-.143-.116-.258-.259-.258zM21.047 26.956h-2.535v-4.604c0-.143-.116-.259-.259-.259h-.933c-.143 0-.259.116-.259.259v5.796c0 .07.028.133.072.179l.004.004.004.004c.047.045.109.072.179.072h3.728c.143 0 .259-.116.259-.259v-.933c0-.143-.116-.259-.259-.259zM34.873 23.545c.143 0 .259-.116.259-.259v-.933c0-.143-.116-.259-.259-.259h-3.728c-.07 0-.133.028-.18.073l-.003.003-.004.005c-.044.046-.072.109-.072.178v5.795c0 .07.028.133.072.179l.004.004.004.003c.046.045.109.072.179.072h3.728c.143 0 .259-.116.259-.259v-.933c0-.143-.116-.259-.259-.259h-2.535v-.98h2.535c.143 0 .259-.116.259-.259v-.933c0-.143-.116-.259-.259-.259h-2.535v-.98h2.535z" fill="#00B900"/></g><defs><clipPath id="a"><path d="M6 6.172h40v40h-40v-40z" fill="#fff"/></clipPath></defs></svg>