<svg width="81" height="40" viewBox="0 0 81 40" fill="none" xmlns="http://www.w3.org/2000/svg">
<path d="M11.168 34.9746C11.5114 36.5534 12.615 37.4043 12.6618 37.4394C12.6803 37.4536 12.7024 37.4611 12.7244 37.4624C12.7391 37.4632 12.7542 37.4607 12.7685 37.4553C12.8045 37.4415 12.8319 37.4101 12.8424 37.3704C12.8598 37.3048 13.2689 35.7456 13.0087 34.5238C12.7511 33.3163 11.8532 31.584 11.8149 31.5109C11.7948 31.4724 11.7577 31.4481 11.7171 31.446C11.714 31.446 11.7105 31.446 11.707 31.446C11.663 31.4481 11.6235 31.477 11.605 31.5205C11.5729 31.5966 10.8254 33.4003 11.1676 34.9742L11.168 34.9746Z" fill="#BA972D"/>
<path d="M10.3617 37.3697C9.89538 37.2522 9.4356 37.1828 8.99554 37.1631C7.88651 37.1146 7.26432 37.3943 7.23841 37.406C7.20361 37.4219 7.17809 37.455 7.16996 37.4947C7.16146 37.5344 7.17151 37.5762 7.19626 37.6067C7.25388 37.6774 8.61852 39.3465 9.8455 39.8454C10.0609 39.9327 10.3173 39.9838 10.6081 39.9967C11.8122 40.0494 13.2465 39.4511 13.3068 39.4256C13.342 39.4109 13.3683 39.3787 13.3779 39.3394C13.3876 39.3001 13.3791 39.2583 13.3555 39.2265C13.3138 39.1709 12.3072 37.8597 10.3621 37.3692L10.3617 37.3697Z" fill="#BA972D"/>
<path d="M8.8982 26.5503C8.89047 26.5482 8.88312 26.5474 8.87539 26.547C8.84677 26.5457 8.81854 26.5558 8.79611 26.5758C8.75783 26.6097 7.86032 27.4259 7.85451 29.0076C7.8491 30.5722 8.81777 31.9984 8.85915 32.0587C8.88041 32.0896 8.91367 32.1084 8.94886 32.1097C8.95582 32.1097 8.96317 32.1097 8.97051 32.1084C9.01344 32.1017 9.04901 32.0704 9.06409 32.0265C9.08961 31.9516 9.68899 30.1779 9.64104 29.1728C9.59309 28.171 9.00415 26.6862 8.97902 26.6235C8.96433 26.5867 8.93455 26.5595 8.89859 26.5503H8.8982Z" fill="#BA972D"/>
<path d="M8.92227 34.6682C8.93194 34.6318 8.92614 34.5925 8.90642 34.5612C8.8604 34.4884 7.75948 32.7754 5.75061 32.162C4.83183 31.8814 4.16439 31.802 3.7661 31.7844C3.53254 31.774 3.40918 31.7865 3.40415 31.7869C3.36471 31.7911 3.32952 31.8162 3.31135 31.8543C3.29279 31.8923 3.29356 31.9379 3.31251 31.9751C3.36046 32.0687 4.5043 34.2714 5.76724 34.9228C6.06228 35.075 6.4076 35.1608 6.79352 35.1779C7.8287 35.2235 8.81477 34.7686 8.85615 34.7493C8.88824 34.7343 8.9126 34.7046 8.92227 34.6678V34.6682Z" fill="#BA972D"/>
<path d="M6.259 26.2659C6.26441 26.2668 6.26944 26.2676 6.27447 26.2676C6.31197 26.2693 6.34871 26.2513 6.3723 26.2183C6.41677 26.156 7.46626 24.6846 7.70523 23.7213C7.94344 22.7608 7.82201 21.1632 7.8166 21.0959C7.81351 21.0557 7.79301 21.0198 7.7613 20.9984C7.7439 20.9867 7.72418 20.9805 7.70407 20.9796C7.68783 20.9788 7.6712 20.9817 7.65574 20.9884C7.61088 21.0076 6.55675 21.4768 6.10548 22.9665C5.65962 24.4396 6.14608 26.1091 6.16696 26.1794C6.1805 26.2241 6.21569 26.2576 6.25861 26.2655L6.259 26.2659Z" fill="#BA972D"/>
<path d="M5.73661 29.2897C5.77218 29.2885 5.80505 29.2701 5.82671 29.2395C5.84836 29.209 5.85571 29.1697 5.8472 29.1325C5.82748 29.0455 5.34605 26.9829 3.65968 25.527C2.41259 24.4504 1.56457 24.2058 1.529 24.1958C1.52088 24.1937 1.51275 24.1924 1.50425 24.192C1.47409 24.1907 1.44431 24.202 1.4215 24.2238C1.39211 24.2518 1.3778 24.2936 1.38283 24.3354C1.39597 24.445 1.71964 27.0365 2.70454 28.1838C3.49417 29.1032 4.90676 29.2609 5.47791 29.286C5.63684 29.2931 5.73235 29.2897 5.73661 29.2897Z" fill="#BA972D"/>
<path d="M7.20817 17.9647C7.58365 17.1435 7.7391 15.6704 7.74529 15.6081C7.74954 15.5684 7.73601 15.5287 7.70894 15.5015C7.68806 15.4802 7.66099 15.4681 7.63315 15.4668C7.62503 15.4668 7.61652 15.4668 7.6084 15.4685C7.5647 15.4768 6.52836 15.6834 5.87099 16.9432C5.22211 18.1867 5.3853 19.8019 5.39265 19.87C5.39767 19.9169 5.42629 19.9566 5.4665 19.9737C5.47888 19.9792 5.49164 19.9817 5.5044 19.9825C5.53379 19.9838 5.56279 19.9733 5.58599 19.952C5.63665 19.9047 6.83115 18.7892 7.20817 17.9647Z" fill="#BA972D"/>
<path d="M5.70841 14.0281C5.72775 14.0431 5.75018 14.0515 5.77299 14.0523C5.79194 14.0532 5.81089 14.049 5.82868 14.0398C5.88436 14.0109 7.2026 13.3223 7.72115 12.6784C8.23739 12.037 8.69524 10.75 8.71418 10.6952C8.72733 10.6584 8.72346 10.6166 8.70413 10.5832C8.68479 10.5493 8.65193 10.5276 8.61558 10.5234C8.61558 10.5234 8.60282 10.5221 8.57807 10.5209C8.40638 10.5133 7.51041 10.52 6.72503 11.3931C5.87044 12.343 5.66936 13.8441 5.66124 13.9077C5.65544 13.9541 5.67323 14.0001 5.70841 14.0277V14.0281Z" fill="#BA972D"/>
<path d="M3.9676 16.1876C3.98191 16.1951 3.99737 16.1989 4.01323 16.1997C4.03179 16.2006 4.05035 16.1968 4.06737 16.188C4.09907 16.1721 4.12266 16.1416 4.13156 16.1052C4.14857 16.0362 4.53836 14.3934 3.77773 12.8067C3.15902 11.5159 2.782 11.1267 2.76614 11.1108C2.74526 11.0895 2.71819 11.0777 2.69074 11.0765C2.67952 11.0761 2.66831 11.0773 2.65709 11.0803C2.61843 11.0907 2.5871 11.1221 2.57434 11.163C2.54959 11.2433 1.96839 13.142 2.27427 14.2964C2.58478 15.4684 3.91153 16.1583 3.9676 16.1872V16.1876Z" fill="#BA972D"/>
<path d="M7.03838 8.6234C7.02059 8.66563 7.02561 8.71539 7.05114 8.7526C7.0724 8.78354 7.10566 8.80194 7.14046 8.80361C7.14742 8.80361 7.15477 8.80361 7.16212 8.80236C7.21355 8.79442 8.42622 8.60124 8.9877 8.2241C9.54647 7.84863 10.1996 6.93879 10.2274 6.89991C10.2499 6.86855 10.2572 6.82799 10.2479 6.78994C10.2386 6.75189 10.2135 6.72053 10.1799 6.70506C10.1706 6.70088 9.95056 6.60179 9.61066 6.58715C9.21198 6.56959 8.82335 6.67078 8.45561 6.8882C7.55461 7.42005 7.05887 8.57532 7.03838 8.62424V8.6234Z" fill="#BA972D"/>
<path d="M5.31772 10.3033C5.33821 10.3238 5.3649 10.3355 5.39235 10.3368C5.39893 10.3368 5.40589 10.3368 5.41246 10.3359C5.44688 10.3309 5.47781 10.31 5.49637 10.2782C5.52653 10.2268 6.23302 9.00213 5.94455 7.51906C5.71679 6.34665 5.5188 5.90595 5.51068 5.88797C5.49251 5.84783 5.45577 5.82107 5.41439 5.81772C5.41285 5.81772 5.4113 5.81772 5.41014 5.81772C5.37031 5.81605 5.33241 5.83612 5.30921 5.87124C5.27132 5.92894 4.38269 7.29745 4.37264 8.31307C4.36259 9.34541 5.27866 10.2657 5.31772 10.3042V10.3033Z" fill="#BA972D"/>
<path d="M8.94311 5.02865C8.94775 5.02865 8.95278 5.02865 8.95742 5.02865C8.993 5.02531 9.83251 4.94837 10.2331 4.71339C10.631 4.48008 11.107 3.88593 11.1272 3.86084C11.1507 3.83115 11.1604 3.79101 11.1535 3.75255C11.1461 3.71408 11.1229 3.68105 11.09 3.66391C11.0819 3.65972 10.8917 3.55979 10.6028 3.54725C10.3553 3.53638 10.1113 3.59115 9.87775 3.7099C9.23661 4.03645 8.8592 4.81039 8.84335 4.84342C8.82363 4.8844 8.82595 4.93374 8.84992 4.97262C8.8708 5.00691 8.9056 5.02782 8.94311 5.02907V5.02865Z" fill="#BA972D"/>
<path d="M7.24227 5.6705C7.24227 5.6705 7.24498 5.6705 7.24614 5.6705C7.27978 5.67217 7.31226 5.65796 7.33585 5.63161C7.36253 5.60151 7.98743 4.88736 7.99361 3.83871C7.99787 3.11578 7.91395 2.69473 7.91009 2.67717C7.90119 2.63285 7.87065 2.59689 7.83043 2.58309C7.82038 2.57975 7.81032 2.57766 7.79988 2.57724C7.76895 2.57599 7.7384 2.58769 7.71519 2.61069C7.68233 2.64372 6.90817 3.42226 6.77089 4.10965C6.63013 4.81251 7.13361 5.58478 7.15526 5.6174C7.17576 5.64834 7.20747 5.66757 7.24227 5.6705Z" fill="#BA972D"/>
<path d="M9.62461 2.49075C9.63853 2.49744 9.65322 2.5012 9.6683 2.50204C9.68609 2.50287 9.70427 2.49911 9.72089 2.49117C9.75299 2.4757 10.5086 2.10817 10.9343 1.57423C11.3632 1.03652 11.5283 0.188573 11.5353 0.153032C11.5426 0.114983 11.5333 0.0752618 11.5101 0.0451571C11.4889 0.0179792 11.4579 0.00167248 11.4251 0C11.4223 0 11.4193 0 11.4162 0C11.3763 0.00125436 10.432 0.0439027 9.87518 0.782723C9.31216 1.52949 9.55036 2.37744 9.5608 2.4134C9.57086 2.4481 9.59406 2.47611 9.62461 2.49117V2.49075Z" fill="#BA972D"/>
<path d="M4.10404 22.0881C4.10946 22.0889 4.11449 22.0898 4.1199 22.0898C4.14929 22.091 4.17868 22.0802 4.2011 22.0592C4.22779 22.0342 4.24287 21.9978 4.24209 21.9597C4.24055 21.8853 4.18757 20.1187 3.06191 18.6608C2.13036 17.4541 1.60175 17.2132 1.57971 17.2036C1.56695 17.1982 1.5538 17.1948 1.54027 17.1944C1.51707 17.1936 1.49348 17.1998 1.47337 17.2136C1.44127 17.235 1.42078 17.2722 1.41846 17.3127C1.41266 17.4035 1.2808 19.5476 1.88326 20.6489C2.49424 21.7666 4.03869 22.0751 4.10404 22.0877V22.0881Z" fill="#BA972D"/>
<path d="M70.5957 34.9746C70.2523 36.5534 69.1487 37.4043 69.1019 37.4394C69.0833 37.4536 69.0613 37.4611 69.0392 37.4624C69.0245 37.4632 69.0095 37.4607 68.9952 37.4553C68.9592 37.4415 68.9317 37.4101 68.9213 37.3704C68.9039 37.3048 68.4948 35.7456 68.755 34.5238C69.0126 33.3163 69.9105 31.584 69.9487 31.5109C69.9689 31.4724 70.006 31.4481 70.0466 31.446C70.0497 31.446 70.0531 31.446 70.0566 31.446C70.1007 31.4481 70.1402 31.477 70.1587 31.5205C70.1908 31.5966 70.9383 33.4003 70.5961 34.9742L70.5957 34.9746Z" fill="#BA972D"/>
<path d="M71.4019 37.3697C71.8683 37.2522 72.3281 37.1828 72.7681 37.1631C73.8772 37.1146 74.4994 37.3943 74.5253 37.406C74.5601 37.4219 74.5856 37.455 74.5937 37.4947C74.6022 37.5344 74.5922 37.5762 74.5674 37.6067C74.5098 37.6774 73.1452 39.3465 71.9182 39.8454C71.7028 39.9327 71.4464 39.9838 71.1556 39.9967C69.9515 40.0494 68.5172 39.4511 68.4569 39.4256C68.4217 39.4109 68.3954 39.3787 68.3857 39.3394C68.3761 39.3001 68.3846 39.2583 68.4082 39.2265C68.4499 39.1709 69.4565 37.8597 71.4016 37.3692L71.4019 37.3697Z" fill="#BA972D"/>
<path d="M72.8655 26.5503C72.8732 26.5482 72.8806 26.5474 72.8883 26.547C72.9169 26.5457 72.9451 26.5558 72.9676 26.5758C73.0058 26.6097 73.9034 27.4259 73.9092 29.0076C73.9146 30.5722 72.9459 31.9984 72.9045 32.0587C72.8833 32.0896 72.85 32.1084 72.8148 32.1097C72.8079 32.1097 72.8005 32.1097 72.7932 32.1084C72.7502 32.1017 72.7147 32.0704 72.6996 32.0265C72.6741 31.9516 72.0747 30.1779 72.1226 29.1728C72.1706 28.171 72.7595 26.6862 72.7847 26.6235C72.7993 26.5867 72.8291 26.5595 72.8651 26.5503H72.8655Z" fill="#BA972D"/>
<path d="M72.8414 34.6682C72.8317 34.6318 72.8375 34.5925 72.8573 34.5612C72.9033 34.4884 74.0042 32.7754 76.0131 32.162C76.9318 31.8814 77.5993 31.802 77.9976 31.7844C78.2311 31.774 78.3545 31.7865 78.3595 31.7869C78.399 31.7911 78.4342 31.8162 78.4523 31.8543C78.4709 31.8923 78.4701 31.9379 78.4512 31.9751C78.4032 32.0687 77.2594 34.2714 75.9964 34.9228C75.7014 35.075 75.3561 35.1608 74.9701 35.1779C73.935 35.2235 72.9489 34.7686 72.9075 34.7493C72.8754 34.7343 72.8511 34.7046 72.8414 34.6678V34.6682Z" fill="#BA972D"/>
<path d="M75.5047 26.2659C75.4993 26.2668 75.4942 26.2676 75.4892 26.2676C75.4517 26.2693 75.415 26.2513 75.3914 26.2183C75.3469 26.156 74.2974 24.6846 74.0584 23.7213C73.8202 22.7608 73.9417 21.1632 73.9471 21.0959C73.9502 21.0557 73.9707 21.0198 74.0024 20.9984C74.0198 20.9867 74.0395 20.9805 74.0596 20.9796C74.0758 20.9788 74.0925 20.9817 74.1079 20.9884C74.1528 21.0076 75.2069 21.4768 75.6582 22.9665C76.104 24.4396 75.6176 26.1091 75.5967 26.1794C75.5832 26.2241 75.548 26.2576 75.5051 26.2655L75.5047 26.2659Z" fill="#BA972D"/>
<path d="M76.0271 29.2897C75.9915 29.2885 75.9586 29.2701 75.937 29.2395C75.9153 29.209 75.908 29.1697 75.9165 29.1325C75.9362 29.0455 76.4176 26.9829 78.104 25.527C79.3511 24.4504 80.1991 24.2058 80.2347 24.1958C80.2428 24.1937 80.2509 24.1924 80.2594 24.192C80.2896 24.1907 80.3194 24.202 80.3422 24.2238C80.3716 24.2518 80.3859 24.2936 80.3808 24.3354C80.3677 24.445 80.044 27.0365 79.0591 28.1838C78.2695 29.1032 76.8569 29.2609 76.2858 29.286C76.1268 29.2931 76.0313 29.2897 76.0271 29.2897Z" fill="#BA972D"/>
<path d="M74.5555 17.9647C74.18 17.1435 74.0246 15.6704 74.0184 15.6081C74.0141 15.5684 74.0277 15.5287 74.0547 15.5015C74.0756 15.4802 74.1027 15.4681 74.1305 15.4668C74.1386 15.4668 74.1472 15.4668 74.1553 15.4685C74.199 15.4768 75.2353 15.6834 75.8927 16.9432C76.5416 18.1867 76.3784 19.8019 76.371 19.87C76.366 19.9169 76.3374 19.9566 76.2972 19.9737C76.2848 19.9792 76.272 19.9817 76.2593 19.9825C76.2299 19.9838 76.2009 19.9733 76.1777 19.952C76.127 19.9047 74.9325 18.7892 74.5555 17.9647Z" fill="#BA972D"/>
<path d="M76.0553 14.0281C76.0359 14.0431 76.0135 14.0515 75.9907 14.0523C75.9717 14.0532 75.9528 14.049 75.935 14.0398C75.8793 14.0109 74.5611 13.3223 74.0425 12.6784C73.5263 12.037 73.0684 10.75 73.0495 10.6952C73.0363 10.6584 73.0402 10.6166 73.0595 10.5832C73.0789 10.5493 73.1117 10.5276 73.1481 10.5234C73.1481 10.5234 73.1609 10.5221 73.1856 10.5209C73.3573 10.5133 74.2533 10.52 75.0386 11.3931C75.8932 12.343 76.0943 13.8441 76.1024 13.9077C76.1082 13.9541 76.0904 14.0001 76.0553 14.0277V14.0281Z" fill="#BA972D"/>
<path d="M77.7961 16.1876C77.7818 16.1951 77.7663 16.1989 77.7504 16.1997C77.7319 16.2006 77.7133 16.1968 77.6963 16.188C77.6646 16.1721 77.641 16.1416 77.6321 16.1052C77.6151 16.0362 77.2253 14.3934 77.9859 12.8067C78.6046 11.5159 78.9817 11.1267 78.9975 11.1108C79.0184 11.0895 79.0455 11.0777 79.0729 11.0765C79.0841 11.0761 79.0954 11.0773 79.1066 11.0803C79.1452 11.0907 79.1766 11.1221 79.1893 11.163C79.2141 11.2433 79.7953 13.142 79.4894 14.2964C79.1789 15.4684 77.8521 16.1583 77.7961 16.1872V16.1876Z" fill="#BA972D"/>
<path d="M74.7253 8.6234C74.7431 8.66563 74.7381 8.71539 74.7125 8.7526C74.6913 8.78354 74.658 8.80194 74.6232 8.80361C74.6162 8.80361 74.6089 8.80361 74.6016 8.80236C74.5501 8.79442 73.3375 8.60124 72.776 8.2241C72.2172 7.84863 71.5641 6.93879 71.5362 6.89991C71.5138 6.86855 71.5065 6.82799 71.5157 6.78994C71.525 6.75189 71.5502 6.72053 71.5838 6.70506C71.5931 6.70088 71.8131 6.60179 72.153 6.58715C72.5517 6.56959 72.9403 6.67078 73.3081 6.8882C74.2091 7.42005 74.7048 8.57532 74.7253 8.62424V8.6234Z" fill="#BA972D"/>
<path d="M76.446 10.3033C76.4255 10.3238 76.3988 10.3355 76.3713 10.3368C76.3647 10.3368 76.3578 10.3368 76.3512 10.3359C76.3168 10.3309 76.2859 10.31 76.2673 10.2782C76.2371 10.2268 75.5306 9.00213 75.8191 7.51906C76.0469 6.34665 76.2449 5.90595 76.253 5.88797C76.2712 5.84783 76.3079 5.82107 76.3493 5.81772C76.3508 5.81772 76.3524 5.81772 76.3535 5.81772C76.3934 5.81605 76.4313 5.83612 76.4545 5.87124C76.4924 5.92894 77.381 7.29745 77.391 8.31307C77.4011 9.34541 76.485 10.2657 76.446 10.3042V10.3033Z" fill="#BA972D"/>
<path d="M72.8206 5.02865C72.8159 5.02865 72.8109 5.02865 72.8063 5.02865C72.7707 5.02531 71.9312 4.94837 71.5305 4.71339C71.1326 4.48008 70.6566 3.88593 70.6365 3.86084C70.6129 3.83115 70.6033 3.79101 70.6102 3.75255C70.6176 3.71408 70.6408 3.68105 70.6736 3.66391C70.6818 3.65972 70.872 3.55979 71.1609 3.54725C71.4084 3.53638 71.6524 3.59115 71.8859 3.7099C72.5271 4.03645 72.9045 4.81039 72.9203 4.84342C72.94 4.8844 72.9377 4.93374 72.9138 4.97262C72.8929 5.00691 72.8581 5.02782 72.8206 5.02907V5.02865Z" fill="#BA972D"/>
<path d="M74.5214 5.6705C74.5214 5.6705 74.5187 5.6705 74.5175 5.6705C74.4839 5.67217 74.4514 5.65796 74.4278 5.63161C74.4011 5.60151 73.7762 4.88736 73.7701 3.83871C73.7658 3.11578 73.8497 2.69473 73.8536 2.67717C73.8625 2.63285 73.893 2.59689 73.9332 2.58309C73.9433 2.57975 73.9534 2.57766 73.9638 2.57724C73.9947 2.57599 74.0253 2.58769 74.0485 2.61069C74.0813 2.64372 74.8555 3.42226 74.9928 4.10965C75.1335 4.81251 74.6301 5.58478 74.6084 5.6174C74.5879 5.64834 74.5562 5.66757 74.5214 5.6705Z" fill="#BA972D"/>
<path d="M72.1391 2.49075C72.1251 2.49744 72.1104 2.5012 72.0954 2.50204C72.0776 2.50287 72.0594 2.49911 72.0428 2.49117C72.0107 2.4757 71.2551 2.10817 70.8293 1.57423C70.4005 1.03652 70.2354 0.188573 70.2284 0.153032C70.2211 0.114983 70.2303 0.0752618 70.2535 0.0451571C70.2748 0.0179792 70.3058 0.00167248 70.3386 0C70.3413 0 70.3444 0 70.3475 0C70.3873 0.00125436 71.3316 0.0439027 71.8885 0.782723C72.4515 1.52949 72.2133 2.37744 72.2029 2.4134C72.1928 2.4481 72.1696 2.47611 72.1391 2.49117V2.49075Z" fill="#BA972D"/>
<path d="M77.6596 22.0881C77.6542 22.0889 77.6492 22.0898 77.6438 22.0898C77.6144 22.091 77.585 22.0802 77.5626 22.0592C77.5359 22.0342 77.5208 21.9978 77.5216 21.9597C77.5231 21.8853 77.5761 20.1187 78.7018 18.6608C79.6333 17.4541 80.1619 17.2132 80.184 17.2036C80.1967 17.1982 80.2099 17.1948 80.2234 17.1944C80.2466 17.1936 80.2702 17.1998 80.2903 17.2136C80.3224 17.235 80.3429 17.2722 80.3452 17.3127C80.351 17.4035 80.4829 19.5476 79.8804 20.6489C79.2694 21.7666 77.725 22.0751 77.6596 22.0877V22.0881Z" fill="#BA972D"/>
<path d="M22.2258 8.762H25.5558V9.662H22.2258V8.762ZM20.0118 13.748H27.7878V14.63H20.0118V13.748ZM20.5338 6.692H23.0538V7.565H20.5338V6.692ZM22.7118 6.692H22.8918L23.0808 6.647L23.7828 6.998C23.1168 8.762 21.6948 10.049 20.1828 10.778C20.0388 10.553 19.7508 10.184 19.5348 9.995C20.8758 9.428 22.2168 8.204 22.7118 6.872V6.692ZM24.7638 6.386C25.3848 7.853 26.6448 9.158 28.2108 9.752C27.9588 9.968 27.6438 10.373 27.4818 10.652C25.8258 9.896 24.5928 8.456 23.8458 6.674L24.7638 6.386ZM20.1018 8.312L20.6778 7.718C21.0828 7.943 21.5778 8.294 21.8118 8.564L21.2088 9.221C20.9748 8.951 20.4888 8.564 20.1018 8.312ZM26.1498 6.44L26.9598 7.016C26.4648 7.439 25.8798 7.88 25.4298 8.168L24.7818 7.664C25.2138 7.358 25.8078 6.836 26.1498 6.44ZM27.1668 7.493L27.9588 8.051C27.4458 8.501 26.8248 8.969 26.3478 9.266L25.6998 8.762C26.1678 8.438 26.7978 7.907 27.1668 7.493ZM22.3068 11.039V11.831H25.3848V11.039H22.3068ZM21.2538 10.175H26.5008V12.686H21.2538V10.175ZM21.7758 12.803L22.7658 12.551C22.9998 12.875 23.1978 13.334 23.2788 13.64L22.2438 13.937C22.1808 13.631 21.9828 13.154 21.7758 12.803ZM24.9888 12.542L26.0328 12.767C25.8078 13.208 25.6008 13.613 25.4208 13.901L24.4758 13.685C24.6558 13.37 24.8808 12.884 24.9888 12.542ZM36.2658 10.409L37.1118 10.922C36.7338 11.336 36.3378 11.768 36.0138 12.056L35.3388 11.606C35.6358 11.291 36.0408 10.778 36.2658 10.409ZM32.2608 10.994L32.9628 10.535C33.3318 10.868 33.7278 11.336 33.8988 11.678L33.1428 12.182C32.9988 11.84 32.6118 11.345 32.2608 10.994ZM32.6478 6.665H36.3648V9.824H35.3658V7.547H32.6478V6.665ZM32.8458 8.024H35.9328V8.852H32.8458V8.024ZM32.2158 9.311H37.0398V10.229H32.2158V9.311ZM34.0698 9.779H35.0688V13.793C35.0688 14.234 35.0148 14.495 34.7268 14.648C34.4568 14.801 34.0968 14.81 33.6018 14.81C33.5748 14.54 33.4578 14.153 33.3408 13.883C33.5928 13.892 33.8628 13.892 33.9528 13.892C34.0428 13.892 34.0698 13.865 34.0698 13.766V9.779ZM31.9548 13.334C32.4138 13.073 33.0888 12.65 33.7548 12.218L34.0788 13.028C33.5478 13.433 32.9628 13.856 32.4498 14.198L31.9548 13.334ZM35.0418 10.418C35.3298 11.489 36.0138 12.83 37.2468 13.46C37.0308 13.649 36.7068 14.072 36.5538 14.342C35.3748 13.586 34.7268 12.038 34.4478 10.994L35.0418 10.418ZM29.2818 8.6H31.9458V9.5H29.2818V8.6ZM28.8498 10.157H32.1348V11.075H28.8498V10.157ZM28.9398 11.579L29.6238 11.408C29.7768 11.912 29.9028 12.542 29.9478 12.974L29.2188 13.163C29.2008 12.731 29.0748 12.083 28.9398 11.579ZM28.7508 13.64C29.6058 13.514 30.8838 13.28 32.0988 13.064L32.1798 13.955C31.0548 14.189 29.8668 14.441 28.9578 14.621L28.7508 13.64ZM31.4328 11.336L32.2068 11.525C32.0448 12.038 31.9008 12.605 31.7658 12.983L31.1178 12.803C31.2348 12.398 31.3698 11.768 31.4328 11.336ZM30.0828 8.96H31.0098V13.811L30.0828 13.973V8.96ZM30.0378 6.359H30.6048V6.557H30.9108V6.836C30.5598 7.52 30.0108 8.447 29.1198 9.257C28.9758 9.041 28.6698 8.699 28.4718 8.555C29.2278 7.907 29.7588 7.061 30.0378 6.359ZM30.1728 6.359H30.9288C31.4508 6.809 32.1168 7.457 32.4408 7.916L31.7478 8.744C31.4598 8.285 30.8478 7.529 30.3618 7.124H30.1728V6.359ZM39.8118 9.428H40.9008V10.796C40.9008 12.155 40.6488 13.793 38.5338 14.837C38.3718 14.594 37.9848 14.225 37.7238 14.045C39.6138 13.145 39.8118 11.858 39.8118 10.769V9.428ZM42.8358 9.356H43.9518V14.819H42.8358V9.356ZM37.7868 10.544H45.9858V11.561H37.7868V10.544ZM38.0028 8.276C39.6498 8.258 42.3678 8.186 44.8968 8.096L44.8608 9.041C42.4578 9.185 39.8658 9.311 38.1288 9.383L38.0028 8.276ZM40.4508 6.305L41.6658 6.575C41.1888 7.448 40.5858 8.393 40.0998 8.996L39.1638 8.717C39.6318 8.069 40.1628 7.061 40.4508 6.305ZM42.5568 7.403L43.4298 6.827C44.3568 7.466 45.4728 8.402 46.0038 9.113L45.0498 9.761C44.5818 9.077 43.5018 8.078 42.5568 7.403ZM49.8738 11.957H54.0318V12.731H49.8738V11.957ZM53.7798 11.957H53.9688L54.1398 11.921L54.7608 12.227C53.8968 13.829 51.9978 14.522 49.8648 14.828C49.7838 14.585 49.5948 14.225 49.4328 14.018C51.3588 13.829 53.1318 13.244 53.7798 12.083V11.957ZM51.3678 12.623C52.0608 13.343 53.5278 13.793 55.1478 13.955C54.9408 14.162 54.6708 14.549 54.5448 14.801C52.8348 14.567 51.3678 13.955 50.4858 12.965L51.3678 12.623ZM49.7478 6.809H54.9858V7.583H49.7478V6.809ZM50.7558 9.392H54.5448V9.923H50.7558V9.392ZM50.7558 10.193H54.5448V10.733H50.7558V10.193ZM50.8818 6.35H51.8358V8.006H50.8818V6.35ZM52.1688 8.762H53.1048V11.525H52.1688V8.762ZM52.8888 6.35H53.8518V8.006H52.8888V6.35ZM50.5758 7.799L51.4218 8.015C51.1068 8.789 50.5848 9.572 50.0628 10.067C49.9188 9.914 49.5768 9.635 49.3788 9.509C49.8828 9.086 50.3238 8.447 50.5758 7.799ZM52.4298 7.835L53.4018 7.997C53.2128 8.357 53.0328 8.672 52.8888 8.897L52.0608 8.735C52.1958 8.465 52.3488 8.096 52.4298 7.835ZM54.7428 8.456V9.122H51.2598V11.012H54.9588V11.687H50.3148V8.456H54.7428ZM47.0208 9.122H49.4148V9.932H47.0208V9.122ZM47.0748 6.638H49.3878V7.457H47.0748V6.638ZM47.0208 10.346H49.4148V11.165H47.0208V10.346ZM46.6428 7.853H49.6398V8.708H46.6428V7.853ZM47.5158 11.597H49.3968V14.315H47.5158V13.469H48.5328V12.443H47.5158V11.597ZM46.9938 11.597H47.8398V14.693H46.9938V11.597ZM56.2908 13.325H63.5178V14.405H56.2908V13.325ZM55.7958 9.059H63.9948V10.13H55.7958V9.059ZM59.2788 6.377H60.4398V14.081H59.2788V6.377Z" fill="#8A6B0D"/>
<path d="M29.3479 19.9091V33H26.5802V22.5362H26.5035L23.5056 24.4155V21.9609L26.7464 19.9091H29.3479Z" fill="#8A6B0D"/>
<path d="M33.6358 21.86H45.1278V23.381H33.6358V21.86ZM37.7958 25.5H42.9958V27.008H37.7958V25.5ZM42.4368 25.5H44.0748C44.0748 25.5 44.0618 25.994 44.0358 26.189C43.8408 30.206 43.6198 31.792 43.0998 32.377C42.7228 32.819 42.3068 32.962 41.7218 33.014C41.1888 33.079 40.2918 33.066 39.4338 33.027C39.4078 32.585 39.1868 31.922 38.8748 31.493C39.7848 31.584 40.6818 31.584 41.0588 31.584C41.3448 31.584 41.5138 31.558 41.6828 31.402C42.0728 31.051 42.2808 29.413 42.4368 25.76V25.5ZM36.6908 23.147H38.3288C38.2118 26.839 37.9648 30.921 34.2598 33.157C34.0128 32.728 33.5448 32.195 33.1288 31.883C36.5608 29.972 36.5868 26.358 36.6908 23.147ZM52.3168 21.444H57.4128V22.744H52.3168V21.444ZM53.8248 21.964L55.2808 22.042C55.0728 24.083 54.3188 25.422 52.9798 26.267C52.7328 26.02 52.1088 25.552 51.7838 25.37C53.0968 24.72 53.6948 23.589 53.8248 21.964ZM56.5938 21.444H58.0758C58.0758 21.444 58.0758 21.808 58.0628 21.977C57.9848 24.161 57.8548 25.097 57.5558 25.474C57.3088 25.76 57.0228 25.864 56.6718 25.916C56.3468 25.955 55.8138 25.955 55.2288 25.942C55.2028 25.539 55.0598 24.98 54.8518 24.629C55.3068 24.681 55.6968 24.681 55.8918 24.681C56.0608 24.681 56.1778 24.655 56.2818 24.551C56.4378 24.343 56.5288 23.615 56.5938 21.639V21.444ZM46.7528 22.289H51.9398V23.641H46.7528V22.289ZM46.4538 24.837H52.1608V26.215H46.4538V24.837ZM49.4958 27.632H52.0048V28.984H49.4958V27.632ZM48.6508 20.976H50.0808V25.552H48.6508V20.976ZM48.8978 25.656H50.2758V31.415H48.8978V25.656ZM48.0138 28.217C48.7028 30.947 50.1848 31.35 52.9538 31.35C53.9418 31.363 57.4388 31.363 58.6218 31.298C58.3748 31.649 58.1148 32.377 58.0238 32.845H52.9538C49.4828 32.845 47.7928 32.195 46.8958 28.542L48.0138 28.217ZM46.8568 26.878L48.2218 26.956C48.1958 29.439 48.0268 31.688 47.3248 33.157C47.0648 32.975 46.4148 32.624 46.0768 32.481C46.7528 31.194 46.8438 29.101 46.8568 26.878ZM54.1108 27.697V29.309H56.2168V27.697H54.1108ZM52.6548 26.449H57.7768V30.557H52.6548V26.449Z" fill="#8A6B0D"/>
</svg>
