<svg width="82" height="40" viewBox="0 0 82 40" fill="none" xmlns="http://www.w3.org/2000/svg">
<path d="M11.668 34.9746C12.0114 36.5534 13.115 37.4043 13.1618 37.4394C13.1803 37.4536 13.2024 37.4611 13.2244 37.4624C13.2391 37.4632 13.2542 37.4607 13.2685 37.4553C13.3045 37.4415 13.3319 37.4101 13.3424 37.3704C13.3598 37.3048 13.7689 35.7456 13.5087 34.5238C13.2511 33.3163 12.3532 31.584 12.3149 31.5109C12.2948 31.4724 12.2577 31.4481 12.2171 31.446C12.214 31.446 12.2105 31.446 12.207 31.446C12.163 31.4481 12.1235 31.477 12.105 31.5205C12.0729 31.5966 11.3254 33.4003 11.6676 34.9742L11.668 34.9746Z" fill="#BA972D"/>
<path d="M10.8617 37.3697C10.3954 37.2522 9.9356 37.1828 9.49554 37.1631C8.38651 37.1146 7.76432 37.3943 7.73841 37.406C7.70361 37.4219 7.67809 37.455 7.66996 37.4947C7.66146 37.5344 7.67151 37.5762 7.69626 37.6067C7.75388 37.6774 9.11852 39.3465 10.3455 39.8454C10.5609 39.9327 10.8173 39.9838 11.1081 39.9967C12.3122 40.0494 13.7465 39.4511 13.8068 39.4256C13.842 39.4109 13.8683 39.3787 13.8779 39.3394C13.8876 39.3001 13.8791 39.2583 13.8555 39.2265C13.8138 39.1709 12.8072 37.8597 10.8621 37.3692L10.8617 37.3697Z" fill="#BA972D"/>
<path d="M9.3982 26.5503C9.39047 26.5482 9.38312 26.5474 9.37539 26.547C9.34677 26.5457 9.31854 26.5558 9.29611 26.5758C9.25783 26.6097 8.36032 27.4259 8.35451 29.0076C8.3491 30.5722 9.31777 31.9984 9.35915 32.0587C9.38041 32.0896 9.41367 32.1084 9.44886 32.1097C9.45582 32.1097 9.46317 32.1097 9.47051 32.1084C9.51344 32.1017 9.54901 32.0704 9.56409 32.0265C9.58961 31.9516 10.189 30.1779 10.141 29.1728C10.0931 28.171 9.50415 26.6862 9.47902 26.6235C9.46433 26.5867 9.43455 26.5595 9.39859 26.5503H9.3982Z" fill="#BA972D"/>
<path d="M9.42227 34.6682C9.43194 34.6318 9.42614 34.5925 9.40642 34.5612C9.3604 34.4884 8.25948 32.7754 6.25061 32.162C5.33183 31.8814 4.66439 31.802 4.2661 31.7844C4.03254 31.774 3.90918 31.7865 3.90415 31.7869C3.86471 31.7911 3.82952 31.8162 3.81135 31.8543C3.79279 31.8923 3.79356 31.9379 3.81251 31.9751C3.86046 32.0687 5.0043 34.2714 6.26724 34.9228C6.56228 35.075 6.9076 35.1608 7.29352 35.1779C8.3287 35.2235 9.31477 34.7686 9.35615 34.7493C9.38824 34.7343 9.4126 34.7046 9.42227 34.6678V34.6682Z" fill="#BA972D"/>
<path d="M6.759 26.2659C6.76441 26.2668 6.76944 26.2676 6.77447 26.2676C6.81197 26.2693 6.84871 26.2513 6.8723 26.2183C6.91677 26.156 7.96626 24.6846 8.20523 23.7213C8.44344 22.7608 8.32201 21.1632 8.3166 21.0959C8.31351 21.0557 8.29301 21.0198 8.2613 20.9984C8.2439 20.9867 8.22418 20.9805 8.20407 20.9796C8.18783 20.9788 8.1712 20.9817 8.15574 20.9884C8.11088 21.0076 7.05675 21.4768 6.60548 22.9665C6.15962 24.4396 6.64608 26.1091 6.66696 26.1794C6.6805 26.2241 6.71569 26.2576 6.75861 26.2655L6.759 26.2659Z" fill="#BA972D"/>
<path d="M6.23661 29.2897C6.27218 29.2885 6.30505 29.2701 6.32671 29.2395C6.34836 29.209 6.35571 29.1697 6.3472 29.1325C6.32748 29.0455 5.84605 26.9829 4.15968 25.527C2.91259 24.4504 2.06457 24.2058 2.029 24.1958C2.02088 24.1937 2.01275 24.1924 2.00425 24.192C1.97409 24.1907 1.94431 24.202 1.9215 24.2238C1.89211 24.2518 1.8778 24.2936 1.88283 24.3354C1.89597 24.445 2.21964 27.0365 3.20454 28.1838C3.99417 29.1032 5.40676 29.2609 5.97791 29.286C6.13684 29.2931 6.23235 29.2897 6.23661 29.2897Z" fill="#BA972D"/>
<path d="M7.70817 17.9647C8.08365 17.1435 8.2391 15.6704 8.24529 15.6081C8.24954 15.5684 8.23601 15.5287 8.20894 15.5015C8.18806 15.4802 8.16099 15.4681 8.13315 15.4668C8.12503 15.4668 8.11652 15.4668 8.1084 15.4685C8.0647 15.4768 7.02836 15.6834 6.37099 16.9432C5.72211 18.1867 5.8853 19.8019 5.89265 19.87C5.89767 19.9169 5.92629 19.9566 5.9665 19.9737C5.97888 19.9792 5.99164 19.9817 6.0044 19.9825C6.03379 19.9838 6.06279 19.9733 6.08599 19.952C6.13665 19.9047 7.33115 18.7892 7.70817 17.9647Z" fill="#BA972D"/>
<path d="M6.20841 14.0281C6.22775 14.0431 6.25018 14.0515 6.27299 14.0523C6.29194 14.0532 6.31089 14.049 6.32868 14.0398C6.38436 14.0109 7.7026 13.3223 8.22115 12.6784C8.73739 12.037 9.19524 10.75 9.21418 10.6952C9.22733 10.6584 9.22346 10.6166 9.20413 10.5832C9.18479 10.5493 9.15193 10.5276 9.11558 10.5234C9.11558 10.5234 9.10282 10.5221 9.07807 10.5209C8.90638 10.5133 8.01041 10.52 7.22503 11.3931C6.37044 12.343 6.16936 13.8441 6.16124 13.9077C6.15544 13.9541 6.17323 14.0001 6.20841 14.0277V14.0281Z" fill="#BA972D"/>
<path d="M4.4676 16.1876C4.48191 16.1951 4.49737 16.1989 4.51323 16.1997C4.53179 16.2006 4.55035 16.1968 4.56737 16.188C4.59907 16.1721 4.62266 16.1416 4.63156 16.1052C4.64857 16.0362 5.03836 14.3934 4.27773 12.8067C3.65902 11.5159 3.282 11.1267 3.26614 11.1108C3.24526 11.0895 3.21819 11.0777 3.19074 11.0765C3.17952 11.0761 3.16831 11.0773 3.15709 11.0803C3.11843 11.0907 3.0871 11.1221 3.07434 11.163C3.04959 11.2433 2.46839 13.142 2.77427 14.2964C3.08478 15.4684 4.41153 16.1583 4.4676 16.1872V16.1876Z" fill="#BA972D"/>
<path d="M7.53838 8.6234C7.52059 8.66563 7.52561 8.71539 7.55114 8.7526C7.5724 8.78354 7.60566 8.80194 7.64046 8.80361C7.64742 8.80361 7.65477 8.80361 7.66212 8.80236C7.71355 8.79442 8.92622 8.60124 9.4877 8.2241C10.0465 7.84863 10.6996 6.93879 10.7274 6.89991C10.7499 6.86855 10.7572 6.82799 10.7479 6.78994C10.7386 6.75189 10.7135 6.72053 10.6799 6.70506C10.6706 6.70088 10.4506 6.60179 10.1107 6.58715C9.71198 6.56959 9.32335 6.67078 8.95561 6.8882C8.05461 7.42005 7.55887 8.57532 7.53838 8.62424V8.6234Z" fill="#BA972D"/>
<path d="M5.81772 10.3033C5.83821 10.3238 5.8649 10.3355 5.89235 10.3368C5.89893 10.3368 5.90589 10.3368 5.91246 10.3359C5.94688 10.3309 5.97781 10.31 5.99637 10.2782C6.02653 10.2268 6.73302 9.00213 6.44455 7.51906C6.21679 6.34665 6.0188 5.90595 6.01068 5.88797C5.99251 5.84783 5.95577 5.82107 5.91439 5.81772C5.91285 5.81772 5.9113 5.81772 5.91014 5.81772C5.87031 5.81605 5.83241 5.83612 5.80921 5.87124C5.77132 5.92894 4.88269 7.29745 4.87264 8.31307C4.86259 9.34541 5.77866 10.2657 5.81772 10.3042V10.3033Z" fill="#BA972D"/>
<path d="M9.44311 5.02865C9.44775 5.02865 9.45278 5.02865 9.45742 5.02865C9.493 5.02531 10.3325 4.94837 10.7331 4.71339C11.131 4.48008 11.607 3.88593 11.6272 3.86084C11.6507 3.83115 11.6604 3.79101 11.6535 3.75255C11.6461 3.71408 11.6229 3.68105 11.59 3.66391C11.5819 3.65972 11.3917 3.55979 11.1028 3.54725C10.8553 3.53638 10.6113 3.59115 10.3778 3.7099C9.73661 4.03645 9.3592 4.81039 9.34335 4.84342C9.32363 4.8844 9.32595 4.93374 9.34992 4.97262C9.3708 5.00691 9.4056 5.02782 9.44311 5.02907V5.02865Z" fill="#BA972D"/>
<path d="M7.74227 5.6705C7.74227 5.6705 7.74498 5.6705 7.74614 5.6705C7.77978 5.67217 7.81226 5.65796 7.83585 5.63161C7.86253 5.60151 8.48743 4.88736 8.49361 3.83871C8.49787 3.11578 8.41395 2.69473 8.41009 2.67717C8.40119 2.63285 8.37065 2.59689 8.33043 2.58309C8.32038 2.57975 8.31032 2.57766 8.29988 2.57724C8.26895 2.57599 8.2384 2.58769 8.21519 2.61069C8.18233 2.64372 7.40817 3.42226 7.27089 4.10965C7.13013 4.81251 7.63361 5.58478 7.65526 5.6174C7.67576 5.64834 7.70747 5.66757 7.74227 5.6705Z" fill="#BA972D"/>
<path d="M10.1246 2.49075C10.1385 2.49744 10.1532 2.5012 10.1683 2.50204C10.1861 2.50287 10.2043 2.49911 10.2209 2.49117C10.253 2.4757 11.0086 2.10817 11.4343 1.57423C11.8632 1.03652 12.0283 0.188573 12.0353 0.153032C12.0426 0.114983 12.0333 0.0752618 12.0101 0.0451571C11.9889 0.0179792 11.9579 0.00167248 11.9251 0C11.9223 0 11.9193 0 11.9162 0C11.8763 0.00125436 10.932 0.0439027 10.3752 0.782723C9.81216 1.52949 10.0504 2.37744 10.0608 2.4134C10.0709 2.4481 10.0941 2.47611 10.1246 2.49117V2.49075Z" fill="#BA972D"/>
<path d="M4.60404 22.0881C4.60946 22.0889 4.61449 22.0898 4.6199 22.0898C4.64929 22.091 4.67868 22.0802 4.7011 22.0592C4.72779 22.0342 4.74287 21.9978 4.74209 21.9597C4.74055 21.8853 4.68757 20.1187 3.56191 18.6608C2.63036 17.4541 2.10175 17.2132 2.07971 17.2036C2.06695 17.1982 2.0538 17.1948 2.04027 17.1944C2.01707 17.1936 1.99348 17.1998 1.97337 17.2136C1.94127 17.235 1.92078 17.2722 1.91846 17.3127C1.91266 17.4035 1.7808 19.5476 2.38326 20.6489C2.99424 21.7666 4.53869 22.0751 4.60404 22.0877V22.0881Z" fill="#BA972D"/>
<path d="M72.0957 34.9746C71.7523 36.5534 70.6487 37.4043 70.6019 37.4394C70.5833 37.4536 70.5613 37.4611 70.5392 37.4624C70.5245 37.4632 70.5095 37.4607 70.4952 37.4553C70.4592 37.4415 70.4317 37.4101 70.4213 37.3704C70.4039 37.3048 69.9948 35.7456 70.255 34.5238C70.5126 33.3163 71.4105 31.584 71.4487 31.5109C71.4689 31.4724 71.506 31.4481 71.5466 31.446C71.5497 31.446 71.5531 31.446 71.5566 31.446C71.6007 31.4481 71.6402 31.477 71.6587 31.5205C71.6908 31.5966 72.4383 33.4003 72.0961 34.9742L72.0957 34.9746Z" fill="#BA972D"/>
<path d="M72.9019 37.3697C73.3683 37.2522 73.8281 37.1828 74.2681 37.1631C75.3772 37.1146 75.9994 37.3943 76.0253 37.406C76.0601 37.4219 76.0856 37.455 76.0937 37.4947C76.1022 37.5344 76.0922 37.5762 76.0674 37.6067C76.0098 37.6774 74.6452 39.3465 73.4182 39.8454C73.2028 39.9328 72.9464 39.9838 72.6556 39.9967C71.4515 40.0494 70.0172 39.4511 69.9569 39.4256C69.9217 39.4109 69.8954 39.3787 69.8857 39.3394C69.8761 39.3001 69.8846 39.2583 69.9082 39.2265C69.9499 39.1709 70.9565 37.8597 72.9016 37.3692L72.9019 37.3697Z" fill="#BA972D"/>
<path d="M74.3655 26.5503C74.3732 26.5482 74.3806 26.5474 74.3883 26.547C74.4169 26.5457 74.4451 26.5558 74.4676 26.5758C74.5058 26.6097 75.4034 27.4259 75.4092 29.0076C75.4146 30.5722 74.4459 31.9985 74.4045 32.0587C74.3833 32.0896 74.35 32.1084 74.3148 32.1097C74.3079 32.1097 74.3005 32.1097 74.2932 32.1084C74.2502 32.1017 74.2147 32.0704 74.1996 32.0265C74.1741 31.9516 73.5747 30.178 73.6226 29.1728C73.6706 28.171 74.2595 26.6862 74.2847 26.6235C74.2993 26.5867 74.3291 26.5595 74.3651 26.5503H74.3655Z" fill="#BA972D"/>
<path d="M74.3414 34.6682C74.3317 34.6318 74.3375 34.5925 74.3573 34.5612C74.4033 34.4884 75.5042 32.7754 77.5131 32.162C78.4318 31.8814 79.0993 31.802 79.4976 31.7844C79.7311 31.774 79.8545 31.7865 79.8595 31.7869C79.899 31.7911 79.9342 31.8162 79.9523 31.8543C79.9709 31.8923 79.9701 31.9379 79.9512 31.9751C79.9032 32.0687 78.7594 34.2714 77.4964 34.9228C77.2014 35.075 76.8561 35.1608 76.4701 35.1779C75.435 35.2235 74.4489 34.7686 74.4075 34.7493C74.3754 34.7343 74.3511 34.7046 74.3414 34.6678V34.6682Z" fill="#BA972D"/>
<path d="M77.0047 26.2659C76.9993 26.2668 76.9942 26.2676 76.9892 26.2676C76.9517 26.2693 76.915 26.2513 76.8914 26.2183C76.8469 26.156 75.7974 24.6846 75.5584 23.7213C75.3202 22.7608 75.4417 21.1632 75.4471 21.0959C75.4502 21.0557 75.4707 21.0198 75.5024 20.9984C75.5198 20.9867 75.5395 20.9805 75.5596 20.9796C75.5758 20.9788 75.5925 20.9817 75.6079 20.9884C75.6528 21.0076 76.7069 21.4768 77.1582 22.9665C77.604 24.4396 77.1176 26.1092 77.0967 26.1794C77.0832 26.2241 77.048 26.2576 77.0051 26.2655L77.0047 26.2659Z" fill="#BA972D"/>
<path d="M77.5271 29.29C77.4915 29.2887 77.4586 29.2703 77.437 29.2398C77.4153 29.2093 77.408 29.17 77.4165 29.1328C77.4362 29.0458 77.9176 26.9832 79.604 25.5273C80.8511 24.4506 81.6991 24.206 81.7347 24.196C81.7428 24.1939 81.7509 24.1927 81.7594 24.1922C81.7896 24.191 81.8194 24.2023 81.8422 24.224C81.8716 24.252 81.8859 24.2938 81.8808 24.3356C81.8677 24.4452 81.544 27.0367 80.5591 28.184C79.7695 29.1035 78.3569 29.2611 77.7858 29.2862C77.6268 29.2933 77.5313 29.29 77.5271 29.29Z" fill="#BA972D"/>
<path d="M76.0555 17.9647C75.68 17.1435 75.5246 15.6704 75.5184 15.6081C75.5141 15.5684 75.5277 15.5287 75.5547 15.5015C75.5756 15.4802 75.6027 15.4681 75.6305 15.4668C75.6386 15.4668 75.6472 15.4668 75.6553 15.4685C75.699 15.4768 76.7353 15.6834 77.3927 16.9432C78.0416 18.1867 77.8784 19.8019 77.871 19.87C77.866 19.9169 77.8374 19.9566 77.7972 19.9737C77.7848 19.9792 77.772 19.9817 77.7593 19.9825C77.7299 19.9838 77.7009 19.9733 77.6777 19.952C77.627 19.9047 76.4325 18.7892 76.0555 17.9647Z" fill="#BA972D"/>
<path d="M77.5553 14.0281C77.5359 14.0431 77.5135 14.0515 77.4907 14.0523C77.4717 14.0532 77.4528 14.049 77.435 14.0398C77.3793 14.0109 76.0611 13.3223 75.5425 12.6784C75.0263 12.037 74.5684 10.75 74.5495 10.6952C74.5363 10.6584 74.5402 10.6166 74.5595 10.5832C74.5789 10.5493 74.6117 10.5276 74.6481 10.5234C74.6481 10.5234 74.6609 10.5221 74.6856 10.5209C74.8573 10.5133 75.7533 10.52 76.5386 11.3931C77.3932 12.343 77.5943 13.8441 77.6024 13.9077C77.6082 13.9541 77.5904 14.0001 77.5553 14.0277V14.0281Z" fill="#BA972D"/>
<path d="M79.2961 16.1876C79.2818 16.1951 79.2663 16.1989 79.2504 16.1997C79.2319 16.2006 79.2133 16.1968 79.1963 16.188C79.1646 16.1722 79.141 16.1416 79.1321 16.1053C79.1151 16.0363 78.7253 14.3935 79.4859 12.8067C80.1046 11.5159 80.4817 11.1267 80.4975 11.1108C80.5184 11.0895 80.5455 11.0777 80.5729 11.0765C80.5841 11.0761 80.5954 11.0773 80.6066 11.0803C80.6452 11.0907 80.6766 11.1221 80.6893 11.163C80.7141 11.2433 81.2953 13.142 80.9894 14.2965C80.6789 15.4685 79.3521 16.1584 79.2961 16.1872V16.1876Z" fill="#BA972D"/>
<path d="M76.2253 8.62341C76.2431 8.66564 76.2381 8.7154 76.2125 8.75261C76.1913 8.78355 76.158 8.80195 76.1232 8.80362C76.1162 8.80362 76.1089 8.80362 76.1016 8.80237C76.0501 8.79442 74.8375 8.60125 74.276 8.2241C73.7172 7.84863 73.0641 6.9388 73.0362 6.89991C73.0138 6.86855 73.0065 6.82799 73.0157 6.78994C73.025 6.75189 73.0502 6.72054 73.0838 6.70506C73.0931 6.70088 73.3131 6.60179 73.653 6.58715C74.0517 6.56959 74.4403 6.67078 74.8081 6.8882C75.7091 7.42005 76.2048 8.57532 76.2253 8.62425V8.62341Z" fill="#BA972D"/>
<path d="M77.946 10.3033C77.9255 10.3238 77.8988 10.3355 77.8713 10.3368C77.8647 10.3368 77.8578 10.3368 77.8512 10.336C77.8168 10.3309 77.7859 10.31 77.7673 10.2783C77.7371 10.2268 77.0306 9.00214 77.3191 7.51906C77.5469 6.34665 77.7449 5.90595 77.753 5.88797C77.7712 5.84783 77.8079 5.82107 77.8493 5.81772C77.8508 5.81772 77.8524 5.81772 77.8535 5.81772C77.8934 5.81605 77.9313 5.83612 77.9545 5.87124C77.9924 5.92894 78.881 7.29746 78.891 8.31308C78.9011 9.34542 77.985 10.2657 77.946 10.3042V10.3033Z" fill="#BA972D"/>
<path d="M74.3206 5.02866C74.3159 5.02866 74.3109 5.02866 74.3063 5.02866C74.2707 5.02531 73.4312 4.94838 73.0305 4.71339C72.6326 4.48008 72.1566 3.88593 72.1365 3.86084C72.1129 3.83115 72.1033 3.79102 72.1102 3.75255C72.1176 3.71408 72.1408 3.68105 72.1736 3.66391C72.1818 3.65972 72.372 3.55979 72.6609 3.54725C72.9084 3.53638 73.1524 3.59115 73.3859 3.7099C74.0271 4.03645 74.4045 4.8104 74.4203 4.84343C74.44 4.8844 74.4377 4.93374 74.4138 4.97263C74.3929 5.00691 74.3581 5.02782 74.3206 5.02907V5.02866Z" fill="#BA972D"/>
<path d="M76.0214 5.67051C76.0214 5.67051 76.0187 5.67051 76.0175 5.67051C75.9839 5.67218 75.9514 5.65796 75.9278 5.63162C75.9011 5.60152 75.2762 4.88736 75.2701 3.83871C75.2658 3.11578 75.3497 2.69473 75.3536 2.67717C75.3625 2.63285 75.393 2.59689 75.4332 2.58309C75.4433 2.57975 75.4534 2.57766 75.4638 2.57724C75.4947 2.57599 75.5253 2.58769 75.5485 2.61069C75.5813 2.64372 76.3555 3.42226 76.4928 4.10966C76.6335 4.81252 76.1301 5.58479 76.1084 5.61741C76.0879 5.64835 76.0562 5.66758 76.0214 5.67051Z" fill="#BA972D"/>
<path d="M73.6391 2.49075C73.6251 2.49744 73.6104 2.50121 73.5954 2.50204C73.5776 2.50288 73.5594 2.49912 73.5428 2.49117C73.5107 2.4757 72.7551 2.10817 72.3293 1.57423C71.9005 1.03653 71.7354 0.188573 71.7284 0.153033C71.7211 0.114984 71.7303 0.075262 71.7535 0.0451572C71.7748 0.0179793 71.8058 0.00167249 71.8386 0C71.8413 0 71.8444 0 71.8475 0C71.8873 0.00125437 72.8316 0.0439028 73.3885 0.782725C73.9515 1.52949 73.7133 2.37744 73.7029 2.4134C73.6928 2.44811 73.6696 2.47612 73.6391 2.49117V2.49075Z" fill="#BA972D"/>
<path d="M79.1596 22.0881C79.1542 22.0889 79.1492 22.0898 79.1438 22.0898C79.1144 22.091 79.085 22.0802 79.0626 22.0593C79.0359 22.0342 79.0208 21.9978 79.0216 21.9597C79.0231 21.8853 79.0761 20.1188 80.2018 18.6608C81.1333 17.4541 81.6619 17.2132 81.684 17.2036C81.6967 17.1982 81.7099 17.1948 81.7234 17.1944C81.7466 17.1936 81.7702 17.1998 81.7903 17.2136C81.8224 17.235 81.8429 17.2722 81.8452 17.3127C81.851 17.4035 81.9829 19.5476 81.3804 20.6489C80.7694 21.7666 79.225 22.0752 79.1596 22.0877V22.0881Z" fill="#BA972D"/>
<path d="M24.2638 7.079H25.2358C25.0648 8.546 24.6688 10.031 23.0128 10.904C22.8958 10.661 22.6168 10.31 22.4008 10.139C23.8588 9.446 24.1288 8.204 24.2638 7.079ZM22.7068 8.618L23.2108 7.871C24.1018 8.141 25.1548 8.636 25.7578 9.023L25.2448 9.851C24.6598 9.428 23.5888 8.897 22.7068 8.618ZM26.3158 6.71H27.3238C27.3238 6.71 27.3238 6.98 27.3148 7.106C27.2248 9.158 27.1348 10.004 26.8918 10.292C26.7208 10.517 26.5498 10.598 26.2888 10.634C26.0728 10.67 25.7038 10.67 25.3078 10.661C25.2988 10.364 25.1908 9.959 25.0468 9.698C25.3528 9.725 25.6228 9.725 25.7578 9.725C25.8748 9.734 25.9558 9.707 26.0278 9.617C26.1718 9.446 26.2528 8.762 26.3158 6.872V6.71ZM23.6968 11.561H24.6868V13.532C24.6868 13.784 24.7048 13.811 24.8758 13.811C24.9568 13.811 25.2538 13.811 25.3438 13.811C25.5148 13.811 25.5508 13.703 25.5778 12.866C25.7668 13.028 26.1898 13.181 26.4598 13.253C26.3608 14.441 26.0998 14.747 25.4518 14.747C25.2898 14.747 24.8758 14.747 24.7048 14.747C23.8678 14.747 23.6968 14.45 23.6968 13.55V11.561ZM22.7788 11.912L23.6248 12.137C23.5438 12.947 23.3728 13.802 22.9408 14.333L22.1488 13.847C22.5178 13.397 22.6978 12.65 22.7788 11.912ZM23.8948 10.94L24.5158 10.319C25.0918 10.607 25.8028 11.075 26.1358 11.453L25.4698 12.155C25.1548 11.786 24.4708 11.273 23.8948 10.94ZM25.8838 12.056L26.7568 11.705C27.2248 12.389 27.6208 13.307 27.7378 13.946L26.7928 14.333C26.6938 13.703 26.3248 12.749 25.8838 12.056ZM22.8238 6.71H26.7748V7.61H22.8238V6.71ZM19.5568 9.122H22.1938V9.932H19.5568V9.122ZM19.5838 6.638H22.1668V7.457H19.5838V6.638ZM19.5568 10.346H22.1938V11.165H19.5568V10.346ZM19.1428 7.853H22.4368V8.708H19.1428V7.853ZM20.0248 11.597H22.2028V14.333H20.0248V13.478H21.3028V12.452H20.0248V11.597ZM19.5388 11.597H20.4208V14.693H19.5388V11.597ZM33.1828 12.884H35.6488V13.892H33.1828V12.884ZM32.6968 7.133H36.1528V14.423H35.0548V8.15H33.7408V14.549H32.6968V7.133ZM29.8888 7.979H30.9778V9.716C30.9778 11.246 30.6538 13.469 28.8448 14.783C28.7098 14.558 28.2958 14.126 28.0798 13.973C29.7268 12.785 29.8888 11.021 29.8888 9.698V7.979ZM29.1508 7.502H32.2378V8.501H29.1508V7.502ZM28.2148 9.923H32.4628V10.949H28.2148V9.923ZM30.7078 11.192C31.0768 11.516 32.2648 12.875 32.5438 13.208L31.8148 14.117C31.3918 13.451 30.5098 12.335 30.0508 11.804L30.7078 11.192ZM29.0518 6.359L30.0868 6.566C29.8528 7.754 29.4208 8.942 28.9078 9.698C28.7188 9.527 28.2778 9.221 28.0438 9.077C28.5298 8.429 28.8718 7.394 29.0518 6.359ZM39.1318 8.888H45.3868V9.743H39.1318V8.888ZM39.2038 11.516H44.1448V12.362H39.2038V11.516ZM40.3558 8.294H41.3728V10.337H43.0198V8.294H44.0818V11.156H40.3558V8.294ZM43.8658 11.516H44.0728L44.2618 11.471L44.9368 11.813C43.9648 13.766 41.7868 14.513 39.2578 14.828C39.1768 14.558 38.9788 14.153 38.8078 13.928C41.1118 13.73 43.1368 13.091 43.8658 11.651V11.516ZM41.0488 12.173C41.8588 13.181 43.5418 13.73 45.6118 13.91C45.3868 14.135 45.1168 14.567 44.9818 14.837C42.7948 14.567 41.1298 13.847 40.1218 12.506L41.0488 12.173ZM41.1028 6.359H42.2278V7.709H41.1028V6.359ZM38.4028 7.169H45.4318V8.132H38.4028V7.169ZM37.8718 7.169H38.9068V9.707C38.9068 11.174 38.7718 13.388 37.9528 14.783C37.7638 14.603 37.3138 14.306 37.0618 14.189C37.8178 12.911 37.8718 11.03 37.8718 9.707V7.169ZM50.7688 8.285H53.0188V9.077H50.7688V8.285ZM50.7238 9.68H53.0818V10.472H50.7238V9.68ZM51.4618 7.7H52.2988V10.139H51.4618V7.7ZM50.0128 6.683H53.7388V7.601H50.0128V6.683ZM51.2098 10.931H53.0098V13.325H51.2098V12.551H52.2358V11.705H51.2098V10.931ZM50.7868 10.931H51.5428V13.64H50.7868V10.931ZM53.3518 6.683H54.3508V13.604C54.3508 14.126 54.2608 14.432 53.9548 14.603C53.6578 14.783 53.2078 14.801 52.5688 14.801C52.5328 14.522 52.4068 14.027 52.2628 13.748C52.6408 13.775 53.0548 13.766 53.1898 13.766C53.3158 13.766 53.3518 13.73 53.3518 13.595V6.683ZM49.4908 6.683H50.4628V10.058C50.4628 11.489 50.3638 13.559 49.6528 14.855C49.4818 14.684 49.0408 14.378 48.8158 14.27C49.4458 13.091 49.4908 11.363 49.4908 10.058V6.683ZM46.5208 9.122H48.9148V9.932H46.5208V9.122ZM46.5748 6.638H48.8878V7.457H46.5748V6.638ZM46.5208 10.346H48.9148V11.165H46.5208V10.346ZM46.1428 7.853H49.1398V8.708H46.1428V7.853ZM47.0158 11.597H48.8968V14.315H47.0158V13.469H48.0328V12.443H47.0158V11.597ZM46.4938 11.597H47.3398V14.693H46.4938V11.597ZM55.2868 13.703H63.4768V14.657H55.2868V13.703ZM57.3028 11.462H61.4338V12.209H57.3028V11.462ZM57.3028 12.578H61.4338V13.325H57.3028V12.578ZM56.7808 10.229H61.9918V14.225H60.8848V11.102H57.8428V14.261H56.7808V10.229ZM55.3498 7.367H63.4138V8.294H55.3498V7.367ZM58.8058 6.359H59.8768V9.986H58.8058V6.359ZM58.3108 7.664L59.1928 8.006C58.4188 9.203 57.1318 10.229 55.7638 10.751C55.6108 10.508 55.3138 10.121 55.0888 9.923C56.3848 9.5 57.6628 8.618 58.3108 7.664ZM60.3268 7.673C60.9928 8.609 62.2978 9.455 63.6388 9.851C63.4048 10.049 63.0988 10.454 62.9458 10.724C61.5598 10.211 60.2548 9.194 59.4718 8.006L60.3268 7.673Z" fill="#8A6B0D"/>
<path d="M34.7049 19.9091V33H32.3143L26.619 24.7607H26.5231V33H23.7553V19.9091H26.1843L31.8349 28.142H31.9499V19.9091H34.7049ZM41.5566 33.1918C40.5637 33.1918 39.705 32.9808 38.9806 32.5589C38.2604 32.1328 37.7043 31.5405 37.3123 30.782C36.9202 30.0192 36.7242 29.1349 36.7242 28.1293C36.7242 27.1151 36.9202 26.2287 37.3123 25.4702C37.7043 24.7074 38.2604 24.1151 38.9806 23.6932C39.705 23.267 40.5637 23.054 41.5566 23.054C42.5495 23.054 43.406 23.267 44.1262 23.6932C44.8506 24.1151 45.4089 24.7074 45.8009 25.4702C46.193 26.2287 46.389 27.1151 46.389 28.1293C46.389 29.1349 46.193 30.0192 45.8009 30.782C45.4089 31.5405 44.8506 32.1328 44.1262 32.5589C43.406 32.9808 42.5495 33.1918 41.5566 33.1918ZM41.5694 31.0824C42.0211 31.0824 42.3982 30.9545 42.7008 30.6989C43.0033 30.4389 43.2313 30.0852 43.3847 29.6378C43.5424 29.1903 43.6212 28.6811 43.6212 28.1101C43.6212 27.5391 43.5424 27.0298 43.3847 26.5824C43.2313 26.1349 43.0033 25.7812 42.7008 25.5213C42.3982 25.2614 42.0211 25.1314 41.5694 25.1314C41.1134 25.1314 40.7299 25.2614 40.4188 25.5213C40.112 25.7812 39.8797 26.1349 39.7221 26.5824C39.5687 27.0298 39.492 27.5391 39.492 28.1101C39.492 28.6811 39.5687 29.1903 39.7221 29.6378C39.8797 30.0852 40.112 30.4389 40.4188 30.6989C40.7299 30.9545 41.1134 31.0824 41.5694 31.0824ZM49.7512 33.1662C49.3293 33.1662 48.9671 33.017 48.6645 32.7188C48.3663 32.4162 48.2171 32.054 48.2171 31.6321C48.2171 31.2145 48.3663 30.8565 48.6645 30.5582C48.9671 30.2599 49.3293 30.1108 49.7512 30.1108C50.1603 30.1108 50.5182 30.2599 50.8251 30.5582C51.1319 30.8565 51.2853 31.2145 51.2853 31.6321C51.2853 31.9134 51.2128 32.1712 51.068 32.4055C50.9273 32.6357 50.742 32.821 50.5118 32.9616C50.2817 33.098 50.0282 33.1662 49.7512 33.1662ZM58.0959 19.9091V33H55.3281V22.5362H55.2514L52.2536 24.4155V21.9609L55.4943 19.9091H58.0959Z" fill="#8A6B0D"/>
<path d="M64.1158 20.38C64.4278 20.092 64.4398 20.08 64.9678 19.516C65.0998 19.372 65.2078 19.312 65.3278 19.312C65.4838 19.312 65.6398 19.444 65.7718 19.708C65.8558 19.852 65.8918 19.972 65.8918 20.068C65.8918 20.164 65.8438 20.236 65.7238 20.284C65.6518 20.32 65.6158 20.332 65.1238 20.476C64.8478 20.548 64.6438 20.62 64.2598 20.752C64.6678 20.908 64.6678 20.908 65.1238 21.04C65.8078 21.244 65.9038 21.292 65.9038 21.472C65.9038 21.784 65.5918 22.216 65.3638 22.216C65.2438 22.216 65.0998 22.132 64.9198 21.94C64.6198 21.616 64.4038 21.4 64.1398 21.148C64.1998 21.472 64.2958 21.856 64.4278 22.348C64.4638 22.456 64.4758 22.552 64.4758 22.636C64.4758 22.84 64.2478 22.96 63.8998 22.96C63.5638 22.96 63.3478 22.84 63.3478 22.648C63.3478 22.576 63.4198 22.264 63.5158 21.916C63.5998 21.604 63.6238 21.448 63.6838 21.148C63.6598 21.172 63.3838 21.46 62.8678 22.012C62.7118 22.18 62.6158 22.24 62.4958 22.24C62.3278 22.24 62.1958 22.12 62.0518 21.868C61.9798 21.736 61.9318 21.592 61.9318 21.508C61.9318 21.4 62.0038 21.316 62.1598 21.256C62.2198 21.244 62.5198 21.136 63.0478 20.956C63.0718 20.956 63.1918 20.908 63.3478 20.848C63.3958 20.836 63.4678 20.812 63.5518 20.776C62.9878 20.56 62.6878 20.464 62.4118 20.404C62.0158 20.308 61.9198 20.248 61.9198 20.068C61.9198 19.744 62.2198 19.324 62.4598 19.324C62.6038 19.324 62.6398 19.348 63.0838 19.804C63.4558 20.176 63.6478 20.368 63.6598 20.38C63.6238 20.116 63.6238 20.116 63.3958 19.156C63.3598 19.036 63.3478 18.94 63.3478 18.892C63.3478 18.712 63.5758 18.592 63.9118 18.592C64.2358 18.592 64.4518 18.7 64.4518 18.88C64.4518 18.952 64.4278 19.06 64.4038 19.18C64.2958 19.552 64.1638 20.068 64.1158 20.38Z" fill="#8A6B0D"/>
</svg>
