<svg width="81" height="40" viewBox="0 0 81 40" fill="none" xmlns="http://www.w3.org/2000/svg">
<path d="M11.6089 34.9746C11.9523 36.5534 13.0559 37.4043 13.1027 37.4394C13.1213 37.4536 13.1433 37.4611 13.1654 37.4624C13.18 37.4632 13.1951 37.4607 13.2094 37.4553C13.2454 37.4415 13.2729 37.4101 13.2833 37.3704C13.3007 37.3048 13.7098 35.7456 13.4496 34.5238C13.192 33.3163 12.2941 31.584 12.2558 31.5109C12.2357 31.4724 12.1986 31.4481 12.158 31.446C12.1549 31.446 12.1514 31.446 12.148 31.446C12.1039 31.4481 12.0644 31.477 12.0459 31.5205C12.0138 31.5966 11.2663 33.4003 11.6085 34.9742L11.6089 34.9746Z" fill="#BA972D"/>
<path d="M10.8027 37.3697C10.3363 37.2522 9.87652 37.1828 9.43646 37.1631C8.32743 37.1146 7.70524 37.3943 7.67933 37.406C7.64452 37.4219 7.619 37.455 7.61088 37.4947C7.60238 37.5344 7.61243 37.5762 7.63718 37.6067C7.6948 37.6774 9.05944 39.3465 10.2864 39.8454C10.5018 39.9327 10.7582 39.9838 11.049 39.9967C12.2531 40.0494 13.6874 39.4511 13.7477 39.4256C13.7829 39.4109 13.8092 39.3787 13.8189 39.3394C13.8285 39.3001 13.82 39.2583 13.7964 39.2265C13.7547 39.1709 12.7481 37.8597 10.803 37.3692L10.8027 37.3697Z" fill="#BA972D"/>
<path d="M9.33912 26.5503C9.33138 26.5482 9.32404 26.5474 9.3163 26.547C9.28769 26.5457 9.25946 26.5558 9.23703 26.5758C9.19875 26.6097 8.30123 27.4259 8.29543 29.0076C8.29002 30.5722 9.25869 31.9984 9.30006 32.0587C9.32133 32.0896 9.35459 32.1084 9.38978 32.1097C9.39674 32.1097 9.40408 32.1097 9.41143 32.1084C9.45435 32.1017 9.48993 32.0704 9.50501 32.0265C9.53053 31.9516 10.1299 30.1779 10.082 29.1728C10.034 28.171 9.44507 26.6862 9.41994 26.6235C9.40524 26.5867 9.37547 26.5595 9.33951 26.5503H9.33912Z" fill="#BA972D"/>
<path d="M9.36319 34.6682C9.37285 34.6318 9.36706 34.5925 9.34733 34.5612C9.30132 34.4884 8.2004 32.7754 6.19153 32.162C5.27274 31.8814 4.60531 31.802 4.20702 31.7844C3.97345 31.774 3.8501 31.7865 3.84507 31.7869C3.80563 31.7911 3.77044 31.8162 3.75226 31.8543C3.7337 31.8923 3.73448 31.9379 3.75342 31.9751C3.80137 32.0687 4.94521 34.2714 6.20816 34.9228C6.5032 35.075 6.84852 35.1608 7.23444 35.1779C8.26962 35.2235 9.25569 34.7686 9.29706 34.7493C9.32916 34.7343 9.35352 34.7046 9.36319 34.6678V34.6682Z" fill="#BA972D"/>
<path d="M6.69992 26.2659C6.70533 26.2668 6.71036 26.2676 6.71538 26.2676C6.75289 26.2693 6.78963 26.2513 6.81322 26.2183C6.85769 26.156 7.90717 24.6846 8.14615 23.7213C8.38435 22.7608 8.26293 21.1632 8.25752 21.0959C8.25442 21.0557 8.23393 21.0198 8.20222 20.9984C8.18482 20.9867 8.1651 20.9805 8.14499 20.9796C8.12875 20.9788 8.11212 20.9817 8.09665 20.9884C8.0518 21.0076 6.99767 21.4768 6.5464 22.9665C6.10054 24.4396 6.587 26.1091 6.60788 26.1794C6.62142 26.2241 6.65661 26.2576 6.69953 26.2655L6.69992 26.2659Z" fill="#BA972D"/>
<path d="M6.17753 29.2897C6.2131 29.2885 6.24597 29.2701 6.26763 29.2395C6.28928 29.209 6.29663 29.1697 6.28812 29.1325C6.2684 29.0455 5.78697 26.9829 4.10059 25.527C2.85351 24.4504 2.00549 24.2058 1.96991 24.1958C1.96179 24.1937 1.95367 24.1924 1.94517 24.192C1.915 24.1907 1.88523 24.202 1.86241 24.2238C1.83302 24.2518 1.81872 24.2936 1.82374 24.3354C1.83689 24.445 2.16055 27.0365 3.14546 28.1838C3.93509 29.1032 5.34768 29.2609 5.91883 29.286C6.07776 29.2931 6.17327 29.2897 6.17753 29.2897Z" fill="#BA972D"/>
<path d="M7.64909 17.9647C8.02457 17.1435 8.18002 15.6704 8.18621 15.6081C8.19046 15.5684 8.17693 15.5287 8.14986 15.5015C8.12898 15.4802 8.10191 15.4681 8.07407 15.4668C8.06595 15.4668 8.05744 15.4668 8.04932 15.4685C8.00562 15.4768 6.96928 15.6834 6.3119 16.9432C5.66303 18.1867 5.82622 19.8019 5.83356 19.87C5.83859 19.9169 5.86721 19.9566 5.90742 19.9737C5.9198 19.9792 5.93256 19.9817 5.94532 19.9825C5.97471 19.9838 6.00371 19.9733 6.02691 19.952C6.07757 19.9047 7.27206 18.7892 7.64909 17.9647Z" fill="#BA972D"/>
<path d="M6.14933 14.0281C6.16867 14.0431 6.1911 14.0515 6.21391 14.0523C6.23286 14.0532 6.25181 14.049 6.26959 14.0398C6.32528 14.0109 7.64352 13.3223 8.16207 12.6784C8.67831 12.037 9.13615 10.75 9.1551 10.6952C9.16825 10.6584 9.16438 10.6166 9.14505 10.5832C9.12571 10.5493 9.09284 10.5276 9.05649 10.5234C9.05649 10.5234 9.04373 10.5221 9.01898 10.5209C8.84729 10.5133 7.95132 10.52 7.16595 11.3931C6.31136 12.343 6.11028 13.8441 6.10216 13.9077C6.09636 13.9541 6.11414 14.0001 6.14933 14.0277V14.0281Z" fill="#BA972D"/>
<path d="M4.40852 16.1876C4.42282 16.1951 4.43829 16.1989 4.45415 16.1997C4.47271 16.2006 4.49127 16.1968 4.50828 16.188C4.53999 16.1721 4.56358 16.1416 4.57247 16.1052C4.58949 16.0362 4.97928 14.3934 4.21865 12.8067C3.59994 11.5159 3.22291 11.1267 3.20706 11.1108C3.18618 11.0895 3.15911 11.0777 3.13165 11.0765C3.12044 11.0761 3.10923 11.0773 3.09801 11.0803C3.05934 11.0907 3.02802 11.1221 3.01526 11.163C2.99051 11.2433 2.40931 13.142 2.71519 14.2964C3.0257 15.4684 4.35245 16.1583 4.40852 16.1872V16.1876Z" fill="#BA972D"/>
<path d="M7.47929 8.6234C7.46151 8.66563 7.46653 8.71539 7.49205 8.7526C7.51332 8.78354 7.54658 8.80194 7.58138 8.80361C7.58834 8.80361 7.59569 8.80361 7.60304 8.80236C7.65447 8.79442 8.86714 8.60124 9.42861 8.2241C9.98739 7.84863 10.6405 6.93879 10.6684 6.89991C10.6908 6.86855 10.6981 6.82799 10.6888 6.78994C10.6796 6.75189 10.6544 6.72053 10.6208 6.70506C10.6115 6.70088 10.3915 6.60179 10.0516 6.58715C9.6529 6.56959 9.26427 6.67078 8.89652 6.8882C7.99553 7.42005 7.49979 8.57532 7.47929 8.62424V8.6234Z" fill="#BA972D"/>
<path d="M5.75864 10.3033C5.77913 10.3238 5.80581 10.3355 5.83327 10.3368C5.83984 10.3368 5.8468 10.3368 5.85338 10.3359C5.88779 10.3309 5.91873 10.31 5.93729 10.2782C5.96745 10.2268 6.67394 9.00213 6.38547 7.51906C6.15771 6.34665 5.95972 5.90595 5.9516 5.88797C5.93342 5.84783 5.89669 5.82107 5.85531 5.81772C5.85376 5.81772 5.85222 5.81772 5.85106 5.81772C5.81123 5.81605 5.77333 5.83612 5.75013 5.87124C5.71223 5.92894 4.82361 7.29745 4.81356 8.31307C4.8035 9.34541 5.71958 10.2657 5.75864 10.3042V10.3033Z" fill="#BA972D"/>
<path d="M9.38403 5.02865C9.38867 5.02865 9.3937 5.02865 9.39834 5.02865C9.43392 5.02531 10.2734 4.94837 10.674 4.71339C11.0719 4.48008 11.548 3.88593 11.5681 3.86084C11.5917 3.83115 11.6013 3.79101 11.5944 3.75255C11.587 3.71408 11.5638 3.68105 11.531 3.66391C11.5228 3.65972 11.3326 3.55979 11.0437 3.54725C10.7962 3.53638 10.5522 3.59115 10.3187 3.7099C9.67753 4.03645 9.30012 4.81039 9.28427 4.84342C9.26454 4.8844 9.26686 4.93374 9.29084 4.97262C9.31172 5.00691 9.34652 5.02782 9.38403 5.02907V5.02865Z" fill="#BA972D"/>
<path d="M7.68319 5.6705C7.68319 5.6705 7.68589 5.6705 7.68705 5.6705C7.7207 5.67217 7.75318 5.65796 7.77677 5.63161C7.80345 5.60151 8.42834 4.88736 8.43453 3.83871C8.43879 3.11578 8.35487 2.69473 8.35101 2.67717C8.34211 2.63285 8.31156 2.59689 8.27135 2.58309C8.26129 2.57975 8.25124 2.57766 8.2408 2.57724C8.20986 2.57599 8.17931 2.58769 8.15611 2.61069C8.12324 2.64372 7.34908 3.42226 7.21181 4.10965C7.07105 4.81251 7.57453 5.58478 7.59618 5.6174C7.61667 5.64834 7.64838 5.66757 7.68319 5.6705Z" fill="#BA972D"/>
<path d="M10.0655 2.49075C10.0794 2.49744 10.0941 2.5012 10.1092 2.50204C10.127 2.50287 10.1452 2.49911 10.1618 2.49117C10.1939 2.4757 10.9495 2.10817 11.3753 1.57423C11.8041 1.03652 11.9692 0.188573 11.9762 0.153032C11.9835 0.114983 11.9742 0.0752618 11.951 0.0451571C11.9298 0.0179792 11.8988 0.00167248 11.866 0C11.8633 0 11.8602 0 11.8571 0C11.8172 0.00125436 10.8729 0.0439027 10.3161 0.782723C9.75308 1.52949 9.99128 2.37744 10.0017 2.4134C10.0118 2.4481 10.035 2.47611 10.0655 2.49117V2.49075Z" fill="#BA972D"/>
<path d="M4.54496 22.0881C4.55038 22.0889 4.5554 22.0898 4.56082 22.0898C4.59021 22.091 4.61959 22.0802 4.64202 22.0592C4.6687 22.0342 4.68379 21.9978 4.68301 21.9597C4.68147 21.8853 4.62849 20.1187 3.50282 18.6608C2.57128 17.4541 2.04267 17.2132 2.02063 17.2036C2.00787 17.1982 1.99472 17.1948 1.98118 17.1944C1.95798 17.1936 1.93439 17.1998 1.91429 17.2136C1.88219 17.235 1.8617 17.2722 1.85938 17.3127C1.85358 17.4035 1.72171 19.5476 2.32418 20.6489C2.93516 21.7666 4.47961 22.0751 4.54496 22.0877V22.0881Z" fill="#BA972D"/>
<path d="M71.0366 34.9746C70.6932 36.5534 69.5896 37.4043 69.5428 37.4394C69.5242 37.4536 69.5022 37.4611 69.4802 37.4624C69.4655 37.4632 69.4504 37.4607 69.4361 37.4553C69.4001 37.4415 69.3727 37.4101 69.3622 37.3704C69.3448 37.3048 68.9357 35.7456 69.1959 34.5238C69.4535 33.3163 70.3514 31.584 70.3897 31.5109C70.4098 31.4724 70.4469 31.4481 70.4875 31.446C70.4906 31.446 70.4941 31.446 70.4975 31.446C70.5416 31.4481 70.5811 31.477 70.5996 31.5205C70.6317 31.5966 71.3792 33.4003 71.037 34.9742L71.0366 34.9746Z" fill="#BA972D"/>
<path d="M71.8429 37.3697C72.3092 37.2522 72.769 37.1828 73.209 37.1631C74.3181 37.1146 74.9403 37.3943 74.9662 37.406C75.001 37.4219 75.0265 37.455 75.0346 37.4947C75.0431 37.5344 75.0331 37.5762 75.0083 37.6067C74.9507 37.6774 73.5861 39.3465 72.3591 39.8454C72.1437 39.9327 71.8873 39.9838 71.5965 39.9967C70.3924 40.0494 68.9581 39.4511 68.8978 39.4256C68.8626 39.4109 68.8363 39.3787 68.8266 39.3394C68.817 39.3001 68.8255 39.2583 68.8491 39.2265C68.8908 39.1709 69.8974 37.8597 71.8425 37.3692L71.8429 37.3697Z" fill="#BA972D"/>
<path d="M73.3064 26.5503C73.3141 26.5482 73.3215 26.5474 73.3292 26.547C73.3578 26.5457 73.386 26.5558 73.4085 26.5758C73.4468 26.6097 74.3443 27.4259 74.3501 29.0076C74.3555 30.5722 73.3868 31.9984 73.3454 32.0587C73.3242 32.0896 73.2909 32.1084 73.2557 32.1097C73.2488 32.1097 73.2414 32.1097 73.2341 32.1084C73.1912 32.1017 73.1556 32.0704 73.1405 32.0265C73.115 31.9516 72.5156 30.1779 72.5636 29.1728C72.6115 28.171 73.2004 26.6862 73.2256 26.6235C73.2403 26.5867 73.27 26.5595 73.306 26.5503H73.3064Z" fill="#BA972D"/>
<path d="M73.2823 34.6682C73.2727 34.6318 73.2785 34.5925 73.2982 34.5612C73.3442 34.4884 74.4451 32.7754 76.454 32.162C77.3728 31.8814 78.0402 31.802 78.4385 31.7844C78.6721 31.774 78.7954 31.7865 78.8004 31.7869C78.8399 31.7911 78.8751 31.8162 78.8932 31.8543C78.9118 31.8923 78.911 31.9379 78.8921 31.9751C78.8441 32.0687 77.7003 34.2714 76.4374 34.9228C76.1423 35.075 75.797 35.1608 75.4111 35.1779C74.3759 35.2235 73.3898 34.7686 73.3484 34.7493C73.3163 34.7343 73.292 34.7046 73.2823 34.6678V34.6682Z" fill="#BA972D"/>
<path d="M75.9456 26.2659C75.9402 26.2668 75.9352 26.2676 75.9301 26.2676C75.8926 26.2693 75.8559 26.2513 75.8323 26.2183C75.7878 26.156 74.7383 24.6846 74.4994 23.7213C74.2612 22.7608 74.3826 21.1632 74.388 21.0959C74.3911 21.0557 74.4116 21.0198 74.4433 20.9984C74.4607 20.9867 74.4804 20.9805 74.5005 20.9796C74.5168 20.9788 74.5334 20.9817 74.5489 20.9884C74.5937 21.0076 75.6478 21.4768 76.0991 22.9665C76.545 24.4396 76.0585 26.1091 76.0376 26.1794C76.0241 26.2241 75.9889 26.2576 75.946 26.2655L75.9456 26.2659Z" fill="#BA972D"/>
<path d="M76.468 29.2897C76.4324 29.2885 76.3995 29.2701 76.3779 29.2395C76.3562 29.209 76.3489 29.1697 76.3574 29.1325C76.3771 29.0455 76.8585 26.9829 78.5449 25.527C79.792 24.4504 80.64 24.2058 80.6756 24.1958C80.6837 24.1937 80.6918 24.1924 80.7003 24.192C80.7305 24.1907 80.7603 24.202 80.7831 24.2238C80.8125 24.2518 80.8268 24.2936 80.8218 24.3354C80.8086 24.445 80.485 27.0365 79.5 28.1838C78.7104 29.1032 77.2978 29.2609 76.7267 29.286C76.5677 29.2931 76.4722 29.2897 76.468 29.2897Z" fill="#BA972D"/>
<path d="M74.9964 17.9647C74.6209 17.1435 74.4655 15.6704 74.4593 15.6081C74.455 15.5684 74.4686 15.5287 74.4956 15.5015C74.5165 15.4802 74.5436 15.4681 74.5714 15.4668C74.5796 15.4668 74.5881 15.4668 74.5962 15.4685C74.6399 15.4768 75.6762 15.6834 76.3336 16.9432C76.9825 18.1867 76.8193 19.8019 76.8119 19.87C76.8069 19.9169 76.7783 19.9566 76.7381 19.9737C76.7257 19.9792 76.713 19.9817 76.7002 19.9825C76.6708 19.9838 76.6418 19.9733 76.6186 19.952C76.5679 19.9047 75.3734 18.7892 74.9964 17.9647Z" fill="#BA972D"/>
<path d="M76.4962 14.0281C76.4768 14.0431 76.4544 14.0515 76.4316 14.0523C76.4126 14.0532 76.3937 14.049 76.3759 14.0398C76.3202 14.0109 75.002 13.3223 74.4834 12.6784C73.9672 12.037 73.5094 10.75 73.4904 10.6952C73.4773 10.6584 73.4811 10.6166 73.5005 10.5832C73.5198 10.5493 73.5527 10.5276 73.589 10.5234C73.589 10.5234 73.6018 10.5221 73.6265 10.5209C73.7982 10.5133 74.6942 10.52 75.4796 11.3931C76.3342 12.343 76.5352 13.8441 76.5434 13.9077C76.5492 13.9541 76.5314 14.0001 76.4962 14.0277V14.0281Z" fill="#BA972D"/>
<path d="M78.237 16.1876C78.2227 16.1951 78.2072 16.1989 78.1914 16.1997C78.1728 16.2006 78.1542 16.1968 78.1372 16.188C78.1055 16.1721 78.0819 16.1416 78.073 16.1052C78.056 16.0362 77.6662 14.3934 78.4269 12.8067C79.0456 11.5159 79.4226 11.1267 79.4384 11.1108C79.4593 11.0895 79.4864 11.0777 79.5139 11.0765C79.5251 11.0761 79.5363 11.0773 79.5475 11.0803C79.5862 11.0907 79.6175 11.1221 79.6302 11.163C79.655 11.2433 80.2362 13.142 79.9303 14.2964C79.6198 15.4684 78.2931 16.1583 78.237 16.1872V16.1876Z" fill="#BA972D"/>
<path d="M75.1662 8.6234C75.184 8.66563 75.179 8.71539 75.1535 8.7526C75.1322 8.78354 75.0989 8.80194 75.0641 8.80361C75.0572 8.80361 75.0498 8.80361 75.0425 8.80236C74.991 8.79442 73.7784 8.60124 73.2169 8.2241C72.6581 7.84863 72.005 6.93879 71.9772 6.89991C71.9547 6.86855 71.9474 6.82799 71.9567 6.78994C71.9659 6.75189 71.9911 6.72053 72.0247 6.70506C72.034 6.70088 72.254 6.60179 72.5939 6.58715C72.9926 6.56959 73.3812 6.67078 73.749 6.8882C74.65 7.42005 75.1457 8.57532 75.1662 8.62424V8.6234Z" fill="#BA972D"/>
<path d="M76.8869 10.3033C76.8664 10.3238 76.8397 10.3355 76.8122 10.3368C76.8057 10.3368 76.7987 10.3368 76.7921 10.3359C76.7577 10.3309 76.7268 10.31 76.7082 10.2782C76.6781 10.2268 75.9716 9.00213 76.26 7.51906C76.4878 6.34665 76.6858 5.90595 76.6939 5.88797C76.7121 5.84783 76.7488 5.82107 76.7902 5.81772C76.7917 5.81772 76.7933 5.81772 76.7945 5.81772C76.8343 5.81605 76.8722 5.83612 76.8954 5.87124C76.9333 5.92894 77.8219 7.29745 77.8319 8.31307C77.842 9.34541 76.9259 10.2657 76.8869 10.3042V10.3033Z" fill="#BA972D"/>
<path d="M73.2615 5.02865C73.2568 5.02865 73.2518 5.02865 73.2472 5.02865C73.2116 5.02531 72.3721 4.94837 71.9715 4.71339C71.5736 4.48008 71.0975 3.88593 71.0774 3.86084C71.0538 3.83115 71.0442 3.79101 71.0511 3.75255C71.0585 3.71408 71.0817 3.68105 71.1146 3.66391C71.1227 3.65972 71.3129 3.55979 71.6018 3.54725C71.8493 3.53638 72.0933 3.59115 72.3268 3.7099C72.968 4.03645 73.3454 4.81039 73.3612 4.84342C73.381 4.8844 73.3786 4.93374 73.3547 4.97262C73.3338 5.00691 73.299 5.02782 73.2615 5.02907V5.02865Z" fill="#BA972D"/>
<path d="M74.9623 5.6705C74.9623 5.6705 74.9596 5.6705 74.9585 5.6705C74.9248 5.67217 74.8923 5.65796 74.8687 5.63161C74.8421 5.60151 74.2172 4.88736 74.211 3.83871C74.2067 3.11578 74.2906 2.69473 74.2945 2.67717C74.3034 2.63285 74.3339 2.59689 74.3742 2.58309C74.3842 2.57975 74.3943 2.57766 74.4047 2.57724C74.4356 2.57599 74.4662 2.58769 74.4894 2.61069C74.5223 2.64372 75.2964 3.42226 75.4337 4.10965C75.5745 4.81251 75.071 5.58478 75.0493 5.6174C75.0288 5.64834 74.9971 5.66757 74.9623 5.6705Z" fill="#BA972D"/>
<path d="M72.58 2.49075C72.5661 2.49744 72.5514 2.5012 72.5363 2.50204C72.5185 2.50287 72.5003 2.49911 72.4837 2.49117C72.4516 2.4757 71.696 2.10817 71.2703 1.57423C70.8414 1.03652 70.6763 0.188573 70.6693 0.153032C70.662 0.114983 70.6713 0.0752618 70.6945 0.0451571C70.7157 0.0179792 70.7467 0.00167248 70.7795 0C70.7822 0 70.7853 0 70.7884 0C70.8283 0.00125436 71.7726 0.0439027 72.3294 0.782723C72.8924 1.52949 72.6542 2.37744 72.6438 2.4134C72.6337 2.4481 72.6105 2.47611 72.58 2.49117V2.49075Z" fill="#BA972D"/>
<path d="M78.1005 22.0881C78.0951 22.0889 78.0901 22.0898 78.0847 22.0898C78.0553 22.091 78.0259 22.0802 78.0035 22.0592C77.9768 22.0342 77.9617 21.9978 77.9625 21.9597C77.964 21.8853 78.017 20.1187 79.1427 18.6608C80.0742 17.4541 80.6028 17.2132 80.6249 17.2036C80.6376 17.1982 80.6508 17.1948 80.6643 17.1944C80.6875 17.1936 80.7111 17.1998 80.7312 17.2136C80.7633 17.235 80.7838 17.2722 80.7861 17.3127C80.7919 17.4035 80.9238 19.5476 80.3213 20.6489C79.7104 21.7666 78.1659 22.0751 78.1005 22.0877V22.0881Z" fill="#BA972D"/>
<path d="M30.4158 6.863L30.9558 6.269C31.3788 6.404 31.9278 6.656 32.2158 6.872L31.6488 7.529C31.3968 7.313 30.8568 7.025 30.4158 6.863ZM25.8348 7.196H32.7738V8.051H25.8348V7.196ZM26.5278 8.474H29.1828V9.167H26.5278V8.474ZM26.5548 9.59H27.4188V11.246H26.5548V9.59ZM31.2348 8.276L32.2338 8.519C31.7118 9.986 30.7848 11.192 29.6598 11.948C29.5068 11.75 29.1288 11.372 28.9128 11.192C29.9928 10.571 30.8298 9.527 31.2348 8.276ZM29.1198 6.359H30.1368C30.1998 8.843 31.1268 11.066 31.9278 11.057C32.1258 11.057 32.2068 10.751 32.2518 9.977C32.4678 10.175 32.8098 10.364 33.0618 10.454C32.9178 11.732 32.5938 12.029 31.8648 12.029C30.2898 12.029 29.2368 9.356 29.1198 6.359ZM26.5548 9.59H29.1288V11.543H26.5548V10.85H28.2468V10.283H26.5548V9.59ZM26.9058 12.299H27.9768V13.46C27.9768 13.703 28.0488 13.739 28.4718 13.739C28.6608 13.739 29.4528 13.739 29.6958 13.739C30.0378 13.739 30.1008 13.64 30.1368 12.929C30.3528 13.091 30.8118 13.244 31.0998 13.307C30.9738 14.423 30.6768 14.693 29.7948 14.693C29.5518 14.693 28.5888 14.693 28.3458 14.693C27.1758 14.693 26.9058 14.396 26.9058 13.469V12.299ZM27.7428 12.056L28.4358 11.48C28.9398 11.75 29.5428 12.182 29.8308 12.524L29.0838 13.172C28.8228 12.83 28.2378 12.362 27.7428 12.056ZM30.7038 12.614L31.6038 12.155C32.1978 12.695 32.8098 13.451 33.0528 14.036L32.0718 14.54C31.8648 13.982 31.2888 13.181 30.7038 12.614ZM25.6998 12.29L26.6628 12.632C26.4468 13.388 26.0958 14.144 25.4838 14.63L24.5838 14.018C25.1328 13.613 25.5108 12.965 25.6998 12.29ZM25.3308 7.196H26.3208V8.573C26.3208 9.68 26.1498 11.273 25.2948 12.29C25.1418 12.101 24.7098 11.741 24.5028 11.633C25.2588 10.733 25.3308 9.473 25.3308 8.564V7.196ZM36.2208 11.354C36.8418 11.264 37.7238 11.093 38.6238 10.922L38.6958 11.696C37.9128 11.885 37.1118 12.065 36.4458 12.209L36.2208 11.354ZM39.2538 8.393H42.0618V9.401H39.2538V8.393ZM40.6578 6.422H41.6298V13.685C41.6298 14.207 41.5398 14.477 41.2518 14.639C40.9548 14.81 40.5228 14.846 39.9018 14.846C39.8658 14.576 39.7308 14.135 39.6048 13.847C39.9918 13.865 40.3698 13.865 40.4958 13.856C40.6128 13.856 40.6578 13.82 40.6578 13.694V6.422ZM39.3888 10.103L40.1448 9.923C40.3878 10.643 40.5588 11.579 40.5948 12.191L39.7848 12.38C39.7758 11.777 39.6138 10.832 39.3888 10.103ZM33.9438 9.122H36.1398V9.932H33.9438V9.122ZM33.9798 6.638H36.1308V7.457H33.9798V6.638ZM33.9438 10.346H36.1398V11.165H33.9438V10.346ZM33.5838 7.853H36.3468V8.708H33.5838V7.853ZM34.3308 11.597H36.1578V14.315H34.3308V13.469H35.3118V12.443H34.3308V11.597ZM33.9078 11.597H34.7268V14.693H33.9078V11.597ZM37.0578 8.465H38.7138V9.248H37.0578V8.465ZM37.0578 9.725H38.7138V10.508H37.0578V9.725ZM38.2278 7.214H39.1008V13.793C39.1008 14.225 39.0108 14.486 38.7408 14.639C38.4708 14.792 38.0928 14.819 37.5348 14.819C37.4898 14.567 37.3548 14.171 37.2198 13.928C37.5888 13.946 37.9578 13.946 38.0748 13.946C38.1918 13.946 38.2278 13.901 38.2278 13.784V7.214ZM38.7408 10.346L39.6498 10.643C38.9568 12.029 37.8138 13.289 36.6438 14.072C36.5178 13.874 36.1938 13.46 36.0048 13.271C37.1208 12.623 38.1648 11.543 38.7408 10.346ZM36.6438 7.214H38.6058V7.997H37.4898V11.714H36.6438V7.214ZM37.5348 6.341L38.5878 6.503C38.4078 6.962 38.2278 7.421 38.0838 7.736L37.2468 7.565C37.3638 7.214 37.4898 6.701 37.5348 6.341ZM47.6418 7.835C47.5158 8.753 47.3358 9.806 47.0208 10.868C46.4808 12.686 45.7068 13.802 44.7258 13.802C43.7178 13.802 42.8898 12.695 42.8898 11.174C42.8898 9.104 44.6988 7.322 47.0298 7.322C49.2528 7.322 50.6658 8.87 50.6658 10.841C50.6658 12.731 49.5048 14.072 47.2368 14.423L46.5528 13.361C46.9038 13.316 47.1558 13.271 47.3988 13.217C48.5418 12.938 49.4418 12.119 49.4418 10.796C49.4418 9.383 48.5598 8.375 47.0028 8.375C45.0948 8.375 44.0508 9.932 44.0508 11.066C44.0508 11.975 44.4108 12.416 44.7528 12.416C45.1398 12.416 45.4818 11.84 45.8598 10.625C46.1208 9.779 46.3188 8.744 46.4088 7.799L47.6418 7.835ZM51.8628 7.034H59.7558V7.952H51.8628V7.034ZM52.4388 8.501H59.3508V9.41H52.4388V8.501ZM53.2668 11.732H58.4778V12.641H53.2668V11.732ZM53.2938 9.905H59.2158V13.118H58.1358V10.787H53.2938V9.905ZM52.5828 9.905H53.6538V11.039C53.6538 12.191 53.4288 13.829 52.3308 14.855C52.1688 14.648 51.7188 14.261 51.4848 14.126C52.4748 13.217 52.5828 11.948 52.5828 11.021V9.905ZM55.2468 6.35H56.3448V8.987H55.2468V6.35ZM55.2828 10.211H56.3268V12.299H55.2828V10.211Z" fill="#8A6B0D"/>
<path d="M28.4666 33.179C27.7933 33.1747 27.1434 33.0618 26.517 32.8402C25.8948 32.6186 25.3366 32.2585 24.8423 31.7599C24.348 31.2614 23.9559 30.6009 23.6661 29.7784C23.3806 28.956 23.2379 27.946 23.2379 26.7486C23.2421 25.6491 23.3679 24.6669 23.615 23.8018C23.8664 22.9325 24.2244 22.1953 24.6889 21.5902C25.1576 20.9851 25.718 20.5249 26.37 20.2095C27.022 19.8899 27.7528 19.7301 28.5625 19.7301C29.436 19.7301 30.2073 19.9006 30.8764 20.2415C31.5454 20.5781 32.0823 21.0362 32.4872 21.6158C32.8963 22.1953 33.1434 22.8452 33.2286 23.5653H30.4992C30.3927 23.1094 30.169 22.7514 29.8281 22.4915C29.4872 22.2315 29.0653 22.1016 28.5625 22.1016C27.7102 22.1016 27.0625 22.4723 26.6193 23.2138C26.1804 23.9553 25.9566 24.9631 25.9481 26.2372H26.0376C26.2336 25.8494 26.4978 25.5192 26.8302 25.2464C27.1669 24.9695 27.5483 24.7585 27.9744 24.6136C28.4048 24.4645 28.8586 24.3899 29.3359 24.3899C30.1115 24.3899 30.8018 24.5732 31.4069 24.9396C32.012 25.3018 32.4893 25.8004 32.8387 26.4354C33.1882 27.0703 33.3629 27.7969 33.3629 28.6151C33.3629 29.5014 33.1562 30.2898 32.7429 30.9801C32.3338 31.6705 31.7606 32.2116 31.0234 32.6037C30.2904 32.9915 29.4382 33.1832 28.4666 33.179ZM28.4538 31.0057C28.8799 31.0057 29.2613 30.9034 29.598 30.6989C29.9346 30.4943 30.1988 30.2173 30.3906 29.8679C30.5823 29.5185 30.6782 29.1264 30.6782 28.6918C30.6782 28.2571 30.5823 27.8672 30.3906 27.522C30.2031 27.1768 29.9431 26.902 29.6108 26.6974C29.2784 26.4929 28.8991 26.3906 28.473 26.3906C28.1534 26.3906 27.8572 26.4503 27.5845 26.5696C27.316 26.6889 27.0795 26.8551 26.875 27.0682C26.6747 27.2812 26.517 27.5284 26.4019 27.8097C26.2869 28.0866 26.2294 28.3828 26.2294 28.6982C26.2294 29.12 26.3252 29.5057 26.517 29.8551C26.713 30.2045 26.9772 30.4837 27.3096 30.6925C27.6463 30.9013 28.0277 31.0057 28.4538 31.0057Z" fill="#8A6B0D"/>
<path d="M35.9078 26.046H47.7508V27.567H35.9078V26.046ZM40.9388 23.121H42.6158V33.157H40.9388V23.121ZM45.3718 21.054L46.5548 22.38C43.8898 23.134 40.2238 23.589 37.0388 23.81C36.9998 23.42 36.7918 22.783 36.6228 22.432C39.7428 22.185 43.2398 21.704 45.3718 21.054ZM54.7578 21.444H59.8538V22.744H54.7578V21.444ZM56.2658 21.964L57.7218 22.042C57.5138 24.083 56.7598 25.422 55.4208 26.267C55.1738 26.02 54.5498 25.552 54.2248 25.37C55.5378 24.72 56.1358 23.589 56.2658 21.964ZM59.0348 21.444H60.5168C60.5168 21.444 60.5168 21.808 60.5038 21.977C60.4258 24.161 60.2958 25.097 59.9968 25.474C59.7498 25.76 59.4638 25.864 59.1128 25.916C58.7878 25.955 58.2548 25.955 57.6698 25.942C57.6438 25.539 57.5008 24.98 57.2928 24.629C57.7478 24.681 58.1378 24.681 58.3328 24.681C58.5018 24.681 58.6188 24.655 58.7228 24.551C58.8788 24.343 58.9698 23.615 59.0348 21.639V21.444ZM49.1938 22.289H54.3808V23.641H49.1938V22.289ZM48.8948 24.837H54.6018V26.215H48.8948V24.837ZM51.9368 27.632H54.4458V28.984H51.9368V27.632ZM51.0918 20.976H52.5218V25.552H51.0918V20.976ZM51.3388 25.656H52.7168V31.415H51.3388V25.656ZM50.4548 28.217C51.1438 30.947 52.6258 31.35 55.3948 31.35C56.3828 31.363 59.8798 31.363 61.0628 31.298C60.8158 31.649 60.5558 32.377 60.4648 32.845H55.3948C51.9238 32.845 50.2338 32.195 49.3368 28.542L50.4548 28.217ZM49.2978 26.878L50.6628 26.956C50.6368 29.439 50.4678 31.688 49.7658 33.157C49.5058 32.975 48.8558 32.624 48.5178 32.481C49.1938 31.194 49.2848 29.101 49.2978 26.878ZM56.5518 27.697V29.309H58.6578V27.697H56.5518ZM55.0958 26.449H60.2178V30.557H55.0958V26.449Z" fill="#8A6B0D"/>
</svg>
