<svg xmlns="http://www.w3.org/2000/svg" width="1440" height="38" fill="none"><g clip-path="url(#a)"><mask id="b" width="1440" height="38" x="0" y="0" maskUnits="userSpaceOnUse" style="mask-type:luminance"><path fill="#fff" d="M0 0h1440v38H0V0Z"/></mask><g mask="url(#b)"><path fill="#D2E5EC" fill-rule="evenodd" d="M1373.88 0h-12.29v11.18h-7.83V31H1348V21h-11.73v-2.21h-4.86v-6.5h-22.5V6.71h-8.79V20h-18.03v-7.7h-8.8v10.05h-6.85V8.95h-8.79v8.93h-7.45v-7.5h-7.47V31h-4.26V11.98h-10.4v-3.2h-10.66v11.34h-8.94V31h-2.41V13.26h-10.4v-3.2H1185v3.35h-14.53V5.6h-2.23V2.24h-5.59v3.35h-2.24V31h-5.59V5.59h-10.06v7.82h-12.29V31h-2.23V16.77h-10.06V31h-1.32V6.7H1109v5.6h-7.82V31h-8.03V12.1h-9.02v-4h-9.86v5.33h-9.07v5.07h-2.66V4.1h-7.2v8h-7.73V31h-4.26V10.5h-8V7.3h-8.79V31h-1.6V17.7h-8V31h-2.66V5.97h-9.33v1.86h-8V31h-1.6V12.1h-7.46V31h-4.27V13.7h-10.4v-3.2h-5.06V6.7h-14.53v16.77h-11.18v7.82h-.18V13.26h-10.4v-3.2h-10.65v3.35h-16.77v6.7h-5.59V0h-12.3v11.18h-7.82v20.11h-1.11V21.24h-16.38v-2.45h-4.86v-6.5h-22.5V6.71h-8.8v13.4h-17.87V31.3h-.15v-19h-8.8v10.06h-6.85V8.95h-8.8v8.93h-7.44v-7.5h-7.47V31.3h-4.26V12h-10.4v-3.2h-10.66v11.33h-8.94v11.17h-2.41V13.26h-10.4v-3.2H710v3.35h-14.53V5.6h-2.23V2.24h-5.6v3.35h-2.23v25.7h-5.59V5.6h-10.06v7.82h-12.29V31.3h-2.23V16.76h-10.06V31.3h-1.32V6.71H634v5.58h-7.82v19h-8.02V12.1h-9.03V8.1h-9.86v5.33h-9.06v5.07h-2.67V4.1h-7.2v8h-7.73v19.2h-4.26V10.5h-8V7.3h-8.8v24h-1.6V17.7h-7.99v13.6h-2.67V5.96h-1.86V4.1h-1.6V2.24h-2.4V4.1h-1.6v1.87h-1.86v1.86h-8V31.3h-1.6V12.1h-7.46v19.2h-4.27V13.7h-10.4v-3.2H487.6V38H1429V23h-11.71v-9.74h-10.39v-3.2h-10.66v3.35h-16.77v6.7h-5.59V0Zm-514.5 17.78h.88v1h-3.04v-1h.87v-1.02h1.3v1.02Zm-590.9-5.8h10.4V31h4.26V10.39h7.47v7.5h7.45V8.93h8.8v13.41h6.85V12.3h8.8V20h18.02V6.7h8.8v5.6h22.5V21h22.35v-9.82H402V0h12.3v20.12h5.58v-6.7h16.77v-3.36h10.66v3.2h10.4V31h.17v-7.53h11.18V31 6.7h14.53V31h.41v7H11V27h10v-8h12v-3h12v15h2V6h12v12h7.97V7.3h8.8v3.2h7.99V31h4.26V12.1h7.73v-8h7.2v14.4h2.67v-5.07h9.06V8.1h9.86v4h9.03V31h8.02V12.3h7.82V6.7h9.86V17H171v14h1.88V13.41h12.3V5.6h10.06V31h5.59V2h10.05v11.41h14.53v-3.35h10.66v3.2h10.4V31h2.41V20.12h8.94V8.79h10.67v3.2Z" clip-rule="evenodd"/><path fill="#BFD9E2" d="M771.83 27.94h-8.95V38h8.95V27.94Z"/><path fill="#BFD9E2" d="M776.3 32.41h-8.94V38h8.94v-5.59Zm-21.61-5.59h-7.45v10.9h7.45v-10.9Zm-11.92 3.36h-6.7v7.54h6.7v-7.54Z"/><path fill="#BFD9E2" d="M758.42 32.08h-22.36v5.64h22.36v-5.64ZM601.2 26.82h7.45v10.9h-7.45v-10.9Zm11.92 3.36h6.7v7.54h-6.7v-7.54Z"/><path fill="#BFD9E2" d="M597.48 32.08h22.35v5.64h-22.36v-5.64ZM840 25.98h-8.94V38H840V25.98Z"/><path fill="#BFD9E2" d="M843.36 16.76h-7.83V38h7.83V16.76Zm-114 13.42h-8.95V38h8.95v-7.82Z"/><path fill="#BFD9E2" d="M733.83 32.9h-8.95V38h8.95v-5.1Zm-95-7.2h8.94V38h-8.94V25.7ZM631 31.3h7.83V38H631v-6.7Zm282.77 0h11.17V38h-11.17v-6.7Zm-541.42-3.36h-8.94V38h8.94V27.94Z"/><path fill="#BFD9E2" d="M376.82 32.41h-8.94V38h8.94v-5.59Zm-21.6-5.59h-7.46v10.9h7.45v-10.9Zm-11.93 3.36h-6.7v7.54h6.7v-7.54Z"/><path fill="#BFD9E2" d="M358.94 32.08H336.6v5.64h22.35v-5.64Zm-164.21-5.26h7.45v10.9h-7.45v-10.9Zm11.92 3.36h6.7v7.54h-6.7v-7.54Z"/><path fill="#BFD9E2" d="M191 32.08h22.35v5.64H191v-5.64Zm249.52-6.1h-8.94V38h8.94V25.98Z"/><path fill="#BFD9E2" d="M443.88 16.76h-7.82V38h7.82V16.76Zm-114 13.42h-8.94V38h8.94v-7.82Z"/><path fill="#BFD9E2" d="M334.35 32.9h-8.94V38h8.94v-5.1Zm-91.53-7.2h8.94V38h-8.94V25.7ZM235 31.3h7.82V38H235v-6.7Zm279.3 0h11.17V38h-11.18v-6.7Zm704.05-3.36h-8.94V38h8.94V27.94Z"/><path fill="#BFD9E2" d="M1222.82 32.41h-8.94V38h8.94v-5.59Zm-21.61-5.59h-7.45v10.9h7.45v-10.9Zm-11.92 3.36h-6.7v7.54h6.7v-7.54Z"/><path fill="#BFD9E2" d="M1204.94 32.08h-22.35v5.64h22.35v-5.64Zm-157.21-5.26h7.45v10.9h-7.45v-10.9Zm11.92 3.36h6.7v7.54h-6.7v-7.54Z"/><path fill="#BFD9E2" d="M1044 32.08h22.35v5.64H1044v-5.64Zm242.53-6.1h-8.95V38h8.95V25.98Z"/><path fill="#BFD9E2" d="M1289.88 16.76h-7.82V38h7.82V16.76Zm-114 13.42h-8.94V38h8.94v-7.82Z"/><path fill="#BFD9E2" d="M1180.35 32.9h-8.94V38h8.94v-5.1Zm-95-7.2h8.94V38h-8.94V25.7Zm-7.82 5.6h7.82V38h-7.82v-6.7Zm282.76 0h11.18V38h-11.18v-6.7Z"/><mask id="c" width="30" height="7" x="945" y="31" maskUnits="userSpaceOnUse" style="mask-type:luminance"><path fill="#fff" d="M945.06 31.3h29.06V38h-29.06v-6.7Z"/></mask><g mask="url(#c)"><path fill="#699A71" d="M957.48 32.88a.82.82 0 0 0-.3.85c-.26-.05-.53.13-.63.4-.1.28 0 .63.23.79-.25.2-.63.2-.76.51-.14.38.25.73.32 1.13.04.25-.05.5-.04.77 0 .25.2.54.41.45-.16.29-.15.68.02.97.16.28.49.44.78.38-.02.45.38.8.77.84.4.05.77-.14 1.13-.32a1.3 1.3 0 0 0 1.6-.02c.27.42.85.55 1.24.27 0 .29.17.57.4.66.24.1.53.02.7-.2.06.26 1.1.6 1.56.49a.69.69 0 0 1 .37-.02c.14.05.24.17.36.25.25.16.58.1.78-.12a.85.85 0 0 0 .12-.9c.33.1.75.13.93-.2.06-.1.08-.2.1-.32l.49-2.8c.06-.36.06-.83-.24-.93-.1-.04-.2-.02-.3-.07-.23-.13-.13-.53-.13-.83 0-.88-.87-2.17-1.2-2.17-.6-.33-1.56-1.1-1.81-.95-.25.16-.24.26-.36.38-1.04-.87-3.37-.93-3.72-.85-.35.09-.41.55-.73.61-.32.07-.66.06-.93.27-.08.06-.8.42-1.16.68Z"/><path fill="#7AAD62" d="M950.62 34.75a2.47 2.47 0 0 0-1.01.01c-.33.1-.63.38-.63.7a.98.98 0 0 0-1 .19.9.9 0 0 0-.24.96c-.27.08-.54.16-.77.33-.22.17-.38.44-.33.7.01.1.06.19.06.28.01.22-.18.4-.28.6-.16.37.04.83.42.96-.16.16-.32.33-.38.54-.06.2.02.47.23.54.1.04.22.04.27.13.04.06.01.13-.01.2-.12.3-.25.61-.19.92.08.3.46.56.73.37-.17.4.18.86.6.99.43.13.89.02 1.32-.08.06.33.47.5.82.47.36-.03.68-.2 1.03-.26a.44.44 0 0 0-.06-.47c.11-.08.25-.16.37-.1.08.04.1.13.16.2.15.22.5.26.76.14s.44-.35.59-.59c.26.28.75.28 1.09.08.34-.2.55-.56.66-.93a.87.87 0 0 0 1.38-.44c.6.17 1.32-.27 1.43-.87.19-.14.44-.01.64.1s.4.08.63.03c.5-.12.55-.71.45-.82.23-.28 1.42-.58.59-1.53-.16-.18-.47-.15-.7-.23.1-.21.18-.43.2-.66 0-.23-.1-.48-.3-.59-.12-.05-.25-.07-.32-.16-.12-.16.02-.37.02-.57 0-.27-.27-.45-.5-.59-.31-.18-.75-.8-1.06-.97-.36-.21-.6.01-.96-.2-.18-.1-.43-.2-.58-.06a.84.84 0 0 0-.93-.27c-.09.03-.17.07-.26.09-.21.03-.4-.12-.62-.15-.2-.03-.39.03-.58.07-.52.11-1.06.1-1.58.2-.52.09-.9.28-1.16.74Z"/><path fill="#5FA646" d="M967 34.13a1.82 1.82 0 0 0-.82-.26c-.28 0-.6.19-.67.5a.72.72 0 0 0-.85-.1.94.94 0 0 0-.42.85c-.24 0-.48 0-.7.1a.73.73 0 0 0-.44.59c0 .1.01.19 0 .28-.05.22-.25.34-.38.5-.21.3-.16.81.12 1.04-.17.11-.34.23-.44.41-.1.19-.1.46.06.59.07.06.18.1.2.2 0 .06-.03.13-.07.18-.16.26-.34.52-.36.84-.02.31.24.66.5.56-.23.34-.06.87.25 1.11.32.24.72.27 1.1.29-.04.34.25.61.54.68.3.07.6 0 .9.03a.5.5 0 0 0 .06-.46c.1-.04.24-.09.32 0 .06.07.06.16.08.24.07.26.35.4.59.35.23-.04.43-.21.6-.4.16.34.55.48.87.38.32-.1.58-.4.76-.71a.7.7 0 0 0 .62.36.72.72 0 0 0 .6-.4c.44.33 1.13.11 1.36-.44.18-.08.36.11.5.28.12.16.3.19.5.2.43.03.6-.53.55-.66.25-.2 1.28-.16.84-1.3-.09-.22-.35-.28-.52-.42.13-.18.25-.37.32-.59.05-.22.03-.48-.11-.64-.08-.08-.18-.14-.21-.25-.06-.18.1-.35.14-.53.07-.26-.1-.51-.26-.7-.21-.27-.42-.98-.63-1.24-.24-.3-.49-.15-.73-.46-.12-.14-.3-.3-.46-.21-.1-.32-.39-.54-.68-.53-.08 0-.16.03-.24.02-.18-.03-.3-.23-.46-.32-.15-.08-.32-.08-.49-.1-.45-.03-.88-.2-1.32-.25-.45-.05-.8.03-1.11.4Z"/><path fill="#5FA646" d="M954.23 36.2a.82.82 0 0 0-.32.84c-.25-.05-.53.12-.63.4-.1.27 0 .62.2.78-.24.2-.63.19-.76.5-.15.37.23.73.3 1.13.03.25-.06.5-.06.76s.2.56.4.47a1.02 1.02 0 0 0 0 .97c.16.29.48.45.78.4-.03.45.36.81.75.86.39.05.77-.12 1.13-.29a1.3 1.3 0 0 0 1.6.02c.27.43.84.57 1.24.3 0 .3.16.57.4.68a.58.58 0 0 0 .68-.2c.06.28 1.1.63 1.56.54a.69.69 0 0 1 .37 0c.14.04.24.17.36.25a.61.61 0 0 0 .78-.1c.2-.23.26-.6.13-.89.33.1.76.15.94-.18a1 1 0 0 0 .1-.32l.55-2.8c.07-.34.08-.82-.22-.93-.1-.03-.2-.02-.3-.07-.23-.13-.12-.53-.11-.83 0-.88-.83-2.2-1.17-2.2-.58-.35-1.53-1.14-1.78-1-.25.15-.24.25-.37.37-1.02-.9-3.35-1.02-3.7-.94-.36.07-.43.53-.74.59-.32.05-.66.04-.94.24-.08.06-.81.4-1.17.65Z"/></g><mask id="d" width="39" height="10" x="465" y="29" maskUnits="userSpaceOnUse" style="mask-type:luminance"><path fill="#fff" d="M504 29h-39v10h39V29Z"/></mask><g mask="url(#d)"><path fill="#699A71" d="M490.58 33.58a.83.83 0 0 1 .3.86c.26-.05.53.13.63.4.1.28-.01.63-.23.78.24.2.63.2.75.52.15.37-.24.73-.3 1.13-.05.25.04.5.03.76 0 .26-.2.55-.41.45.16.3.15.69-.02.97a.76.76 0 0 1-.78.39c.01.44-.38.8-.77.84-.4.04-.77-.14-1.13-.32a1.3 1.3 0 0 1-1.6-.02c-.28.42-.85.55-1.24.27 0 .29-.17.56-.4.66a.58.58 0 0 1-.7-.2c-.06.26-1.1.59-1.56.48a.69.69 0 0 0-.37-.01c-.14.04-.24.17-.36.24a.61.61 0 0 1-.79-.12.85.85 0 0 1-.1-.89c-.34.09-.76.13-.95-.2-.05-.1-.07-.21-.09-.32l-.5-2.81c-.05-.35-.05-.82.25-.93.1-.03.2-.01.3-.06.23-.13.13-.53.13-.83 0-.88.87-2.18 1.2-2.17.6-.33 1.56-1.1 1.8-.95.25.15.25.25.37.38 1.04-.87 3.37-.94 3.72-.85.35.08.41.55.73.6.31.07.66.07.93.27.08.07.8.43 1.16.68Z"/><path fill="#7AAD62" d="M498.56 35.02c.34-.05.69-.09 1.01.01.33.1.63.38.63.7a.98.98 0 0 1 1 .19.91.91 0 0 1 .24.96c.27.08.55.16.77.33.22.17.39.44.33.7-.01.1-.06.19-.06.28-.01.22.18.4.28.6a.73.73 0 0 1-.42.96c.16.16.32.33.38.54.06.2-.02.47-.23.54-.1.04-.22.04-.27.13-.04.06-.01.13.01.2.12.3.25.61.19.92-.07.3-.46.56-.73.37.17.4-.18.86-.6.99s-.89.02-1.32-.08c-.05.33-.47.5-.82.47-.35-.03-.68-.2-1.03-.26a.44.44 0 0 1 .06-.46c-.11-.09-.25-.17-.37-.11-.08.04-.1.13-.16.2-.15.22-.5.26-.76.14a1.46 1.46 0 0 1-.59-.59c-.26.28-.75.28-1.09.08-.33-.2-.55-.56-.66-.93a.88.88 0 0 1-1.17-.08.87.87 0 0 1-.2-.36c-.6.17-1.33-.27-1.44-.88-.19-.13-.44 0-.64.1-.2.12-.4.1-.63.04-.5-.12-.55-.71-.45-.82-.22-.28-1.42-.58-.59-1.53.16-.18.47-.15.7-.23-.1-.21-.18-.43-.2-.66 0-.23.1-.48.31-.59.1-.05.24-.07.31-.17.12-.15-.02-.37-.02-.56 0-.27.27-.45.5-.59.31-.18.75-.8 1.06-.97.36-.21.6.01.96-.2.18-.1.43-.2.58-.06.2-.27.6-.39.93-.27.09.03.17.07.26.09.22.03.4-.12.62-.15.2-.03.39.03.58.07.52.11 1.06.1 1.58.2.53.09.9.28 1.16.74Z"/><path fill="#5FA646" d="M479.16 34.47c.27-.14.54-.28.83-.27.28 0 .6.19.67.5a.72.72 0 0 1 .85-.1c.27.16.44.5.42.85.24 0 .48 0 .7.1.22.1.42.32.44.59 0 .1-.01.19 0 .28.05.22.25.34.38.5.21.3.16.81-.12 1.04.17.11.34.23.43.41.1.19.1.46-.05.59-.07.06-.18.1-.2.2 0 .06.03.13.07.18.16.26.34.52.36.84.02.31-.24.66-.5.56.23.34.06.87-.25 1.11-.32.24-.72.27-1.1.29.04.34-.25.62-.54.68-.3.07-.6 0-.9.03a.5.5 0 0 1-.06-.46c-.1-.04-.24-.09-.32 0-.06.07-.06.16-.08.24-.07.26-.35.4-.58.35-.24-.04-.44-.21-.62-.4a.71.71 0 0 1-.86.38c-.32-.1-.58-.4-.76-.71a.7.7 0 0 1-.62.36.72.72 0 0 1-.6-.4c-.44.33-1.13.11-1.36-.44-.18-.08-.36.11-.5.28-.12.16-.3.19-.5.2-.43.03-.6-.53-.55-.66-.25-.2-1.28-.16-.84-1.3.09-.22.35-.28.52-.42a1.97 1.97 0 0 1-.31-.58c-.06-.22-.04-.49.1-.65.08-.08.18-.14.21-.25.06-.18-.1-.35-.14-.53-.07-.26.1-.51.26-.7.21-.27.42-.98.63-1.24.24-.3.49-.15.73-.45.12-.15.3-.31.46-.22.1-.32.39-.54.68-.52.08 0 .16.02.24 0 .18-.02.3-.22.46-.3.15-.1.32-.1.49-.1.45-.04.88-.2 1.32-.26.45-.05.8.03 1.11.4Z"/><path fill="#5FA646" d="M492.19 37.2c.24.18.4.54.31.85.26-.05.54.12.64.4.1.27 0 .62-.21.78.25.2.63.19.76.5.16.36-.23.73-.29 1.13-.03.25.06.5.06.76s-.2.55-.4.47c.16.28.16.68 0 .97a.77.77 0 0 1-.78.4c.03.45-.36.8-.75.86-.4.05-.77-.12-1.14-.29a1.3 1.3 0 0 1-1.6.02c-.27.43-.84.57-1.23.3 0 .3-.16.57-.4.68a.58.58 0 0 1-.69-.2c-.06.28-1.1.63-1.56.54-.12-.03-.25-.05-.37-.01-.13.05-.23.18-.35.26a.61.61 0 0 1-.79-.1.85.85 0 0 1-.13-.9c-.33.1-.75.16-.94-.17a1 1 0 0 1-.1-.32l-.55-2.8c-.06-.34-.07-.82.22-.93.1-.03.21-.02.3-.07.24-.14.13-.53.12-.84-.01-.88.82-2.19 1.16-2.2.59-.34 1.54-1.13 1.79-.99.25.15.24.25.36.37 1.03-.9 3.35-1.02 3.7-.95.36.08.43.54.75.6.32.05.66.04.93.23.09.07.82.4 1.18.66Z"/></g><mask id="e" width="30" height="7" x="690" y="31" maskUnits="userSpaceOnUse" style="mask-type:luminance"><path fill="#fff" d="M719.3 31.3h-29.06V38h29.05v-6.7Z"/></mask><g mask="url(#e)"><path fill="#699A71" d="M706.88 32.88a.83.83 0 0 1 .3.85c.25-.05.53.13.62.4.1.28 0 .63-.22.79.24.2.63.2.75.51.15.38-.24.73-.31 1.13-.04.25.05.5.04.77 0 .25-.2.54-.42.45.16.29.16.68-.01.97a.76.76 0 0 1-.78.38c.01.45-.38.8-.77.84-.4.05-.78-.14-1.13-.32a1.3 1.3 0 0 1-1.6-.02c-.28.42-.85.55-1.25.27 0 .29-.17.57-.4.66a.59.59 0 0 1-.69-.2c-.06.26-1.11.6-1.57.49a.69.69 0 0 0-.37-.02c-.13.05-.23.17-.36.25a.61.61 0 0 1-.78-.12.85.85 0 0 1-.11-.9c-.33.1-.76.13-.94-.2-.05-.1-.08-.2-.1-.32l-.48-2.8c-.06-.36-.06-.83.23-.93.1-.04.2-.02.3-.07.24-.13.13-.53.14-.83 0-.88.86-2.17 1.2-2.17.6-.33 1.56-1.1 1.8-.95.25.16.24.26.36.38 1.04-.87 3.37-.93 3.73-.85.35.09.4.55.73.61.31.07.66.06.92.27.09.06.81.42 1.16.68Z"/><path fill="#7AAD62" d="M713.73 34.75c.34-.05.7-.09 1.02.01.33.1.62.38.62.7a.98.98 0 0 1 1 .19.9.9 0 0 1 .24.96c.27.08.55.16.77.33.23.17.39.44.34.7-.02.1-.06.19-.07.28 0 .22.19.4.28.6a.73.73 0 0 1-.41.96c.15.16.31.33.37.54.06.2-.01.47-.22.54-.1.04-.23.04-.28.13-.03.06 0 .13.02.2.11.3.25.61.18.92-.07.3-.46.56-.73.37.17.4-.18.86-.6.99s-.88.02-1.32-.08c-.05.33-.46.5-.82.47-.35-.03-.68-.2-1.03-.26a.44.44 0 0 1 .06-.46c-.1-.09-.25-.17-.37-.11-.07.04-.1.13-.15.2-.16.22-.5.26-.76.14a1.46 1.46 0 0 1-.6-.59c-.26.28-.74.28-1.08.08-.34-.2-.55-.56-.67-.93a.87.87 0 0 1-1.37-.44c-.6.17-1.33-.27-1.43-.87-.2-.14-.45-.01-.64.1-.2.11-.41.08-.64.03-.5-.12-.55-.71-.45-.82-.22-.28-1.41-.58-.59-1.53.16-.18.47-.15.7-.23-.09-.21-.18-.43-.19-.66 0-.23.1-.48.3-.59.11-.05.25-.07.32-.16.11-.16-.02-.37-.02-.57 0-.27.26-.45.5-.59.3-.18.74-.8 1.05-.97.37-.21.6.01.97-.2.18-.1.42-.2.58-.06.2-.27.6-.39.92-.27.09.03.17.07.27.09.21.03.4-.12.61-.15.2-.03.4.03.59.07.52.11 1.05.1 1.58.2.52.09.9.28 1.15.74Z"/><path fill="#5FA646" d="M697.35 34.13c.26-.13.53-.27.82-.26.3 0 .6.19.67.5a.72.72 0 0 1 .86-.1c.27.15.44.5.42.85.23 0 .48 0 .7.1.22.1.41.32.43.59l.01.28c.05.22.25.34.37.5.22.3.17.81-.1 1.04.15.11.32.23.42.41.1.19.1.46-.06.59-.07.06-.17.1-.19.2-.01.06.03.13.06.18.17.26.35.52.37.84.01.31-.24.66-.5.56.23.34.05.87-.26 1.11-.31.24-.71.27-1.09.29.04.34-.25.61-.55.68-.3.07-.6 0-.9.03a.5.5 0 0 1-.05-.46c-.11-.05-.25-.09-.33 0-.05.07-.05.16-.08.24-.07.26-.34.4-.58.35-.24-.04-.44-.21-.61-.4a.71.71 0 0 1-.87.38c-.32-.1-.57-.4-.75-.71a.71.71 0 0 1-.62.36.72.72 0 0 1-.6-.4c-.45.33-1.13.11-1.36-.44-.19-.08-.36.11-.5.28-.13.16-.3.19-.5.2-.43.03-.61-.53-.56-.66-.24-.2-1.28-.16-.83-1.3.08-.22.34-.28.51-.42a1.92 1.92 0 0 1-.3-.59c-.07-.22-.05-.48.1-.64.07-.08.18-.14.21-.25.06-.18-.1-.35-.15-.53-.06-.26.11-.51.27-.7.2-.27.42-.98.63-1.24.24-.3.49-.15.73-.46.12-.14.3-.3.45-.21.1-.32.4-.54.69-.53.07 0 .15.03.23.02.18-.03.3-.23.47-.32.15-.08.32-.08.49-.1.44-.03.87-.2 1.32-.25.44-.05.8.03 1.1.4Z"/><path fill="#5FA646" d="M710.13 36.2c.24.17.4.53.31.84.26-.05.54.12.64.4.1.27 0 .62-.21.78.24.2.63.19.76.5.15.37-.23.73-.29 1.13-.04.25.06.5.06.76s-.2.56-.41.47c.16.28.17.68 0 .97a.77.77 0 0 1-.77.4c.02.45-.36.81-.75.86-.4.05-.78-.12-1.14-.29a1.3 1.3 0 0 1-1.6.02c-.27.43-.84.57-1.24.3.01.3-.15.57-.39.68a.58.58 0 0 1-.69-.2c-.06.28-1.1.63-1.56.54a.68.68 0 0 0-.37 0c-.13.04-.23.17-.35.25a.61.61 0 0 1-.79-.1.85.85 0 0 1-.13-.89c-.33.1-.75.15-.94-.18-.05-.1-.08-.2-.1-.32l-.55-2.8c-.06-.34-.07-.82.22-.93.1-.03.2-.02.3-.07.23-.13.12-.53.12-.83-.01-.88.82-2.2 1.16-2.2.59-.35 1.54-1.14 1.79-1 .25.15.24.25.36.37 1.02-.9 3.35-1.02 3.7-.94.36.07.43.53.75.59.32.05.66.04.93.24.09.06.82.4 1.17.65Z"/></g><mask id="f" width="28" height="5" x="661" y="33" maskUnits="userSpaceOnUse" style="mask-type:luminance"><path fill="#fff" d="M688 33.53h-26.82V38H688v-4.47Z"/></mask><g mask="url(#f)"><path fill="#699A71" d="M679.86 35.44c.24.18.38.54.3.85.25-.05.53.13.63.4.09.29-.01.63-.23.8.24.2.63.2.75.5.15.38-.24.73-.31 1.13-.04.26.05.51.04.77 0 .25-.2.54-.42.45.16.29.16.69-.01.97a.77.77 0 0 1-.78.38c.01.45-.38.8-.77.85-.4.04-.77-.14-1.13-.32a1.3 1.3 0 0 1-1.6-.03c-.28.43-.85.55-1.24.28 0 .28-.17.56-.41.66a.59.59 0 0 1-.68-.21c-.08.27-1.12.6-1.58.49a.68.68 0 0 0-.37-.02c-.13.05-.23.17-.36.25a.61.61 0 0 1-.78-.12.85.85 0 0 1-.11-.89c-.33.08-.76.13-.94-.2-.05-.1-.08-.21-.1-.33l-.48-2.8c-.06-.35-.06-.83.23-.93.1-.03.2-.01.3-.06.24-.13.14-.53.14-.84 0-.88.86-2.17 1.2-2.17.6-.33 1.56-1.1 1.8-.94.25.15.24.25.36.38 1.05-.87 3.37-.94 3.73-.86.35.09.41.55.73.62.31.06.65.06.92.26.09.06.81.42 1.17.68Z"/><path fill="#7AAD62" d="M682.44 36.2c.34-.05.69-.1 1.02 0 .32.1.62.39.62.72a.98.98 0 0 1 1 .17.9.9 0 0 1 .24.97c.27.08.55.16.77.33.23.16.39.44.34.7-.02.1-.06.18-.07.28-.01.22.18.4.28.6a.73.73 0 0 1-.41.96c.15.16.3.33.37.54.06.2-.02.47-.23.54-.1.03-.22.03-.27.12-.03.06 0 .14.02.2.11.3.25.62.18.93-.07.3-.46.55-.73.37.17.4-.18.86-.6.99-.42.12-.88.02-1.32-.09-.05.34-.47.5-.82.48-.35-.03-.68-.2-1.03-.27a.44.44 0 0 1 .06-.46c-.1-.08-.25-.17-.37-.1-.08.04-.1.12-.15.2-.16.22-.5.26-.77.14a1.46 1.46 0 0 1-.59-.6c-.26.29-.75.29-1.08.09-.34-.2-.55-.57-.67-.93a.87.87 0 0 1-1.37-.45c-.6.18-1.33-.26-1.44-.87-.18-.13-.44 0-.64.1-.2.12-.4.09-.63.03-.5-.11-.55-.7-.45-.81-.22-.28-1.42-.58-.59-1.53.16-.18.47-.15.7-.23-.09-.21-.18-.44-.19-.67 0-.23.1-.47.3-.58.1-.05.24-.07.31-.17.12-.15-.02-.37-.02-.56 0-.27.27-.45.5-.6.32-.17.75-.78 1.06-.96.36-.21.6 0 .97-.2.17-.1.42-.2.57-.06.2-.27.6-.4.93-.28.09.03.17.08.26.1.22.02.41-.12.62-.16.2-.03.4.03.59.07.51.12 1.05.1 1.57.2.53.1.9.29 1.16.74Z"/><path fill="#5FA646" d="M668.3 36.5c.25-.14.53-.27.81-.27.3 0 .6.19.67.5a.72.72 0 0 1 .86-.1c.27.16.44.51.42.86.23 0 .48 0 .7.1.22.1.41.32.43.58.01.1 0 .2.02.29.04.21.24.33.36.5.22.3.17.8-.1 1.04.15.1.32.22.42.4.1.19.1.46-.05.59-.08.06-.18.1-.2.2 0 .06.03.13.06.19.17.25.35.52.37.83.01.32-.24.66-.5.56.23.34.05.87-.26 1.11-.31.24-.7.27-1.09.3.04.33-.25.6-.55.68-.29.07-.6 0-.9.03a.5.5 0 0 1-.08-.23.5.5 0 0 1 .03-.23c-.11-.05-.25-.1-.33 0-.05.06-.05.15-.07.23-.08.26-.35.4-.59.35-.24-.04-.44-.21-.61-.4a.71.71 0 0 1-.87.38c-.32-.1-.57-.39-.75-.7a.7.7 0 0 1-.62.36.72.72 0 0 1-.6-.41c-.44.33-1.13.11-1.36-.44-.18-.07-.36.12-.5.28-.13.16-.3.2-.5.2-.43.03-.6-.53-.55-.66-.25-.2-1.29-.16-.84-1.3.09-.22.34-.28.51-.41a1.97 1.97 0 0 1-.3-.6c-.07-.21-.05-.47.1-.63.07-.09.18-.14.21-.25.06-.18-.1-.35-.15-.54-.06-.26.11-.5.27-.7.21-.26.42-.97.63-1.23.24-.3.49-.16.73-.46.12-.15.3-.31.45-.22.1-.31.4-.54.69-.52.08 0 .16.02.23.01.18-.03.3-.22.47-.32.15-.08.32-.08.49-.1.44-.02.88-.19 1.32-.24.45-.06.8.02 1.1.39h.01Z"/><path fill="#5FA646" d="M678.83 37.64c.25.17.4.53.32.85.26-.06.54.11.64.39.1.27 0 .62-.22.79.25.19.64.18.77.5.15.36-.23.73-.29 1.13-.04.25.06.5.05.76 0 .26-.2.55-.4.46.16.29.16.69 0 .97a.77.77 0 0 1-.77.4c.02.45-.37.82-.76.87-.39.05-.77-.12-1.13-.3a1.3 1.3 0 0 1-1.6.03c-.27.43-.84.57-1.24.3 0 .29-.16.57-.39.67a.58.58 0 0 1-.69-.19c-.06.27-1.1.63-1.56.53a.7.7 0 0 0-.37 0c-.13.05-.23.17-.36.25a.6.6 0 0 1-.78-.1.85.85 0 0 1-.13-.88c-.33.09-.75.14-.94-.18-.05-.1-.09-.21-.1-.32l-.55-2.8c-.07-.35-.07-.82.22-.93.1-.04.2-.02.3-.07.23-.14.12-.54.12-.84-.02-.88.82-2.2 1.16-2.2.58-.34 1.53-1.14 1.78-.99.25.15.25.25.37.37 1.02-.9 3.35-1.02 3.7-.95.36.08.43.54.75.6.31.05.65.04.93.23.09.06.82.4 1.17.65Z"/></g><mask id="g" width="31" height="7" x="886" y="31" maskUnits="userSpaceOnUse" style="mask-type:luminance"><path fill="#fff" d="M916 31.3h-29.06V38H916v-6.7Z"/></mask><g mask="url(#g)"><path fill="#699A71" d="M903.58 32.88a.83.83 0 0 1 .3.85c.26-.05.54.13.63.4.1.28 0 .63-.23.79.25.2.63.2.76.51.14.38-.25.73-.32 1.13-.04.25.05.5.04.77 0 .25-.2.54-.41.45.16.29.15.68-.02.97a.76.76 0 0 1-.78.38c.02.45-.38.8-.77.84-.39.05-.77-.14-1.13-.32a1.3 1.3 0 0 1-1.6-.02c-.27.42-.85.55-1.24.27 0 .29-.17.57-.4.66a.59.59 0 0 1-.7-.2c-.06.26-1.1.6-1.56.49a.69.69 0 0 0-.37-.02c-.14.05-.24.17-.36.25a.61.61 0 0 1-.78-.12.85.85 0 0 1-.12-.9c-.33.1-.75.13-.93-.2-.06-.1-.08-.2-.1-.32l-.49-2.8c-.06-.36-.06-.83.24-.93.1-.04.2-.02.3-.07.23-.13.13-.53.13-.83 0-.88.87-2.17 1.2-2.17.6-.33 1.56-1.1 1.81-.95.25.16.24.26.36.38 1.04-.87 3.37-.93 3.72-.85.35.09.41.55.73.61.32.07.66.06.93.27.09.06.8.42 1.16.68Z"/><path fill="#7AAD62" d="M910.44 34.75c.34-.05.69-.09 1.02.01.32.1.62.38.62.7a.98.98 0 0 1 1 .19.9.9 0 0 1 .24.96c.27.08.55.16.77.33.23.17.39.44.34.7-.02.1-.06.19-.07.28-.01.22.18.4.28.6a.73.73 0 0 1-.41.96c.15.16.3.33.37.54.06.2-.02.47-.23.54-.1.04-.22.04-.27.13-.03.06 0 .13.02.2.11.3.25.61.18.92-.07.3-.46.56-.73.37.17.4-.18.86-.6.99s-.88.02-1.32-.08c-.05.33-.47.5-.82.47-.35-.03-.68-.2-1.03-.26a.44.44 0 0 1 .06-.46c-.1-.09-.25-.17-.37-.11-.08.04-.1.13-.15.2-.16.22-.5.26-.77.14a1.46 1.46 0 0 1-.59-.59c-.26.28-.75.28-1.08.08-.34-.2-.55-.56-.67-.93a.87.87 0 0 1-1.37-.44c-.6.17-1.33-.27-1.44-.87-.18-.14-.44-.01-.64.1s-.4.08-.63.03c-.5-.12-.55-.71-.45-.82-.22-.28-1.42-.58-.59-1.53.16-.18.47-.15.7-.23-.09-.21-.18-.43-.19-.66 0-.23.1-.48.3-.59.1-.05.24-.07.31-.16.12-.16-.02-.37-.02-.57 0-.27.27-.45.5-.59.32-.18.75-.8 1.06-.97.36-.21.6.01.97-.2.17-.1.42-.2.57-.06.2-.27.6-.39.93-.27.09.03.17.07.26.09.22.03.41-.12.62-.15.2-.03.4.03.59.07.51.11 1.05.1 1.57.2.53.09.9.28 1.16.74Z"/><path fill="#5FA646" d="M894.06 34.13c.26-.13.53-.27.82-.26.29 0 .6.19.67.5a.72.72 0 0 1 .86-.1c.27.15.44.5.41.85.24 0 .48 0 .7.1.22.1.42.32.44.59l.01.28c.04.22.24.34.37.5.22.3.16.81-.11 1.04.16.11.33.23.43.41.1.19.1.46-.06.59-.07.06-.17.1-.2.2 0 .06.03.13.07.18.16.26.35.52.36.84.02.31-.24.66-.5.56.23.34.06.87-.25 1.11-.32.24-.71.27-1.09.29.04.34-.26.61-.55.68-.3.07-.6 0-.9.03a.5.5 0 0 1-.06-.46c-.1-.05-.24-.09-.32 0-.05.07-.06.16-.08.24-.07.26-.35.4-.58.35-.24-.04-.44-.21-.62-.4a.71.71 0 0 1-.86.38c-.32-.1-.58-.4-.76-.71a.71.71 0 0 1-.61.36.72.72 0 0 1-.6-.4c-.45.33-1.14.11-1.37-.44-.18-.08-.36.11-.49.28-.13.16-.3.19-.5.2-.44.03-.61-.53-.56-.66-.25-.2-1.28-.16-.83-1.3.08-.22.34-.28.5-.42a1.95 1.95 0 0 1-.3-.59c-.06-.22-.04-.48.1-.64.08-.08.18-.14.22-.25.05-.18-.1-.35-.15-.53-.06-.26.1-.51.27-.7.2-.27.41-.98.62-1.24.25-.3.5-.15.74-.46.12-.14.3-.3.45-.21.1-.32.39-.54.68-.53.08 0 .16.03.24.02.18-.03.3-.23.46-.32.15-.08.33-.08.5-.1.44-.03.87-.2 1.32-.25.44-.05.8.03 1.1.4Z"/><path fill="#5FA646" d="M906.83 36.2c.25.17.4.53.32.84.25-.05.54.12.63.4.1.27.01.62-.2.78.24.2.63.19.76.5.15.37-.23.73-.3 1.13-.03.25.07.5.06.76 0 .26-.2.56-.4.47.16.28.16.68 0 .97a.77.77 0 0 1-.78.4c.03.45-.36.81-.75.86-.39.05-.77-.12-1.13-.29a1.3 1.3 0 0 1-1.6.02c-.27.43-.84.57-1.24.3 0 .3-.16.57-.4.68a.58.58 0 0 1-.68-.2c-.06.28-1.1.63-1.56.54a.68.68 0 0 0-.37 0c-.14.04-.24.17-.36.25a.61.61 0 0 1-.78-.1.85.85 0 0 1-.13-.89c-.33.1-.75.15-.94-.18-.05-.1-.09-.2-.1-.32l-.55-2.8c-.07-.34-.08-.82.22-.93.1-.03.2-.02.3-.07.23-.13.12-.53.12-.83-.02-.88.82-2.2 1.16-2.2.58-.35 1.53-1.14 1.78-1 .25.15.25.25.37.37 1.02-.9 3.35-1.02 3.7-.94.36.07.43.53.74.59.32.05.66.04.94.24.09.06.82.4 1.17.65Z"/></g><mask id="h" width="40" height="7" x="1068" y="31" maskUnits="userSpaceOnUse" style="mask-type:luminance"><path fill="#fff" d="M1108 31h-40v7h40v-7Z"/></mask><g mask="url(#h)"><path fill="#99B69D" d="M1097.28 34.28c.28.15.45.44.35.7.29-.05.61.1.72.32.11.23-.01.5-.26.64.28.16.73.16.87.41.17.3-.28.6-.36.92-.05.2.06.4.05.62-.01.2-.24.44-.48.36.18.24.17.56-.02.79-.19.23-.56.36-.91.3.02.37-.43.66-.89.7-.45.03-.89-.12-1.3-.27-.55.3-1.32.29-1.86-.02-.31.35-.98.45-1.43.23 0 .23-.2.45-.47.53a.85.85 0 0 1-.79-.17c-.08.22-1.29.48-1.82.4a1.13 1.13 0 0 0-.43-.01c-.15.03-.27.13-.42.2a.93.93 0 0 1-.9-.1c-.23-.18-.29-.5-.13-.72-.38.07-.88.1-1.09-.16-.06-.08-.08-.18-.1-.27l-.57-2.27c-.07-.28-.07-.67.27-.75.11-.03.24-.01.35-.05.27-.11.15-.44.15-.68.01-.71 1.01-1.76 1.4-1.76.68-.27 1.8-.89 2.08-.76.29.12.28.2.42.3 1.2-.7 3.9-.76 4.31-.69.4.07.47.45.84.5.37.05.76.05 1.07.21.1.05.94.34 1.35.55Z"/><path fill="#B4C9AA" d="M1103.14 35.68c.3-.03.6-.07.89.01.29.08.55.3.54.55.29-.1.65-.05.88.14.23.19.32.5.21.75.23.06.48.12.67.25.2.13.34.34.29.55-.01.07-.05.14-.05.21-.01.18.16.32.24.47.14.28-.03.65-.36.75.13.12.27.25.33.41.05.17-.02.37-.2.42-.09.03-.2.03-.24.1-.03.05-.01.1.01.16.1.23.22.48.16.71-.06.24-.4.44-.64.3.15.3-.15.66-.52.76-.37.1-.77.02-1.15-.07-.05.27-.41.4-.72.37-.3-.02-.59-.15-.9-.2-.03-.06-.04-.13-.03-.2a.29.29 0 0 1 .09-.16c-.1-.07-.23-.13-.33-.08-.06.03-.09.1-.13.15-.14.18-.44.2-.67.11-.22-.09-.38-.27-.51-.45-.23.21-.66.21-.95.06-.3-.16-.48-.44-.58-.73a.84.84 0 0 1-1.02-.05.8.8 0 0 1-.19-.29c-.52.13-1.15-.2-1.25-.68-.16-.1-.38 0-.55.08-.18.1-.36.07-.56.03-.43-.1-.48-.56-.39-.64-.2-.22-1.24-.45-.51-1.18.13-.15.4-.12.61-.18a1.42 1.42 0 0 1-.17-.52.42.42 0 0 1 .06-.27.52.52 0 0 1 .2-.18c.1-.05.21-.06.27-.13.11-.12-.01-.29-.01-.44 0-.2.23-.35.44-.46.27-.14.65-.61.92-.75.31-.17.52 0 .84-.16.16-.08.37-.15.5-.04a.8.8 0 0 1 .81-.22c.08.03.15.06.23.07.19.03.36-.09.54-.11.17-.03.34.02.51.05.46.1.93.08 1.38.15.46.08.79.23 1.01.58Z"/><path fill="#7C9788" d="M1085.9 35.32c.22-.1.46-.21.71-.21.24 0 .51.15.57.4.2-.18.5-.21.74-.09.23.13.38.4.35.67.21 0 .42 0 .61.08.18.08.35.25.37.46.01.08-.01.15.01.22.04.17.21.27.32.4.18.23.14.63-.1.81.14.09.28.18.37.32.08.15.08.36-.05.46-.06.05-.15.07-.16.15-.01.06.02.1.05.15.14.2.3.4.31.66.01.24-.21.51-.43.44.2.26.05.68-.22.87-.27.19-.61.2-.93.22.03.27-.22.49-.48.54-.25.05-.51 0-.76.02a.53.53 0 0 1-.08-.17.4.4 0 0 1 .02-.19c-.09-.03-.21-.07-.27 0-.05.05-.05.13-.07.19-.06.2-.3.3-.5.27a1 1 0 0 1-.53-.31c-.13.27-.46.37-.74.3-.28-.08-.5-.3-.65-.56a.6.6 0 0 1-.23.21.58.58 0 0 1-.6-.02.6.6 0 0 1-.21-.22.82.82 0 0 1-1.17-.35c-.16-.06-.31.1-.43.22-.11.13-.26.15-.43.16-.37.02-.52-.41-.48-.52-.21-.16-1.1-.12-.72-1.02.08-.17.3-.21.45-.32a1.43 1.43 0 0 1-.27-.46c-.05-.17-.03-.38.09-.5.06-.07.15-.12.18-.2.05-.14-.09-.28-.13-.42-.05-.2.1-.4.23-.55.18-.2.36-.76.54-.97.21-.24.42-.12.63-.36.1-.11.26-.24.39-.17a.58.58 0 0 1 .23-.3c.1-.07.23-.11.36-.1h.2c.16-.02.26-.17.4-.25.13-.06.28-.06.42-.07.38-.03.75-.16 1.14-.2.38-.04.68.02.95.3Z"/><path fill="#82AC8B" d="M1099.72 37.05c.21.12.33.37.27.59.21-.04.44.08.52.27.08.2.01.44-.17.55.2.14.52.13.63.35.13.26-.19.51-.24.8-.03.17.05.35.05.53-.01.18-.17.38-.34.32a.6.6 0 0 1 0 .68.66.66 0 0 1-.64.28c.02.32-.3.57-.62.6-.32.04-.64-.08-.94-.2-.39.26-.94.27-1.33.02-.22.3-.69.4-1.02.2a.5.5 0 0 1-.63.5.52.52 0 0 1-.26-.15c-.06.18-.92.43-1.3.37a.64.64 0 0 0-.3 0c-.11.03-.2.11-.3.17a.56.56 0 0 1-.64-.07.54.54 0 0 1-.16-.3.53.53 0 0 1 .05-.32c-.28.07-.63.1-.78-.12a.45.45 0 0 1-.08-.23l-.46-1.95c-.05-.25-.06-.58.18-.65.08-.03.17-.02.25-.05.19-.1.1-.38.1-.59-.01-.62.68-1.53.96-1.54.48-.24 1.27-.8 1.48-.7.2.11.2.18.3.27.85-.63 2.77-.72 3.07-.67.29.06.35.38.61.42.26.04.55.03.77.16.07.05.68.29.97.46Z"/></g><mask id="i" width="60" height="7" x="1302" y="31" maskUnits="userSpaceOnUse" style="mask-type:luminance"><path fill="#fff" d="M1362 31h-60v7h60v-7Z"/></mask><g mask="url(#i)"><path fill="#99B69D" d="M1351.28 35.28c.28.15.45.44.35.7.29-.05.61.1.72.32.11.23-.01.5-.26.64.28.16.73.16.87.41.17.3-.28.6-.36.92-.05.2.06.4.05.62-.01.2-.24.44-.48.36.18.24.17.56-.02.79-.19.23-.56.36-.91.3.02.37-.43.66-.89.7-.45.03-.89-.12-1.3-.27-.55.3-1.32.29-1.86-.02-.31.35-.98.45-1.43.23 0 .23-.2.45-.47.53a.85.85 0 0 1-.79-.17c-.08.22-1.29.48-1.82.4a1.13 1.13 0 0 0-.43-.01c-.15.03-.27.13-.42.2a.93.93 0 0 1-.9-.1c-.23-.18-.29-.5-.13-.72-.38.07-.88.1-1.09-.16-.06-.08-.08-.18-.1-.27l-.57-2.27c-.07-.28-.07-.67.27-.75.11-.03.24-.01.35-.05.27-.11.15-.44.15-.68.01-.71 1.01-1.76 1.4-1.76.68-.27 1.8-.89 2.08-.76.29.12.28.2.42.3 1.2-.7 3.9-.76 4.31-.69.4.07.47.45.84.5.37.05.76.05 1.07.21.1.05.94.34 1.35.55Z"/><path fill="#B4C9AA" d="M1357.14 36.68c.3-.03.6-.07.89.01.29.08.55.3.54.55.29-.1.65-.05.88.14.23.19.32.5.21.75.23.06.48.12.67.25.2.13.34.34.29.55-.01.07-.05.14-.05.21-.01.18.16.32.24.47.14.28-.03.65-.36.75.13.12.27.25.33.41.05.17-.02.37-.2.42-.09.03-.2.03-.24.1-.03.05-.01.1.01.16.1.23.22.48.16.71-.06.24-.4.44-.64.3.15.3-.15.66-.52.76-.37.1-.77.02-1.15-.07-.05.27-.41.4-.72.37-.3-.02-.59-.15-.9-.2-.03-.06-.04-.13-.03-.2a.29.29 0 0 1 .09-.16c-.1-.07-.23-.13-.33-.08-.06.03-.09.1-.13.15-.14.18-.44.2-.67.11-.22-.09-.38-.27-.51-.45-.23.21-.66.21-.95.06-.3-.16-.48-.44-.58-.73a.84.84 0 0 1-1.02-.05.8.8 0 0 1-.19-.29c-.52.13-1.15-.2-1.25-.68-.16-.1-.38 0-.55.08-.18.1-.36.07-.56.03-.43-.1-.48-.56-.39-.64-.2-.22-1.24-.45-.51-1.18.13-.15.4-.12.61-.18a1.42 1.42 0 0 1-.17-.52.42.42 0 0 1 .06-.27.52.52 0 0 1 .2-.18c.1-.05.21-.06.27-.13.11-.12-.01-.29-.01-.44 0-.2.23-.35.44-.46.27-.14.65-.61.92-.75.31-.17.52 0 .84-.16.16-.08.37-.15.5-.04a.8.8 0 0 1 .81-.22c.08.03.15.06.23.07.19.03.36-.09.54-.11.17-.03.34.02.51.05.46.1.93.08 1.38.15.46.08.79.23 1.01.58Z"/><path fill="#82AC8B" d="M1353.72 38.05c.21.12.33.37.27.59.21-.04.44.08.52.27.08.2.01.44-.17.55.2.14.52.13.63.35.13.26-.19.51-.24.8-.03.17.05.35.05.53-.01.18-.17.38-.34.32a.6.6 0 0 1 0 .68.66.66 0 0 1-.64.28c.02.32-.3.57-.62.6-.32.04-.64-.08-.94-.2-.39.26-.94.27-1.33.02-.22.3-.69.4-1.02.2a.5.5 0 0 1-.63.5.52.52 0 0 1-.26-.15c-.06.18-.92.43-1.3.37a.64.64 0 0 0-.3 0c-.11.03-.2.11-.3.17a.56.56 0 0 1-.64-.07.54.54 0 0 1-.16-.3.53.53 0 0 1 .05-.32c-.28.07-.63.1-.78-.12a.45.45 0 0 1-.08-.23l-.46-1.95c-.05-.25-.06-.58.18-.65.08-.03.17-.02.25-.05.19-.1.1-.38.1-.59-.01-.62.68-1.53.96-1.54.48-.24 1.27-.8 1.48-.7.2.11.2.18.3.27.85-.63 2.77-.72 3.07-.67.29.06.35.38.61.42.26.04.55.03.77.16.07.05.68.29.97.46Z"/><path fill="#99B69D" d="M1337.28 35.28c.28.15.45.44.35.7.29-.05.61.1.72.32.11.23 0 .5-.26.64.28.16.73.16.87.41.17.3-.28.6-.36.92-.05.2.06.4.05.62-.01.2-.24.44-.48.36.18.24.18.56-.02.79-.19.23-.56.36-.91.3.02.37-.43.66-.89.7-.45.03-.89-.12-1.3-.27-.55.3-1.32.29-1.86-.02-.31.35-.98.45-1.43.23 0 .23-.2.45-.47.53a.85.85 0 0 1-.79-.17c-.08.22-1.29.48-1.82.4a1.13 1.13 0 0 0-.43-.01c-.15.03-.27.13-.42.2a.93.93 0 0 1-.9-.1c-.23-.18-.29-.5-.13-.72-.38.07-.88.1-1.09-.16-.06-.08-.08-.18-.1-.27l-.57-2.27c-.07-.28-.07-.67.27-.75.11-.03.24-.01.35-.05.27-.11.15-.44.15-.68.01-.71 1.01-1.76 1.4-1.76.68-.27 1.8-.89 2.08-.76.29.12.28.2.42.3 1.2-.7 3.9-.76 4.31-.69.4.07.47.45.84.5.37.05.76.05 1.07.21.1.05.94.34 1.35.55Z"/><path fill="#B4C9AA" d="M1310.92 38.07c.29-.04.6-.07.88 0 .29.09.55.3.54.56.29-.1.65-.05.88.14.23.19.32.5.21.74.24.07.48.13.67.26.2.13.34.34.3.55-.02.07-.06.14-.06.21-.01.17.16.31.24.47.15.28-.03.64-.36.75.13.12.27.25.33.41.05.16-.02.37-.2.42-.09.03-.2.03-.24.1-.03.05-.01.1.01.16.1.23.22.47.16.71s-.4.43-.63.3c.14.3-.16.66-.53.76-.37.1-.77.01-1.15-.07-.05.26-.41.4-.71.37-.31-.02-.6-.15-.9-.2a.31.31 0 0 1-.04-.2.29.29 0 0 1 .09-.17c-.1-.06-.22-.12-.33-.07-.06.03-.09.1-.13.15-.14.17-.44.2-.67.11-.22-.1-.38-.27-.51-.46-.23.22-.66.22-.95.06-.3-.15-.48-.43-.58-.72a.84.84 0 0 1-.71.11.7.7 0 0 1-.49-.45c-.53.13-1.16-.21-1.25-.68-.17-.1-.39 0-.56.08-.17.09-.36.07-.56.02-.43-.09-.47-.55-.39-.63-.19-.22-1.24-.45-.51-1.19.13-.14.4-.12.61-.17a1.42 1.42 0 0 1-.17-.52.42.42 0 0 1 .06-.27.52.52 0 0 1 .2-.19c.1-.04.21-.05.28-.13.1-.12-.02-.28-.02-.43 0-.21.23-.35.44-.46.27-.14.65-.62.92-.76.32-.16.52.01.84-.15.16-.08.37-.15.51-.04.17-.22.52-.3.8-.22.08.02.15.06.24.07.18.02.35-.09.53-.12.17-.02.35.03.52.06.45.09.92.08 1.38.15.45.08.78.23 1 .58h.01Z"/><path fill="#7C9788" d="M1316.9 36.32c.22-.1.46-.21.71-.21.24 0 .51.15.57.4.2-.18.5-.21.74-.09.23.13.38.4.35.67.21 0 .42 0 .61.08.18.08.35.25.37.46.01.08-.01.15.01.22.04.17.21.27.32.4.18.23.14.63-.1.81.14.09.28.18.37.32.08.15.08.36-.05.46-.06.05-.15.07-.16.15-.01.06.02.1.05.15.14.2.3.4.31.66.01.24-.21.51-.43.44.2.26.05.68-.22.87-.27.19-.61.2-.93.22.03.27-.22.49-.48.54-.25.05-.51 0-.76.02a.53.53 0 0 1-.08-.17.4.4 0 0 1 .02-.19c-.09-.03-.21-.07-.27 0-.05.05-.05.13-.07.19-.06.2-.3.3-.5.27a1 1 0 0 1-.53-.31c-.13.27-.46.37-.74.3-.28-.08-.5-.3-.65-.56a.6.6 0 0 1-.23.21.58.58 0 0 1-.6-.02.6.6 0 0 1-.21-.22.82.82 0 0 1-1.17-.35c-.16-.06-.31.1-.43.22-.11.13-.26.15-.43.16-.37.02-.52-.41-.48-.52-.21-.16-1.1-.12-.72-1.02.08-.17.3-.21.45-.32a1.43 1.43 0 0 1-.27-.46c-.05-.17-.03-.38.09-.5.06-.07.15-.12.18-.2.05-.14-.09-.28-.13-.42-.05-.2.1-.4.23-.55.18-.2.36-.76.54-.97.21-.24.42-.12.63-.36.1-.11.26-.24.39-.17a.58.58 0 0 1 .23-.3c.1-.07.23-.11.36-.1h.2c.16-.02.26-.17.4-.25.13-.06.28-.06.42-.07.38-.03.75-.16 1.14-.2.38-.04.68.02.95.3Z"/><path fill="#82AC8B" d="M1327.72 37.05c.21.12.33.37.27.59.21-.04.44.08.52.27.08.2.01.44-.17.55.2.14.52.13.63.35.13.26-.19.51-.24.8-.03.17.05.35.05.53-.01.18-.17.38-.34.32a.6.6 0 0 1 0 .68.66.66 0 0 1-.64.28c.02.32-.3.57-.62.6-.32.04-.64-.08-.94-.2-.39.26-.94.27-1.33.02-.22.3-.69.4-1.02.2a.5.5 0 0 1-.63.5.52.52 0 0 1-.26-.15c-.06.18-.92.43-1.3.37a.64.64 0 0 0-.3 0c-.11.03-.2.11-.3.17a.56.56 0 0 1-.64-.07.54.54 0 0 1-.16-.3.53.53 0 0 1 .05-.32c-.28.07-.63.1-.78-.12a.45.45 0 0 1-.08-.23l-.46-1.95c-.05-.25-.06-.58.18-.65.08-.03.17-.02.25-.05.19-.1.1-.38.1-.59-.01-.62.68-1.53.96-1.54.48-.24 1.27-.8 1.48-.7.2.11.2.18.3.27.85-.63 2.77-.72 3.07-.67.29.06.35.38.61.42.26.04.55.03.77.16.07.05.68.29.97.46Z"/><path fill="#7C9788" d="M1339.9 36.32c.22-.1.46-.21.71-.21.24 0 .51.15.57.4.2-.18.5-.21.74-.09.23.13.38.4.35.67.21 0 .42 0 .61.08.18.08.35.25.37.46.01.08-.01.15.01.22.04.17.21.27.32.4.18.23.14.63-.1.81.14.09.28.18.37.32.08.15.08.36-.05.46-.06.05-.15.07-.16.15-.01.06.02.1.05.15.14.2.3.4.31.66.01.24-.21.51-.43.44.2.26.05.68-.22.87-.27.19-.61.2-.93.22.03.27-.22.49-.48.54-.25.05-.51 0-.76.02a.53.53 0 0 1-.08-.17.4.4 0 0 1 .02-.19c-.09-.03-.21-.07-.27 0-.05.05-.05.13-.07.19-.06.2-.3.3-.5.27a1 1 0 0 1-.53-.31c-.13.27-.46.37-.74.3-.28-.08-.5-.3-.65-.56a.6.6 0 0 1-.23.21.58.58 0 0 1-.6-.02.6.6 0 0 1-.21-.22.82.82 0 0 1-1.17-.35c-.16-.06-.31.1-.43.22-.11.13-.26.15-.43.16-.37.02-.52-.41-.48-.52-.21-.16-1.1-.12-.72-1.02.08-.17.3-.21.45-.32a1.43 1.43 0 0 1-.27-.46c-.05-.17-.03-.38.09-.5.06-.07.15-.12.18-.2.05-.14-.09-.28-.13-.42-.05-.2.1-.4.23-.55.18-.2.36-.76.54-.97.21-.24.42-.12.63-.36.1-.11.26-.24.39-.17a.58.58 0 0 1 .23-.3c.1-.07.23-.11.36-.1h.2c.16-.02.26-.17.4-.25.13-.06.28-.06.42-.07.38-.03.75-.16 1.14-.2.38-.04.68.02.95.3Z"/></g><mask id="j" width="40" height="7" x="1219" y="31" maskUnits="userSpaceOnUse" style="mask-type:luminance"><path fill="#fff" d="M1259 31h-40v7h40v-7Z"/></mask><g mask="url(#j)"><path fill="#99B69D" d="M1251.28 36.28c.28.15.45.44.35.7.29-.05.61.1.72.32.11.23-.01.5-.26.64.28.16.73.16.87.41.17.3-.28.6-.36.92-.05.2.06.4.05.62-.01.2-.24.44-.48.36.18.24.17.56-.02.79-.19.23-.56.36-.91.3.02.37-.43.66-.89.7-.45.03-.89-.12-1.3-.27-.55.3-1.32.29-1.86-.02-.31.35-.98.45-1.43.23 0 .23-.2.45-.47.53a.85.85 0 0 1-.79-.17c-.08.22-1.29.48-1.82.4a1.13 1.13 0 0 0-.43-.01c-.15.03-.27.13-.42.2a.93.93 0 0 1-.9-.1c-.23-.18-.29-.5-.13-.72-.38.07-.88.1-1.09-.16-.06-.08-.08-.18-.1-.27l-.57-2.27c-.07-.28-.07-.67.27-.75.11-.03.24-.01.35-.05.27-.11.15-.44.15-.68.01-.71 1.01-1.76 1.4-1.76.68-.27 1.8-.89 2.08-.76.29.12.28.2.42.3 1.2-.7 3.9-.76 4.31-.69.4.07.47.45.84.5.37.05.76.05 1.07.21.1.05.94.34 1.35.55Z"/><path fill="#7C9788" d="M1236.9 35.32c.22-.1.46-.21.71-.21.24 0 .51.15.57.4.2-.18.5-.21.74-.09.23.13.38.4.35.67.21 0 .42 0 .61.08.18.08.35.25.37.46.01.08-.01.15.01.22.04.17.21.27.32.4.18.23.14.63-.1.81.14.09.28.18.37.32.08.15.08.36-.05.46-.06.05-.15.07-.16.15-.01.06.02.1.05.15.14.2.3.4.31.66.01.24-.21.51-.43.44.2.26.05.68-.22.87-.27.19-.61.2-.93.22.03.27-.22.49-.48.54-.25.05-.51 0-.76.02a.53.53 0 0 1-.08-.17.4.4 0 0 1 .02-.19c-.09-.03-.21-.07-.27 0-.05.05-.05.13-.07.19-.06.2-.3.3-.5.27a1 1 0 0 1-.53-.31c-.13.27-.46.37-.74.3-.28-.08-.5-.3-.65-.56a.6.6 0 0 1-.23.21.58.58 0 0 1-.6-.02.6.6 0 0 1-.21-.22.82.82 0 0 1-1.17-.35c-.16-.06-.31.1-.43.22-.11.13-.26.15-.43.16-.37.02-.52-.41-.48-.52-.21-.16-1.1-.12-.72-1.02.08-.17.3-.21.45-.32a1.43 1.43 0 0 1-.27-.46c-.05-.17-.03-.38.09-.5.06-.07.15-.12.18-.2.05-.14-.09-.28-.13-.42-.05-.2.1-.4.23-.55.18-.2.36-.76.54-.97.21-.24.42-.12.63-.36.1-.11.26-.24.39-.17a.58.58 0 0 1 .23-.3c.1-.07.23-.11.36-.1h.2c.16-.02.26-.17.4-.25.13-.06.28-.06.42-.07.38-.03.75-.16 1.14-.2.38-.04.68.02.95.3Z"/><path fill="#82AC8B" d="M1246.72 37.05c.21.12.33.37.27.59.21-.04.44.08.52.27.08.2.01.44-.17.55.2.14.52.13.63.35.13.26-.19.51-.24.8-.03.17.05.35.05.53-.01.18-.17.38-.34.32a.6.6 0 0 1 0 .68.66.66 0 0 1-.64.28c.02.32-.3.57-.62.6-.32.04-.64-.08-.94-.2-.39.26-.94.27-1.33.02-.22.3-.69.4-1.02.2a.5.5 0 0 1-.63.5.52.52 0 0 1-.26-.15c-.06.18-.92.43-1.3.37a.64.64 0 0 0-.3 0c-.11.03-.2.11-.3.17a.56.56 0 0 1-.64-.07.54.54 0 0 1-.16-.3.53.53 0 0 1 .05-.32c-.28.07-.63.1-.78-.12a.45.45 0 0 1-.08-.23l-.46-1.95c-.05-.25-.06-.58.18-.65.08-.03.17-.02.25-.05.19-.1.1-.38.1-.59-.01-.62.68-1.53.96-1.54.48-.24 1.27-.8 1.48-.7.2.11.2.18.3.27.85-.63 2.77-.72 3.07-.67.29.06.35.38.61.42.26.04.55.03.77.16.07.05.68.29.97.46Z"/></g><mask id="k" width="31" height="7" x="273" y="31" maskUnits="userSpaceOnUse" style="mask-type:luminance"><path fill="#fff" d="M304 31h-31v7h31v-7Z"/></mask><g mask="url(#k)"><path fill="#99B69D" d="M292.28 36.28c.28.15.45.44.35.7.3-.05.62.1.72.32.11.23 0 .5-.26.64.28.16.73.16.87.41.17.3-.28.6-.36.92-.05.2.06.4.05.62-.01.2-.24.44-.48.36a.61.61 0 0 1-.02.79c-.2.23-.56.36-.9.3.01.37-.44.66-.9.7-.45.03-.89-.12-1.3-.27-.55.3-1.32.29-1.86-.02-.31.35-.98.45-1.43.23 0 .23-.2.45-.47.53-.28.08-.6.01-.8-.17-.07.22-1.29.48-1.81.4a1.12 1.12 0 0 0-.43-.01c-.15.03-.27.13-.42.2a.94.94 0 0 1-.9-.1c-.23-.18-.29-.5-.13-.72-.38.07-.88.1-1.09-.16a.68.68 0 0 1-.1-.27l-.57-2.27c-.07-.28-.07-.67.27-.75.11-.03.24-.01.34-.05.28-.11.16-.44.16-.68 0-.71 1-1.76 1.4-1.76.68-.27 1.8-.89 2.08-.76.29.12.28.2.42.3 1.2-.7 3.9-.76 4.3-.69.41.07.48.45.85.5.37.05.76.05 1.07.21.1.05.94.34 1.35.55Z"/><path fill="#7C9788" d="M295.9 36.32c.22-.1.46-.21.7-.21.25 0 .52.15.58.4.2-.18.5-.21.74-.09a.72.72 0 0 1 .35.67c.2 0 .42 0 .6.08.2.08.36.25.38.46l.01.22c.04.17.2.27.31.4a.6.6 0 0 1-.09.81 1 1 0 0 1 .37.32c.08.15.08.36-.05.46-.06.05-.15.07-.16.15-.01.06.02.1.05.15.14.2.3.4.3.66.02.24-.2.51-.42.44.2.26.05.68-.22.87-.27.19-.6.2-.93.22.03.27-.22.49-.48.54-.25.05-.5 0-.76.02a.36.36 0 0 1-.08-.17.36.36 0 0 1 .02-.19c-.09-.03-.2-.07-.27 0-.05.05-.05.13-.07.19-.06.2-.3.3-.5.27-.2-.03-.38-.16-.53-.31-.13.27-.46.37-.74.3a1.2 1.2 0 0 1-.65-.56.62.62 0 0 1-.53.29.62.62 0 0 1-.51-.32c-.39.26-.98.09-1.17-.35-.16-.06-.31.1-.43.22-.11.13-.26.15-.43.16-.37.02-.53-.41-.48-.52-.21-.16-1.1-.12-.71-1.02.07-.17.29-.21.44-.32-.11-.14-.22-.3-.27-.46-.05-.17-.03-.38.09-.5.06-.07.15-.12.18-.2.05-.14-.09-.28-.13-.42-.05-.2.1-.4.23-.55.18-.2.36-.76.54-.97.21-.24.42-.12.63-.36.1-.11.26-.24.4-.17a.6.6 0 0 1 .58-.4h.2c.15-.02.26-.17.4-.25.13-.06.28-.06.42-.07.38-.03.75-.16 1.14-.2.38-.04.68.02.95.31Z"/><path fill="#82AC8B" d="M283.72 37.05c.2.12.33.37.27.59a.5.5 0 0 1 .52.27.46.46 0 0 1-.17.55c.2.14.53.13.63.35.13.26-.19.51-.24.8-.03.17.05.35.05.53 0 .18-.17.38-.34.32a.62.62 0 0 1 0 .68.67.67 0 0 1-.64.28c.02.32-.3.57-.62.6a2 2 0 0 1-.94-.2c-.39.26-.94.27-1.33.02-.22.3-.69.4-1.02.2a.51.51 0 0 1-.32.48.54.54 0 0 1-.57-.13c-.06.18-.92.43-1.3.37a.67.67 0 0 0-.3 0c-.11.03-.2.11-.3.17a.58.58 0 0 1-.65-.07.52.52 0 0 1-.1-.62c-.28.07-.63.1-.78-.12a.64.64 0 0 1-.08-.23l-.46-1.95c-.05-.25-.06-.58.18-.65.08-.03.17-.02.25-.05.2-.1.1-.38.1-.59-.01-.62.68-1.53.96-1.54.48-.24 1.27-.8 1.48-.7.2.11.2.18.3.27.85-.63 2.77-.72 3.06-.67.3.06.36.38.62.42.26.04.54.03.77.16.07.05.68.29.97.46Z"/></g><mask id="l" width="31" height="7" x="86" y="31" maskUnits="userSpaceOnUse" style="mask-type:luminance"><path fill="#fff" d="M117 31H86v7h31v-7Z"/></mask><g mask="url(#l)"><path fill="#99B69D" d="M105.28 35.28c.28.15.45.44.35.7.3-.05.62.1.72.32.11.23 0 .5-.26.64.28.16.73.16.87.41.17.3-.28.6-.36.92-.05.2.06.4.05.62-.01.2-.24.44-.48.36a.61.61 0 0 1-.02.79c-.2.23-.57.36-.9.3.01.37-.44.66-.9.7-.45.03-.89-.12-1.3-.27-.55.3-1.32.29-1.86-.02-.31.35-.98.45-1.43.23 0 .23-.2.45-.47.53-.27.08-.6.01-.8-.17-.07.22-1.28.48-1.81.4a1.12 1.12 0 0 0-.43-.01c-.15.03-.27.13-.42.2a.94.94 0 0 1-.9-.1c-.23-.18-.29-.5-.13-.72-.38.07-.88.1-1.08-.16a.67.67 0 0 1-.11-.27l-.57-2.27c-.07-.28-.07-.67.27-.75.11-.03.24-.01.35-.05.27-.11.15-.44.15-.68 0-.71 1-1.76 1.4-1.76.68-.27 1.8-.89 2.08-.76.29.12.28.2.42.3 1.2-.7 3.9-.76 4.3-.69.41.07.48.45.85.5.37.05.76.05 1.07.21.1.05.94.34 1.35.55Z"/><path fill="#7C9788" d="M108.9 36.32c.22-.1.46-.21.7-.21.25 0 .52.15.58.4.2-.18.5-.21.73-.09a.72.72 0 0 1 .37.67c.2 0 .4 0 .6.08.18.08.35.25.37.46l.01.22c.04.17.2.27.31.4a.6.6 0 0 1-.09.81 1 1 0 0 1 .37.32c.08.15.08.36-.05.46-.06.05-.15.07-.16.15-.02.06.02.1.05.15.14.2.3.4.3.66.02.24-.2.51-.42.44.2.26.05.68-.22.87-.27.19-.6.2-.93.22.03.27-.22.49-.48.54-.25.05-.5 0-.76.02a.36.36 0 0 1-.08-.17.36.36 0 0 1 .02-.19c-.09-.03-.2-.07-.27 0-.05.05-.05.13-.07.19-.06.2-.3.3-.5.27-.2-.03-.38-.16-.53-.31-.13.27-.46.37-.74.3a1.2 1.2 0 0 1-.65-.56.62.62 0 0 1-.53.29.62.62 0 0 1-.51-.32c-.39.26-.98.09-1.17-.35-.16-.06-.31.1-.43.22-.11.13-.26.15-.43.16-.37.02-.53-.41-.48-.52-.21-.16-1.1-.12-.72-1.02.08-.17.3-.21.45-.32-.11-.14-.22-.3-.27-.46-.05-.17-.03-.38.09-.5.06-.07.15-.12.18-.2.05-.14-.09-.28-.13-.42-.05-.2.1-.4.23-.55.18-.2.36-.76.54-.97.21-.24.42-.12.63-.36.1-.11.26-.24.4-.17a.6.6 0 0 1 .58-.4h.2c.16-.02.26-.17.4-.25.13-.06.28-.06.42-.07.38-.03.75-.16 1.14-.2.38-.04.68.02.95.31Z"/><path fill="#82AC8B" d="M96.72 37.05c.2.12.33.37.27.59a.49.49 0 0 1 .52.27.46.46 0 0 1-.17.55c.2.14.52.13.63.35.13.26-.19.51-.24.8-.03.17.05.35.05.53 0 .18-.17.38-.34.32a.62.62 0 0 1 0 .68.67.67 0 0 1-.64.28c.02.32-.3.57-.62.6a2 2 0 0 1-.94-.2c-.39.26-.94.27-1.33.02-.22.3-.69.4-1.02.2a.5.5 0 0 1-.63.5.54.54 0 0 1-.26-.15c-.06.18-.92.43-1.3.37a.67.67 0 0 0-.3 0c-.11.03-.2.11-.3.17a.58.58 0 0 1-.64-.07.52.52 0 0 1-.11-.62c-.28.07-.63.1-.78-.12a.65.65 0 0 1-.08-.23l-.46-1.95c-.05-.25-.06-.58.18-.65.08-.03.17-.02.25-.05.2-.1.1-.38.1-.59-.01-.62.68-1.53.96-1.54.48-.24 1.27-.8 1.48-.7.2.11.2.18.3.27.85-.63 2.77-.72 3.06-.67.3.06.36.38.62.42.26.04.55.03.77.16.07.05.68.29.97.46Z"/></g><path fill="#C1CCDC" d="M728.24 22.35h9.58V38h-9.59V22.35Z"/><path fill="#8AABC1" d="M728.95 23.1h.96v1.74h-.96V23.1Zm0 2.36h.96v1.74h-.96v-1.74Zm0 2.36h.96v1.73h-.96v-1.73Zm0 2.36h.96v1.73h-.96v-1.73Zm0 2.36h.96v1.73h-.96v-1.73Zm0 2.35h.96v1.74h-.96V34.9Zm1.44-9.43h.96v1.74h-.96v-1.74Zm0-2.36h.96v1.74h-.96V23.1Zm1.44 2.36h.96v1.74h-.96v-1.74Zm-1.44 2.36h.96v1.73h-.96v-1.73Zm0 2.36h.96v1.73h-.96v-1.73Zm0 2.36h.96v1.73h-.96v-1.73Zm0 2.35h.96v1.74h-.96V34.9Zm2.87-9.43h.96v1.74h-.96v-1.74Zm-1.43-2.36h.96v1.74h-.96V23.1Zm2.87 2.36h.96v1.74h-.96v-1.74Zm-2.87 2.36h.96v1.73h-.96v-1.73Zm0 2.36h.96v1.73h-.96v-1.73Zm0 2.36h.96v1.73h-.96v-1.73Zm0 2.35h.96v1.74h-.96V34.9Zm4.3-9.43h.97v1.74h-.96v-1.74Zm-2.87-2.36h.96v1.74h-.96V23.1Zm0 4.72h.96v1.73h-.96v-1.73Zm0 2.36h.96v1.73h-.96v-1.73Zm0 2.36h.96v1.73h-.96v-1.73Zm0 2.35h.96v1.74h-.96V34.9Zm1.44-11.8h.96v1.75h-.96V23.1Zm0 4.73h.96v1.73h-.96v-1.73Zm0 2.36h.96v1.73h-.96v-1.73Zm0 2.36h.96v1.73h-.96v-1.73Zm0 2.35h.96v1.74h-.96V34.9Zm1.44-11.8h.96v1.75h-.96V23.1Zm0 4.73h.96v1.73h-.96v-1.73Zm0 2.36h.96v1.73h-.96v-1.73Zm0 2.36h.96v1.73h-.96v-1.73Zm0 2.35h.96v1.74h-.96V34.9Z"/><path fill="#C3D2DC" d="M679.18 14.53h14.48V38h-14.48V14.53Z"/><path fill="#D2E5EC" fill-rule="evenodd" d="M680.58 15.77h11.74v1.42h-11.74v-1.42Zm0 2.37h11.74v1.41h-11.74v-1.41Zm11.74 2.36h-11.74v1.42h11.74V20.5Zm-11.74 2.36h11.74v1.42h-11.74v-1.42Zm11.74 2.37h-11.74v1.42h11.74v-1.42Zm-11.74 2.36h11.74v1.42h-11.74V27.6Zm11.74 2.37h-11.74v1.42h11.74v-1.42Zm-11.74 2.36h11.74v1.42h-11.74v-1.42Zm11.74 2.37h-11.74v1.42h11.74v-1.42Z" clip-rule="evenodd"/><path fill="#C2DEE9" fill-rule="evenodd" d="M690.87 20.5h1.43v1.42h-2.26l.83-1.42Zm-2.2 3.78.82-1.42h2.8v1.42h-3.62Zm-1.38 2.37.83-1.42h4.18v1.42h-5ZM685.92 29l.82-1.42h5.56v1.42h-6.38Zm-1.38 2.37.83-1.42h6.93v1.42h-7.76Zm-1.37 2.36.83-1.42h8.3v1.42h-9.13Zm-1.37 2.37.82-1.42h9.68v1.42h-10.5Z" clip-rule="evenodd"/><path fill="#BFD9E2" d="M520.35 25.7h11.18V38h-11.18V25.7Z"/><path fill="#C3D2DC" d="M510.3 17.88h13.4V38h-13.4V17.88Z"/><path fill="#D2E5EC" fill-rule="evenodd" d="M511.59 18.95h10.87v1.21H511.6v-1.21Zm0 2.02h10.87v1.22H511.6v-1.22ZM522.46 23H511.6v1.22h10.87V23Zm-10.87 2.03h10.87v1.21H511.6v-1.21Zm10.87 2.02H511.6v1.22h10.87v-1.22Zm-10.87 2.03h10.87v1.22H511.6v-1.22Zm10.87 2.03H511.6v1.22h10.87V31.1Zm-10.87 2.02h10.87v1.22H511.6v-1.21Zm10.87 2.03H511.6v1.22h10.87v-1.22Z" clip-rule="evenodd"/><path fill="#C2DEE9" fill-rule="evenodd" d="M521.12 23h1.32v1.22h-2.09l.77-1.22Zm-2.04 3.24.76-1.21h2.6v1.21h-3.36Zm-1.27 2.03.76-1.22h3.87v1.22h-4.63Zm-1.28 2.03.77-1.22h5.14v1.22h-5.9Zm-1.27 2.02.76-1.21h6.42v1.21h-7.18Zm-1.27 2.03.76-1.22h7.7v1.22h-8.46Zm-1.28 2.03.77-1.22h8.96v1.22h-9.73Z" clip-rule="evenodd"/><path fill="#C3D2DC" d="M791.94 17.88h6.97v19.68h-6.97V17.88Z"/><path fill="#D2E5EC" fill-rule="evenodd" d="M792.61 18.92h5.65v1.2h-5.65v-1.2Zm0 1.99h5.65v1.19h-5.65v-1.2Zm5.65 1.98h-5.65v1.19h5.65v-1.2Zm-5.65 1.98h5.65v1.2h-5.65v-1.2Zm5.65 1.99h-5.65v1.19h5.65v-1.2Zm-5.65 1.98h5.65v1.19h-5.65v-1.2Zm5.65 1.98h-5.65v1.2h5.65v-1.2Zm-5.65 1.98h5.65V34h-5.65v-1.2Zm5.65 1.99h-5.65v1.19h5.65v-1.2Z" clip-rule="evenodd"/><path fill="#C2DEE9" fill-rule="evenodd" d="M797.57 22.89h.68v1.19h-1.08l.4-1.2Zm-1.06 3.17.4-1.19h1.34v1.2h-1.74Zm-.66 1.98.4-1.19h2v1.2h-2.4Zm-.67 1.99.4-1.2h2.67v1.2h-3.07Zm-.66 1.98.4-1.19h3.33v1.19h-3.73Zm-.66 1.98.4-1.19h4V34h-4.4Zm-.66 1.99.4-1.2h4.65v1.2h-5.05Z" clip-rule="evenodd"/><path fill="#BFD9E2" d="M714.82 25.98h10.06V38h-10.06V25.98Z"/><path fill="#D2E5EC" d="M717.23 35.77h5.25V38h-5.25v-2.23Zm0-.44h5.25v.44h-5.25v-.44Z"/><path fill="#D2E5EC" fill-rule="evenodd" d="M718.12 26.96h-.9v1.07h.9v-1.07Zm-1.43 0h-.89v1.07h.9v-1.07Zm1.96 0h.9v1.07h-.9v-1.07Zm2.31 0h-.89v1.07h.9v-1.07Zm.54 0h.89v1.07h-.9v-1.07Zm2.31 0h-.89v1.07h.9v-1.07Zm-5.7 1.6h-.88v1.07h.89v-1.07Zm-1.42 0h-.89v1.07h.9v-1.07Zm1.96 0h.9v1.07h-.9v-1.07Zm2.31 0h-.89v1.07h.9v-1.07Zm.54 0h.89v1.07h-.9v-1.07Zm2.31 0h-.89v1.07h.9v-1.07Zm-8 1.6h.88v1.07h-.89v-1.06Zm1.42 0h.89v1.07h-.9v-1.06Zm2.31 0h-.89v1.07h.9v-1.06Zm.53 0h.9v1.07h-.9v-1.06Zm2.32 0h-.9v1.07h.9v-1.06Zm.53 0h.9v1.07h-.9v-1.06Zm-6.23 1.6h-.89v1.08h.9v-1.07Zm1.43 0h-.9v1.08h.9v-1.07Zm.53 0h.9v1.08h-.9v-1.07Zm2.31 0h-.89v1.08h.9v-1.07Zm.54 0h.89v1.08h-.9v-1.07Zm2.31 0h-.89v1.08h.9v-1.07Zm-8 1.61h.88v1.07h-.89v-1.07Zm1.42 0h.89v1.07h-.9v-1.07Zm2.31 0h-.89v1.07h.9v-1.07Zm.53 0h.9v1.07h-.9v-1.07Zm2.32 0h-.9v1.07h.9v-1.07Zm.53 0h.9v1.07h-.9v-1.07Z" clip-rule="evenodd"/><path fill="#B1C5CC" d="M910.41 29.06h7.83V38h-7.83v-8.94Z"/><path fill="#9EB3BA" fill-rule="evenodd" d="M911.86 29.79h-.69v.96h.7v-.96Zm1.11 0h-.7v.96h.7v-.96Zm.42 0h.69v.96h-.7v-.96Zm1.8 0h-.7v.96h.7v-.96Zm.41 0h.7v.96h-.7v-.96Zm1.8 0h-.7v.96h.7v-.96Zm-5.54 1.44h-.69v.97h.7v-.97Zm1.11 0h-.7v.97h.7v-.97Zm.42 0h.69v.97h-.7v-.97Zm1.8 0h-.7v.97h.7v-.97Zm.41 0h.7v.97h-.7v-.97Zm1.8 0h-.7v.97h.7v-.97Zm-6.23 1.45h.7v.97h-.7v-.97Zm1.1 0h.7v.97h-.7v-.97Zm1.8 0h-.68v.97h.69v-.97Zm.42 0h.7v.97h-.7v-.97Zm1.8 0h-.69v.97h.7v-.97Zm.42 0h.7v.97h-.7v-.97Zm-4.85 1.45h-.69v.96h.7v-.96Zm1.11 0h-.7v.96h.7v-.96Zm.42 0h.69v.96h-.7v-.96Zm1.8 0h-.7v.96h.7v-.96Zm.41 0h.7v.96h-.7v-.96Zm1.8 0h-.7v.96h.7v-.96Zm-6.23 1.45h.7v.96h-.7v-.96Zm1.1 0h.7v.96h-.7v-.96Zm1.8 0h-.68v.96h.69v-.96Zm.42 0h.7v.96h-.7v-.96Zm1.8 0h-.69v.96h.7v-.96Zm.42 0h.7v.96h-.7v-.96Z" clip-rule="evenodd"/><path fill="#B1C5CC" d="M646.65 19h7.82v19h-7.82V19Z"/><path fill="#BFD9E2" d="M647.76 20.12H650v2.23h-2.24v-2.23Zm3.36 0h2.23v2.23h-2.23v-2.23Zm-3.36 3.35H650v2.23h-2.24v-2.23Zm3.36 0h2.23v2.23h-2.23v-2.23Zm-3.36 3.35H650v2.24h-2.24v-2.24Zm3.36 0h2.23v2.24h-2.23v-2.24Zm-3.36 3.36H650v2.23h-2.24v-2.23Zm3.36 0h2.23v2.23h-2.23v-2.23Zm-3.36 3.35H650v2.23h-2.24v-2.23Zm3.36 0h2.23v2.23h-2.23v-2.23Z"/><path fill="#97ACC4" d="M823.24 19h7.82v19h-7.82V19Z"/><path fill="#BFD9E2" d="M824.35 20.12h2.24v2.23h-2.24v-2.23Zm3.36 0h2.23v2.23h-2.23v-2.23Zm-3.36 3.35h2.24v2.23h-2.24v-2.23Zm3.36 0h2.23v2.23h-2.23v-2.23Zm-3.36 3.35h2.24v2.24h-2.24v-2.24Zm3.36 0h2.23v2.24h-2.23v-2.24Zm-3.36 3.36h2.24v2.23h-2.24v-2.23Zm3.36 0h2.23v2.23h-2.23v-2.23Zm-3.36 3.35h2.24v2.23h-2.24v-2.23Zm3.36 0h2.23v2.23h-2.23v-2.23Z"/><path fill="#B1C5CC" d="M540.47 27.94h8.2V38h-8.2V27.94Z"/><path fill="#BFD9E2" d="M543.36 29.72h1.69v1.65h-1.69v-1.65Zm2.53 0h1.7v1.65h-1.7v-1.65Zm-2.53 2.48h1.69v1.66h-1.69V32.2Zm2.53 0h1.7v1.66h-1.7V32.2Zm-2.53 2.49h1.69v1.65h-1.69V34.7Zm2.53 0h1.7v1.65h-1.7V34.7Z"/><path fill="#B1C5CC" d="M537.12 24.59h5.9v13.4h-5.9V24.6Z"/><path fill="#BFD9E2" d="M537.96 25.38h1.7v1.57h-1.7v-1.57Zm2.53 0h1.7v1.57h-1.7v-1.57Zm-2.53 2.36h1.7v1.58h-1.7v-1.58Zm2.53 0h1.7v1.58h-1.7v-1.58Zm-2.53 2.37h1.7v1.58h-1.7V30.1Zm2.53 0h1.7v1.58h-1.7V30.1Zm-2.53 2.37h1.7v1.58h-1.7v-1.58Zm2.53 0h1.7v1.58h-1.7v-1.58Zm-2.53 2.36h1.7v1.58h-1.7v-1.58Zm2.53 0h1.7v1.58h-1.7v-1.58Z"/><path fill="#B1C5CC" d="M758.41 24.59h5.91v13.4h-5.9V24.6Z"/><path fill="#BFD9E2" d="M759.26 25.38h1.69v1.57h-1.7v-1.57Zm2.53 0h1.69v1.57h-1.7v-1.57Zm-2.53 2.36h1.69v1.58h-1.7v-1.58Zm2.53 0h1.69v1.58h-1.7v-1.58Zm-2.53 2.37h1.69v1.58h-1.7V30.1Zm2.53 0h1.69v1.58h-1.7V30.1Zm-2.53 2.37h1.69v1.58h-1.7v-1.58Zm2.53 0h1.69v1.58h-1.7v-1.58Zm-2.53 2.36h1.69v1.58h-1.7v-1.58Zm2.53 0h1.69v1.58h-1.7v-1.58Z"/><path fill="#A4BFD1" d="M621.25 2.24h2.15v8.57h2.14V38h-14.66V10.8h1.93V2.25h8.44Z"/><path fill="#8AABC1" d="M621.16 12.1h-.99V38h.99V12.1Zm-2.46 0h-.98V38h.98V12.1Zm-2.46 0h-.98V38h.99V12.1Zm1.27-8.58h-.99v6.97h.99V3.52Zm2.39 0h-.98v6.97h.98V3.52Zm-4.82 5.1h-1.29v1.3h1.29v-1.3Zm0-2.7h-1.29v1.3h1.29v-1.3Zm0-2.68h-1.29v1.3h1.29v-1.3Zm7.56 5.37h-1.3v1.3h1.3v-1.3Zm0-2.68h-1.3v1.3h1.3v-1.3Zm0-2.7h-1.3v1.3h1.3v-1.3Zm-8.86 31.8h-1.37v1.39h1.37v-1.39Zm0-2.87h-1.37v1.4h1.37v-1.4Zm0-2.86h-1.37v1.38h1.37V29.3Zm0-2.87h-1.37v1.39h1.37v-1.39Zm0-2.87h-1.37v1.39h1.37v-1.39Zm0-2.86h-1.37v1.38h1.37V20.7Zm0-2.87h-1.37v1.39h1.37v-1.39Zm0-2.87h-1.37v1.39h1.37v-1.39Zm0-2.87h-1.37v1.4h1.37v-1.4Zm10.24 22.94h-1.38v1.39h1.38v-1.39Zm0-2.87h-1.38v1.4h1.38v-1.4Zm0-2.86h-1.38v1.38h1.38V29.3Zm0-2.87h-1.38v1.39h1.38v-1.39Zm0-2.87h-1.38v1.39h1.38v-1.39Zm0-2.86h-1.38v1.38h1.38V20.7Zm0-2.87h-1.38v1.39h1.38v-1.39Zm0-2.87h-1.38v1.39h1.38v-1.39Zm0-2.87h-1.38v1.4h1.38v-1.4Z"/><path fill="#97BAD1" d="M625.54 10.81h-14.66v.35h14.66v-.35Zm-2.13-8.47h-10.6v.35h10.6v-.35Z"/><path fill="#B1C5CC" d="M819.44 14.59H807.6V38h11.85V14.59Z"/><path fill="#98A9B0" fill-rule="evenodd" d="M816.37 15.59h1.53v16.48h-1.53V15.59Zm-2.47 0h1.54v16.48h-1.54V15.59Zm-.77 0h-1.54v16.48h1.54V15.59Zm-4 0h1.54v16.48h-1.54V15.59Zm8.77 17.08h-8.77v1h8.77v-1Zm-8.77 1.61h8.77v1h-8.77v-1Z" clip-rule="evenodd"/><path fill="#C3D2DC" d="M921.59 17.88h17.88V38h-17.88V17.88Z"/><path fill="#D2E5EC" fill-rule="evenodd" d="M923.31 18.95h14.5v1.21h-14.5v-1.21Zm0 2.02h14.5v1.22h-14.5v-1.22Zm14.5 2.03h-14.5v1.22h14.5V23Zm-14.5 2.03h14.5v1.21h-14.5v-1.21Zm14.5 2.02h-14.5v1.22h14.5v-1.22Zm-14.5 2.03h14.5v1.22h-14.5v-1.22Zm14.5 2.03h-14.5v1.22h14.5V31.1Zm-14.5 2.03h14.5v1.21h-14.5v-1.21Zm14.5 2.02h-14.5v1.22h14.5v-1.22Z" clip-rule="evenodd"/><path fill="#C2DEE9" fill-rule="evenodd" d="M936.02 23h1.77v1.22H935l1.02-1.22Zm-2.71 3.24 1.02-1.21h3.46v1.21h-4.48Zm-1.7 2.03 1.02-1.22h5.16v1.22h-6.18Zm-1.7 2.03 1.02-1.22h6.86v1.22h-7.88Zm-1.7 2.02 1.02-1.21h8.56v1.21h-9.58Zm-1.7 2.03 1.02-1.22h10.26v1.22h-11.27Zm-1.7 2.03 1.03-1.22h11.95v1.22h-12.97Z" clip-rule="evenodd"/></g></g><defs><clipPath id="a"><path fill="#fff" d="M0 0h1440v38H0z"/></clipPath></defs></svg>