<svg width="20" height="20" fill="none" xmlns="http://www.w3.org/2000/svg"><path fill-rule="evenodd" clip-rule="evenodd" d="M5 9.167h2.667a1.5 1.5 0 0 0 1.5-1.5V5a1.5 1.5 0 0 0-1.5-1.5H5A1.5 1.5 0 0 0 3.5 5v2.667a1.5 1.5 0 0 0 1.5 1.5ZM5 16.5h2.667a1.5 1.5 0 0 0 1.5-1.5v-2.667a1.5 1.5 0 0 0-1.5-1.5H5a1.5 1.5 0 0 0-1.5 1.5V15A1.5 1.5 0 0 0 5 16.5Zm10-7.333h-2.667a1.5 1.5 0 0 1-1.5-1.5V5a1.5 1.5 0 0 1 1.5-1.5H15A1.5 1.5 0 0 1 16.5 5v2.667a1.5 1.5 0 0 1-1.5 1.5ZM12.333 16.5H15a1.5 1.5 0 0 0 1.5-1.5v-2.667a1.5 1.5 0 0 0-1.5-1.5h-2.667a1.5 1.5 0 0 0-1.5 1.5V15a1.5 1.5 0 0 0 1.5 1.5Z" fill="#F7723E"/></svg>