<svg viewBox="0 0 36 36" xmlns="http://www.w3.org/2000/svg"><path clip-rule="evenodd" d="M18 36C8.059 36 0 27.941 0 18S8.059 0 18 0s18 8.059 18 18-8.059 18-18 18z" fill="#faf4ed" fill-rule="evenodd"/><path d="M18.183 27.334c4.161 0 8.535 2.426 9.726 5.686A17.91 17.91 0 0118 36c-3.1 0-6.017-.784-8.564-2.165.539-3.663 4.245-6.501 8.747-6.501z" fill="#e9e5e4"/><path d="M9.104 15.701c0-4.4 2.954-8.103 6.985-9.254 1.654-.536 3.636-.537 5.29 0 4.031 1.15 6.985 4.854 6.985 9.254 0 4.34-2.873 8.001-6.819 9.204v3.054a8.796 8.796 0 01-6.728 0v-3.472c-3.362-1.5-5.713-4.864-5.713-8.786z" fill="#edc7b2"/><path d="M19.967 6.155c-2.911-.406-5.956.657-8.032 2.726a9.668 9.668 0 00-1.652 2.202c-.961 1.755-1.365 3.832-1.095 5.819.005.039.009.078.015.116a9.586 9.586 0 001.861 4.479l4.111-1.873a37.549 37.549 0 006.219-8.901l6.392 1.714a9.637 9.637 0 00-7.819-6.282z" fill="#644b44"/><path d="M15.924 19.709a2.093 2.093 0 110-4.186 2.093 2.093 0 010 4.186z" fill="#edc7b2"/><path d="M25.463 16.959a.449.449 0 11.001-.897.449.449 0 01-.001.897z" fill="#644b44" stroke="#644b44" stroke-miterlimit="10" stroke-width=".2"/></svg>