<svg width="308" height="99" fill="none" xmlns="http://www.w3.org/2000/svg"><path d="M281.148 63.98v12.8l-37.073 20.14v-12.8l37.073-20.14z" fill="#fff"/><path d="M281.148 63.98v4.475l-37.073 20.14v-4.476l37.073-20.14z" fill="#E9E5E4"/><path d="M244.075 96.92l-58.313-31.777v-12.8l58.313 31.776v12.8z" fill="#D07E63"/><path d="M282.95 64.606v-1.611l-37.358 20.408v-.09l-1.517.806v12.8l1.517-.805 37.358-20.32v-1.7l-37.358 20.409v-9.489l37.358-20.408z" fill="#C76646"/><path d="M244.075 84.209l-58.313-31.866 38.875-21.125 58.313 31.777-38.875 21.214zM282.95 74.094l-1.422-.805h-.095l-.285-.18v.717l-35.556 19.423V94.502l35.556-19.334 1.802-1.074z" fill="#DA9984"/><path d="M251.66 84.298L186.615 56.55l32.428-23.005 64.95 27.66-32.333 23.093z" fill="#66A7D2"/><path d="M283.993 49.747v-1.61L251.66 71.14v13.158l32.333-23.093v-1.612l-30.911 22.2v-9.847l30.911-22.199z" fill="#A39C99"/><path d="M186.615 43.481l65.045 27.66v13.157L186.615 56.55V43.481z" fill="#BBB3AF"/><path d="M253.082 71.946l29.015-20.856v8.414l-29.015 20.945v-8.503z" fill="#fff"/><path d="M283.993 59.593l-1.896-.806v.717l-29.015 20.945v1.343l30.911-22.199z" fill="#BBB3AF"/><path d="M253.082 71.946l29.015-20.856v3.67l-29.015 20.856v-3.67z" fill="#E9E5E4"/><path d="M251.66 71.14l-65.045-27.659 32.428-23.093 64.95 27.659L251.66 71.14z" fill="#D1C3BC"/><path d="M284.467 37.395v12.8l-36.979 20.229v-12.8l36.979-20.23z" fill="#fff"/><path d="M284.467 37.395v4.475L247.488 62.1v-4.476l36.979-20.23z" fill="#E9E5E4"/><path d="M247.488 70.424l-58.313-31.776v-12.89l58.313 31.866v12.8z" fill="#DA9984"/><path d="M286.363 38.02v-1.61L248.91 56.818l-1.422.806v12.799l1.422-.805 37.453-20.408v-1.611L248.91 68.007v-9.578l37.453-20.408z" fill="#D07E63"/><path d="M247.488 57.624l-58.313-31.866L228.05 4.634l58.313 31.776-38.875 21.214zM286.363 47.599l-1.517-.806-.379-.179v.716L248.91 66.664v1.343l35.557-19.424 1.896-.984z" fill="#EDC7B2"/><path d="M249.479 25.758c-.095 0-.095 0 0 0l-11.852-4.296c.474-.269.948-.448 1.233-.627l-.664-.627c-1.328.627-4.362 2.06-7.491 3.85-.379-.27-.853-.359-1.422-.448-.569-.09-1.233 0-1.707.268-.474.269-.663.627-.663 1.075 0 .358.189.716.474.984-3.035 1.79-5.595 3.67-6.732 4.386l.853.537c.284-.179.569-.447 1.043-.716l4.551 8.504c2.276.984 5.12 1.074 7.017-.09 1.896-1.074 2.275-3.043 1.138-4.654l-11.948-4.386c1.328-.896 2.94-1.97 4.836-3.044.379.18.664.269 1.043.269.379 0 .854 0 1.233-.09l12.895 10.115c-.284.179-.569.358-.853.447-.285.18-.569.269-.569.269l-.19.269.285.268s.379.358.569.806c.094.179.189.447.189.626 0 .18-.095.448-.284.537l-.285.269 1.612 1.253 7.301-4.297-.379-.179-1.233-.984-.379.09c-.285.089-.569.089-.948.089-.285 0-.474-.09-.759-.18-.379-.089-.664-.268-.948-.357-.095-.09-.19-.09-.284-.18h-.095l-.379-.268-.19.358s-.569.358-1.328.806l-12.895-10.204c.19-.269.379-.537.379-.806 0-.268-.094-.537-.284-.716a123.767 123.767 0 015.215-2.775l4.646 8.593c2.276.985 5.12 1.074 7.017-.09 1.991-.984 2.37-2.953 1.232-4.654zM233.55 38.2c-1.233.716-3.034.895-4.741.448l6.163-3.58c.379 1.163-.19 2.416-1.422 3.132zm1.043-3.76l-6.732 3.94-4.267-7.878 10.999 3.939zm11.378 1.88c.19.09.569.269.948.358.379.09.853.269 1.328.269h1.137l.19.179-5.784 3.401-.189-.179c.189-.268.189-.447.189-.716 0-.268-.095-.447-.189-.716a1.708 1.708 0 00-.475-.805v-.09c.095 0 .095-.09.19-.09.285-.178.759-.447 1.233-.715l1.422-.896zm-15.455-11.189v.18c0 .179-.095.447-.38.537-.284.179-.569.179-.853.179h-.19a4.749 4.749 0 01-.663-.269c-.095-.09-.19-.179-.19-.268-.095-.09-.095-.269-.095-.448s.095-.448.379-.537c.285-.18.569-.18.854-.18.189 0 .379.09.569.18.095.09.189.09.284.179.095.179.19.358.285.447zm17.162 4.834c-1.233.716-3.034.895-4.741.448l6.163-3.58c.284 1.252-.19 2.416-1.422 3.132zm-5.689.09l-4.267-7.877 10.999 4.028-6.732 3.849z" fill="#F0EBE9"/><path d="M183.522.499h-39.579c-4.664 0-8.435 3.564-8.435 7.972v81.6c0 4.408 3.771 7.972 8.435 7.972h39.551c4.665 0 8.435-3.564 8.435-7.973V8.471c0-4.408-3.77-7.972-8.407-7.972z" fill="#E9E5E4"/><path d="M137.941 8.235V90.15c0 .502.084.977.196 1.426h51.17a5.91 5.91 0 00.195-1.426V8.235v-.053h-51.561v.053z" fill="#fff"/><path d="M183.442 2.478h-39.383c-3.352 0-6.089 2.587-6.089 5.755v1.874h51.589V8.233c-.028-3.168-2.765-5.755-6.117-5.755zM137.941 89.726v.449c0 3.168 2.737 5.755 6.089 5.755h39.383c3.352 0 6.089-2.587 6.089-5.755v-.449h-51.561z" fill="#fff"/><path d="M173.528 5.78h-19.412c-2.486 0-4.497-1.901-4.497-4.25v-.053h28.406v.052c0 2.35-2.011 4.25-4.497 4.25z" fill="#E9E5E4"/><path d="M169.672 3.031h-11.2c-.112 0-.196-.079-.196-.184 0-.106.084-.185.196-.185h11.2c.112 0 .196.079.196.185 0 .105-.084.184-.196.184z" fill="#fff"/><path d="M166.328 42.57h-23.901v2.457h23.901v-2.458zM185.284 37.199h-42.958v2.457h42.958V37.2zM185.212 31.828h-42.959v2.457h42.959v-2.457zM185.104 26.457h-42.959v2.458h42.959v-2.458zM185.104 21.087h-42.959v2.457h42.959v-2.457zM185.104 15.716h-42.959v2.458h42.959v-2.458zM166.328 80.282h-23.901v2.458h23.901v-2.457zM177.425 56.89h-23.901v2.458h23.901v-2.457zM185.285 75.468h-42.959v2.457h42.959v-2.457zM185.212 70.652h-42.959v2.458h42.959v-2.458zM185.104 65.842h-42.959v2.457h42.959v-2.457z" fill="#F0EBE9"/><path d="M146.308 62.075c2.3 0 4.163-1.762 4.163-3.935s-1.863-3.935-4.163-3.935c-2.299 0-4.163 1.762-4.163 3.935s1.864 3.935 4.163 3.935z" fill="#FAF4ED"/><mask id="a" maskUnits="userSpaceOnUse" x="142" y="54" width="9" height="9"><path d="M146.308 62.075c2.3 0 4.163-1.762 4.163-3.935s-1.863-3.935-4.163-3.935c-2.299 0-4.163 1.762-4.163 3.935s1.864 3.935 4.163 3.935z" fill="#FAF4ED"/></mask><g mask="url(#a)"><path d="M146.309 62.016c1.736 0 3.143-.698 3.143-1.558 0-.861-1.407-1.559-3.143-1.559-1.736 0-3.143.698-3.143 1.559 0 .86 1.407 1.558 3.143 1.558z" fill="#716C6B"/><path d="M148.359 66.828c0 .127-.917.224-2.051.224-1.133 0-2.05-.097-2.05-.224v-6.145c0-.127.917-.224 2.05-.224 1.134 0 2.051.097 2.051.224v6.145z" fill="#716C6B"/><path d="M146.306 57.505c.347 0 .629-.266.629-.594 0-.328-.282-.593-.629-.593-.347 0-.628.265-.628.593 0 .328.281.594.628.594zM146.308 58.472a.15.15 0 00.155-.146.15.15 0 00-.155-.147.15.15 0 00-.154.147c0 .08.069.146.154.146z" fill="#EDC7B2"/><path d="M146.308 58.755a.15.15 0 00.155-.147.15.15 0 00-.155-.146.15.15 0 00-.154.146c0 .081.069.147.154.147z" fill="#EDC7B2"/><path d="M146.308 59.046a.15.15 0 00.155-.146.15.15 0 00-.155-.147.15.15 0 00-.154.147c0 .08.069.146.154.146zM146.308 55.355a.15.15 0 00.155-.146.15.15 0 00-.155-.147.15.15 0 00-.154.147c0 .08.069.146.154.146zM147.563 57.284a.381.381 0 00.392-.37.381.381 0 00-.392-.37.381.381 0 00-.391.37c0 .204.175.37.391.37zM145.063 57.284a.381.381 0 00.391-.37.381.381 0 00-.391-.37.381.381 0 00-.392.37c0 .204.175.37.392.37z" fill="#EDC7B2"/><path d="M147.864 57.485a.382.382 0 00.392-.37.382.382 0 00-.392-.371.382.382 0 00-.392.37c0 .205.176.37.392.37z" fill="#EDC7B2"/><path d="M147.721 57.137a.23.23 0 00.237-.224.23.23 0 00-.237-.224.23.23 0 00-.237.224.23.23 0 00.237.224z" fill="#EDC7B2"/><path d="M146.308 58.471c.911 0 1.649-.697 1.649-1.558 0-.86-.738-1.558-1.649-1.558-.91 0-1.648.697-1.648 1.558 0 .86.738 1.558 1.648 1.558z" fill="#EDC7B2"/><path d="M146.308 58.18c.911 0 1.649-.699 1.649-1.56 0-.86-.738-1.557-1.649-1.557-.91 0-1.648.697-1.648 1.558 0 .86.738 1.558 1.648 1.558z" fill="#EDC7B2"/><path d="M147.017 56.992a.08.08 0 00.083-.079.08.08 0 00-.083-.078.08.08 0 00-.082.078.08.08 0 00.082.079zM145.597 56.992a.08.08 0 00.083-.079.08.08 0 00-.083-.078.08.08 0 00-.082.078.08.08 0 00.082.079z" fill="#644B44" stroke="#644B44" stroke-width=".2" stroke-miterlimit="10"/><path d="M144.762 57.479a.381.381 0 00.391-.37.381.381 0 00-.391-.371.382.382 0 00-.392.37c0 .205.176.371.392.371z" fill="#EDC7B2"/><path d="M144.908 57.137a.23.23 0 00.237-.224.23.23 0 00-.237-.224.23.23 0 00-.237.224.23.23 0 00.237.224z" fill="#EDC7B2"/><path d="M147.957 56.688v-.068c0-.857-.742-1.557-1.649-1.557-.536 0-.999.243-1.309.613l2.958 1.012z" fill="#644B44"/><path d="M146.979 55.2l.927 1.051a1.565 1.565 0 00-.927-1.051zm-2.308 1.42v.04l1.968-1.558a1.814 1.814 0 00-.33-.029c-.907-.01-1.638.691-1.638 1.548z" fill="#644B44"/><path d="M146.938 59.056c0 .331-.278.594-.628.594-.351 0-.629-.263-.629-.594v-.964c0-.331.278-.594.629-.594.35 0 .628.263.628.594v.964z" fill="#EDC7B2"/><path d="M144.637 60.711c.031-.321-.433-.808-.773-.837-.34-.03-.649.214-.68.535l-.505 3.526c-.031.321.227.613.567.643.34.029.649-.215.68-.536l.711-3.33zM147.987 60.712c-.03-.322.433-.809.773-.838.34-.03.65.214.68.536l.505 3.525c.031.322-.226.614-.566.643-.34.03-.65-.214-.681-.536l-.711-3.33z" fill="#716C6B"/><path d="M145.691 58.754l.619.292v2.678l-1-2.737.268-.058.113-.175zM146.939 58.754l-.629.292v2.678l1.01-2.737-.278-.058-.103-.175z" fill="#fff"/><path d="M146.308 59.134l-.289.33.104.254-.134 1.11.319.896M146.31 59.133l.31.331-.093.254.113 1.11-.33.896" fill="#7F5640"/><path d="M147.505 60.001a.08.08 0 00.083-.078.08.08 0 00-.083-.079.08.08 0 00-.082.079.08.08 0 00.082.078z" fill="#BAA371"/></g><path d="M4.826 93.811c.598 0 1.083-.458 1.083-1.023 0-.564-.485-1.022-1.083-1.022s-1.084.458-1.084 1.022c0 .565.486 1.023 1.084 1.023zM3.887 75.163v9.068H6.09l1.12-8.011-3.323-1.057z" fill="#EDC7B2"/><path d="M3.887 84.231l-.18 8.558h2.202l.18-8.558" fill="#EDC7B2"/><path d="M4.826 93.811c.598 0 1.083-.458 1.083-1.022 0-.565-.485-1.023-1.083-1.023s-1.084.458-1.084 1.023c0 .564.486 1.022 1.084 1.022zM9.557 93.811c.598 0 1.083-.458 1.083-1.023 0-.564-.485-1.022-1.083-1.022s-1.084.458-1.084 1.022c0 .565.486 1.023 1.084 1.023zM10.496 75.163v9.068H8.293L7.209 76.22l3.287-1.057z" fill="#EDC7B2"/><path d="M10.496 84.231l.18 8.558H8.473l-.18-8.558" fill="#EDC7B2"/><path d="M9.557 93.811c.598 0 1.083-.458 1.083-1.022 0-.565-.485-1.023-1.083-1.023s-1.084.458-1.084 1.023c0 .564.486 1.022 1.084 1.022zM5.006 85.254c.599 0 1.084-.458 1.084-1.023s-.485-1.022-1.084-1.022c-.598 0-1.083.457-1.083 1.022s.485 1.023 1.083 1.023zM9.376 85.254c.599 0 1.084-.458 1.084-1.023s-.485-1.022-1.084-1.022c-.598 0-1.083.457-1.083 1.022s.485 1.023 1.083 1.023z" fill="#EDC7B2"/><path d="M7.39 76.22L5.91 92.788H3.705V75.162l3.684 1.056z" fill="#fff"/><path d="M7.029 76.22l1.444 16.569h2.203V75.162L7.03 76.219z" fill="#fff"/><path d="M7.21 67.424c3.031 0 5.489-1.222 5.489-2.728 0-1.506-2.458-2.727-5.49-2.727-3.031 0-5.489 1.22-5.489 2.727 0 1.506 2.458 2.728 5.49 2.728z" fill="#D3CFCD"/><path d="M10.785 75.81c0 .205-1.625.41-3.576.41-1.95 0-3.575-.17-3.575-.41V65.071c0-.204 1.625-.409 3.575-.409 1.95 0 3.576.17 3.576.41V75.81z" fill="#D3CFCD"/><path d="M7.21 59.48c.598 0 1.083-.458 1.083-1.023s-.485-1.023-1.084-1.023c-.598 0-1.083.458-1.083 1.023s.485 1.023 1.083 1.023zM7.21 61.185c.14 0 .252-.107.252-.239a.246.246 0 00-.253-.239.246.246 0 00-.252.239c0 .132.113.239.252.239zM7.21 61.696c.14 0 .252-.107.252-.239a.246.246 0 00-.253-.238.246.246 0 00-.252.238c0 .132.113.24.252.24zM7.21 62.208c.14 0 .252-.107.252-.24a.246.246 0 00-.253-.238.246.246 0 00-.252.239c0 .132.113.239.252.239zM7.21 55.73c.14 0 .252-.107.252-.239a.246.246 0 00-.253-.239.246.246 0 00-.252.24c0 .131.113.238.252.238zM9.376 59.104c.38 0 .687-.29.687-.647 0-.358-.308-.648-.687-.648-.379 0-.686.29-.686.648 0 .357.307.647.686.647zM5.007 59.104c.378 0 .686-.29.686-.647 0-.358-.308-.648-.686-.648-.38 0-.687.29-.687.648 0 .357.308.647.687.647z" fill="#EDC7B2"/><path d="M9.918 59.446c.379 0 .686-.29.686-.647 0-.358-.307-.648-.686-.648-.379 0-.686.29-.686.648 0 .357.307.647.686.647z" fill="#EDC7B2"/><path d="M9.665 58.867c.24 0 .434-.183.434-.41a.422.422 0 00-.434-.409.422.422 0 00-.433.41c0 .226.194.41.433.41z" fill="#EDC7B2"/><path d="M7.21 61.185c1.595 0 2.889-1.221 2.889-2.728 0-1.506-1.294-2.727-2.89-2.727-1.595 0-2.889 1.221-2.889 2.727 0 1.507 1.294 2.728 2.89 2.728z" fill="#EDC7B2"/><path d="M7.21 60.707c1.595 0 2.889-1.22 2.889-2.727 0-1.506-1.294-2.728-2.89-2.728-1.595 0-2.889 1.221-2.889 2.728 0 1.506 1.294 2.727 2.89 2.727z" fill="#EDC7B2"/><path d="M8.437 58.594a.14.14 0 00.145-.136.14.14 0 00-.145-.137.14.14 0 00-.144.137.14.14 0 00.144.136zM5.945 58.594a.14.14 0 00.145-.136.14.14 0 00-.145-.137.14.14 0 00-.144.137.14.14 0 00.144.136z" fill="#644B44" stroke="#644B44" stroke-width=".1" stroke-miterlimit="10"/><path d="M4.465 59.445c.379 0 .686-.29.686-.647 0-.358-.307-.648-.686-.648-.38 0-.686.29-.686.648 0 .357.307.647.686.647z" fill="#EDC7B2"/><path d="M4.718 58.867c.239 0 .433-.183.433-.41a.422.422 0 00-.433-.409.422.422 0 00-.434.41c0 .226.194.41.434.41z" fill="#EDC7B2"/><path d="M6.09 56.105c1.625-.512 2.89.102 3.792.886-.433-1.023-1.445-1.739-2.673-1.739-1.589 0-2.889 1.228-2.889 2.728v.204l1.77-2.08z" fill="#7F5640"/><path d="M10.063 58.218v-.238c0-1.5-1.3-2.727-2.89-2.727-1.155 0-2.167.647-2.636 1.602.975-.205 3.72-.512 5.526 1.364z" fill="#644B44"/><path d="M7.21 59.514c-.614 0-1.084.477-1.084 1.023v1.466c.325.136.722.204 1.083.204.362 0 .759-.068 1.084-.204v-1.466c0-.58-.506-1.023-1.084-1.023z" fill="#EDC7B2"/><path d="M7.21 78.265c.598 0 1.083-.458 1.083-1.023s-.485-1.023-1.084-1.023c-.598 0-1.083.458-1.083 1.023s.485 1.023 1.083 1.023z" fill="#fff"/><path d="M4.248 65.105c.072-.58-.758-1.432-1.372-1.466-.614-.034-1.156.375-1.192.955l-.867 6.17c-.072.58.398 1.092 1.011 1.126.614.034 1.156-.375 1.192-.955l1.228-5.83z" fill="#D3CFCD"/><path d="M2.226 76.458l.794-5.489c.072-.58-.397-1.09-.975-1.125-.614-.068-1.156.375-1.192.92l-.686 5.558 2.059.136z" fill="#D3CFCD"/><path d="M2.153 77.788c.037.102-.036.239-.144.273-.108.034-.253-.034-.289-.137l-.217-.579c-.036-.102.037-.238.145-.272.108-.034.253.034.289.136l.216.58z" fill="#EDC7B2"/><path d="M1.937 77.208l-.109-.716-1.48-.136-.253 1.125s-.361 1.637.325 1.773c.722.136.83-.41.83-.41l.109-.886s-.072-.818.578-.75z" fill="#EDC7B2"/><path d="M10.135 65.208c-.072-.58.758-1.432 1.372-1.466.614-.069 1.156.375 1.192.954l.903 6.17c.072.58-.398 1.092-1.011 1.126-.614.068-1.156-.375-1.192-.955l-1.264-5.83z" fill="#D3CFCD"/><path d="M12.193 76.56l-.794-5.489c-.072-.58.397-1.09.975-1.125.614-.068 1.155.375 1.191.92l.65 5.558-2.022.136z" fill="#D3CFCD"/><path d="M12.121 77.755c-.072.102-.072.239.036.307.108.068.253.068.325-.034l.397-.478c.073-.102.073-.239-.036-.307-.108-.068-.252-.068-.325.034l-.397.478z" fill="#EDC7B2"/><path d="M12.446 77.276l.108-.715 1.481-.137.253 1.125s.325 1.33-.397 1.466c-.723.136-.759-.136-.759-.136l-.108-.818s.072-.819-.578-.785z" fill="#EDC7B2"/><path d="M5.91 92.686c-.109 0-.217.068-.217.17 0 0-.145.546-.831.546-.686 0-.83-.545-.83-.545-.037-.103-.109-.205-.217-.239l-.073-.034c-.108-.034-.216 0-.252.102 0 0-.217.341-.578.41-.361.068-1.084.102-1.084.102-.108 0-.252.034-.325.102 0 0-.47.239-.47.92v.478c0 .102.073.17.182.17H5.8c.108 0 .18-.068.18-.17l.145-1.841c0-.103-.072-.17-.18-.17h-.037zM8.473 92.686c.109 0 .217.068.217.17 0 0 .145.546.83.546.687 0 .831-.545.831-.545.036-.103.109-.205.217-.239l.072-.034c.109-.034.217 0 .253.102 0 0 .217.341.578.41.361.068 1.083.102 1.083.102.109 0 .253.034.325.102 0 0 .47.239.47.92v.478c0 .102-.072.17-.18.17H8.581c-.109 0-.18-.068-.18-.17l-.145-1.841c0-.103.072-.17.18-.17h.036z" fill="#fff"/><path d="M21.366 60.4c1.264 3.103-1.625 4.978-1.986 5.66-.325.682-.253 1.534.18 2.182.181.307 1.192.58 1.192.92 0 .341-1.01.648-1.12.99-.18.579.29 1.26.94 1.329-.29-.444-.217-1.023.108-1.432.361-.443 1.011-.716 1.12-1.262.108-.545-.29-.647-.362-1.193-.072-.58.217-1.159.578-1.602 1.3-1.534 1.337-4.705-.216-6.614" fill="#644B44"/><path d="M15.66 93.948l.217-.102s1.372-.41 1.336-1.603l1.842.546.036.75-.18.272-1.012.512-1.48.204-.759-.58z" fill="#EDC7B2"/><path d="M18.08 93.641c.498 0 .903-.382.903-.852 0-.471-.405-.853-.903-.853-.499 0-.903.382-.903.853 0 .47.404.852.903.852zM16.274 76.356l.722 9.24h2.167l.398-8.183-3.287-1.057z" fill="#EDC7B2"/><path d="M16.996 85.595l.181 7.194h1.806l.18-7.194" fill="#EDC7B2"/><path d="M19.019 93.402c-.145 0-.253.137-.325.17-1.517 1.023-2.709.376-2.709.376a.905.905 0 00-.325-.069s-1.083.137-1.083.852c0 .068.072.136.18.136h2.312s.216 0 .36-.034c.218-.034.434-.068.687-.068.108 0 .253 0 .361.034.072.034.072.102.18.102h.29c.036 0 .108-.068.072-.102.036-.272.036-.51.072-.783.036-.443 0-.614-.072-.614z" fill="#D07E63"/><path d="M16.852 65.14c.108.75.83 1.363 1.625 1.363h1.806c.794 0 1.517-.614 1.625-1.364l.361-2.727c.108-.75-.47-1.364-1.264-1.364h-3.214c-.795 0-1.372.614-1.264 1.364l.325 2.727z" fill="#644B44"/><path d="M23.1 93.948l-.217-.102s-1.372-.41-1.336-1.603l-1.842.546-.036.75.18.272 1.012.512 1.48.204.759-.58z" fill="#EDC7B2"/><path d="M20.68 93.641c.499 0 .903-.382.903-.852 0-.471-.404-.853-.903-.853s-.903.382-.903.853c0 .47.404.852.903.852zM22.486 76.356l-.723 9.24H19.56l-.36-8.183 3.286-1.057z" fill="#EDC7B2"/><path d="M21.763 85.595l-.18 7.194H19.74l-.18-7.194" fill="#EDC7B2"/><path d="M23.064 93.88c-.109 0-.253 0-.326.068 0 0-1.191.68-2.708-.375-.072-.068-.18-.17-.325-.17-.072 0-.108.17-.108.579 0 .272.036.51.072.783 0 .068.036.102.072.102h.289c.108 0 .108-.068.18-.102.109-.034.253-.034.362-.034.216 0 .433.034.686.068.144.034.361.034.361.034h2.311c.109 0 .18-.068.18-.136.073-.647-1.046-.818-1.046-.818z" fill="#D07E63"/><path d="M22.341 72.163c0 1.397-1.336 1.636-2.961 1.636-1.625 0-2.961-.273-2.961-1.636l-1.481-5.012c0-1.398 2.78-2.489 4.442-2.489 1.661 0 4.442 1.125 4.442 2.489l-1.48 5.012z" fill="#fff"/><path d="M19.38 76.697c1.596 0 2.889-1.221 2.889-2.728 0-1.506-1.293-2.727-2.89-2.727-1.595 0-2.888 1.221-2.888 2.727 0 1.507 1.293 2.728 2.889 2.728z" fill="#EDC7B2"/><path d="M19.38 76.697c1.596 0 2.889-1.221 2.889-2.728 0-1.506-1.293-2.727-2.89-2.727-1.595 0-2.888 1.221-2.888 2.727 0 1.507 1.293 2.728 2.889 2.728z" fill="#EDC7B2"/><path d="M19.38 71.344c1.815 0 3.286-1.22 3.286-2.727 0-1.506-1.471-2.728-3.286-2.728s-3.287 1.222-3.287 2.728c0 1.506 1.472 2.727 3.287 2.727z" fill="#EDC7B2"/><path d="M22.27 73.97c0 1.5-1.301 2.727-2.89 2.727-1.59 0-2.89-1.228-2.89-2.728l-.433-5.352c0-1.5 1.481-2.728 3.287-2.728 1.805 0 3.286 1.228 3.286 2.728l-.36 5.352z" fill="#fff"/><path d="M18.08 86.618c.598 0 1.083-.458 1.083-1.023s-.485-1.023-1.083-1.023c-.599 0-1.084.458-1.084 1.023s.485 1.023 1.084 1.023zM20.68 86.618c.598 0 1.084-.458 1.084-1.023s-.486-1.023-1.084-1.023c-.598 0-1.083.458-1.083 1.023s.485 1.023 1.083 1.023zM19.38 62.48c.598 0 1.083-.458 1.083-1.023s-.485-1.022-1.083-1.022-1.083.457-1.083 1.022.485 1.023 1.083 1.023zM19.38 64.15c.14 0 .253-.106.253-.238a.246.246 0 00-.253-.239.246.246 0 00-.253.24c0 .131.113.238.253.238zM19.38 64.662c.14 0 .253-.107.253-.238a.246.246 0 00-.253-.24.246.246 0 00-.253.24c0 .131.113.238.253.238zM19.38 65.174c.14 0 .253-.107.253-.24a.246.246 0 00-.253-.238.246.246 0 00-.253.239c0 .132.113.239.253.239zM19.38 58.696c.14 0 .253-.107.253-.239a.246.246 0 00-.253-.238.246.246 0 00-.253.238c0 .132.113.24.253.24zM17.177 62.104c.379 0 .686-.29.686-.647 0-.358-.307-.647-.686-.647-.379 0-.686.29-.686.647 0 .358.307.647.686.647zM21.583 62.104c.379 0 .686-.29.686-.647 0-.358-.307-.647-.686-.647-.38 0-.686.29-.686.647 0 .358.307.647.686.647z" fill="#EDC7B2"/><path d="M16.635 62.446c.38 0 .686-.29.686-.647 0-.358-.307-.647-.686-.647-.379 0-.686.29-.686.647 0 .358.307.647.686.647z" fill="#EDC7B2"/><path d="M16.924 61.867c.24 0 .434-.183.434-.41a.422.422 0 00-.434-.409.422.422 0 00-.433.41c0 .226.194.41.433.41z" fill="#EDC7B2"/><path d="M19.38 64.185c1.596 0 2.889-1.221 2.889-2.728 0-1.506-1.293-2.727-2.89-2.727-1.595 0-2.888 1.221-2.888 2.727 0 1.507 1.293 2.728 2.889 2.728z" fill="#EDC7B2"/><path d="M19.38 63.673c1.596 0 2.889-1.22 2.889-2.727 0-1.506-1.293-2.727-2.89-2.727-1.595 0-2.888 1.22-2.888 2.727 0 1.506 1.293 2.727 2.889 2.727z" fill="#EDC7B2"/><path d="M18.116 61.765a.14.14 0 00.144-.137.14.14 0 00-.144-.136.14.14 0 00-.145.136.14.14 0 00.145.137zM20.608 61.765a.14.14 0 00.144-.137.14.14 0 00-.144-.136.14.14 0 00-.145.136.14.14 0 00.145.137z" fill="#644B44" stroke="#644B44" stroke-width=".1" stroke-miterlimit="10"/><path d="M21.836 61.867c.239 0 .433-.183.433-.41a.422.422 0 00-.433-.409.422.422 0 00-.434.41c0 .226.194.41.434.41z" fill="#EDC7B2"/><path d="M17.032 67.355c.109-.58-.288-1.125-.902-1.227-.614-.102-1.156.273-1.264.852l-1.264 4.705c-.109.58.289 1.091.902 1.193.614.103 1.156-.272 1.264-.852l1.264-4.67z" fill="#fff"/><path d="M14.216 77.106l1.553-5.08c.108-.58-.29-1.09-.903-1.193-.614-.102-1.156.273-1.264.852l-.867 5.182 1.48.239zM14.252 78.436c.036.102-.036.239-.145.273-.108.034-.252-.034-.289-.137l-.144-.613c-.036-.102.036-.238.144-.273.109-.034.253.035.29.137l.144.613z" fill="#EDC7B2"/><path d="M14.252 77.822l-.036-.716-1.481-.239-.361.887s-.361.988.541 1.159c.723.136.831-.477.831-.477s-.108-.682.506-.614z" fill="#EDC7B2"/><path d="M23.894 66.64a1.13 1.13 0 00-1.372-.716c-.578.17-.903.75-.722 1.295l1.083 4.739c.18.545.794.852 1.372.682.578-.17.903-.75.723-1.296l-1.084-4.704z" fill="#fff"/><path d="M19.38 62.48c-.614 0-1.083.478-1.083 1.023v1.466c.325.136.722.205 1.083.205s.758-.069 1.083-.205v-1.466c0-.545-.47-1.023-1.083-1.023z" fill="#EDC7B2"/><path d="M19.38 58.219c-1.59 0-2.89 1.227-2.89 2.727v.205c1.518 0 2.89-.785 3.648-1.91a3.84 3.84 0 011.987 2.08c.036.034.108.034.144.034.036-.136.036-.273.036-.409 0-1.534-1.336-2.727-2.925-2.727z" fill="#644B44"/><path d="M15.95 75.879l6.897.17 1.372 8.83s-2.636.511-4.586.511c-1.95 0-4.948-.51-4.948-.51l1.264-9.001z" fill="#D07E63"/><path d="M17.25 65.106c.54.272 1.3.443 2.13.443.83 0 1.589-.17 2.13-.444-.722-.272-1.516-.443-2.13-.443-.614 0-1.409.17-2.13.444z" fill="#EDC7B2"/><path d="M22.233 74.549h-5.706c-.397.511-.65 1.125-.65 1.807 0 1.739 1.553 3.137 3.467 3.137 1.914 0 3.467-1.398 3.467-3.137a2.726 2.726 0 00-.578-1.807z" fill="#D07E63"/><path d="M17.177 60.4c-1.047 3.819 1.083 4.978 1.408 5.66.325.682.253 1.534-.18 2.182-.18.307-.47.58-.47.92 0 .341.29.648.398.989.18.58-.29 1.261-.94 1.33.29-.444.217-1.023-.108-1.432-.36-.443-1.01-.716-1.12-1.262-.108-.545.29-.647.362-1.193.072-.58-.036-1.16-.397-1.602-1.3-1.534-.325-5.694 1.3-7.092" fill="#644B44"/><path d="M13.602 71.685l2.166.341.398-1.364-2.167-.477-.397 1.5zM22.883 72.026l2.167-.34-.397-1.5-2.167.374.397 1.466z" fill="#EDC7B2"/><path d="M22.27 72.81c-.145-1.909 1.046-2.318 1.588-2.318s1.697.443 1.59 2.318" stroke="#D07E63" stroke-width=".6" stroke-miterlimit="10" stroke-linecap="round" stroke-linejoin="round"/><path d="M21.727 72.81c-.144-1.909 1.048-2.318 1.59-2.318.541 0 1.697.443 1.588 2.318" stroke="#D07E63" stroke-width=".6" stroke-miterlimit="10" stroke-linecap="round" stroke-linejoin="round"/><path d="M21.366 72.64l4.478-.239L27 76.05l-5.634.341v-3.75z" fill="#DA9984"/><path d="M22.197 68.07c.939 1.569 2.383 2.796 2.383 2.796a.99.99 0 01.037 1.466c-.398.409-1.12.443-1.553.034 0 0-1.987-2.966-2.348-4.364 0 .034 1.372-.545 1.48.068zM22.594 67.014c.072-.102 0-.238-.108-.272-.109-.068-.253 0-.29.102l-.288.545c-.072.103 0 .239.108.273.109.068.253 0 .29-.102l.288-.546z" fill="#EDC7B2"/><path d="M22.413 67.39l-.216.681s-1.264.614-1.48-.068c-.254-.648-.362-1.739.396-1.807 1.12-.136 1.373.546 1.3 1.194z" fill="#EDC7B2"/><path d="M20.391 76.254l.975.136.47-3.784-.795.034-.65 3.614z" fill="#D07E63"/><path d="M24.645 73.216l-1.297.078.016.239 1.297-.078-.016-.239z" fill="#E9E5E4"/><path d="M22.372 72.396l-.253.011.01.205.253-.01-.01-.206zM21.83 72.43l-.252.011.01.205.253-.011-.01-.205zM25.585 72.19l-.253.012.01.204.253-.01-.01-.205zM25.008 72.226l-.253.011.01.205.253-.011-.01-.205z" fill="#A39C99"/><path d="M22.052 62.445c.38 0 .686-.29.686-.647 0-.358-.307-.647-.686-.647-.379 0-.686.29-.686.647 0 .358.307.647.686.647zM304.055 62.857c1.66 0 3.006-1.272 3.006-2.841 0-1.57-1.346-2.842-3.006-2.842-1.661 0-3.007 1.272-3.007 2.842 0 1.569 1.346 2.84 3.007 2.84z" fill="#EDC7B2"/><path d="M303.864 79.232c1.526 0 2.764-1.17 2.764-2.612 0-1.443-1.238-2.613-2.764-2.613-1.527 0-2.765 1.17-2.765 2.613s1.238 2.612 2.765 2.612z" fill="#716C6B"/><path d="M304.035 94.126c.582 0 1.054-.446 1.054-.997 0-.55-.472-.996-1.054-.996-.582 0-1.054.446-1.054.996s.472.996 1.054.996zM305.265 76.245l-.346 8.687h-2.107l-.709-7.691 3.162-.996z" fill="#EDC7B2"/><path d="M302.808 84.932l.173 8.197h2.108l-.173-8.197" fill="#EDC7B2"/><path d="M304.037 94.126c.582 0 1.054-.446 1.054-.997 0-.55-.472-.996-1.054-.996-.582 0-1.054.446-1.054.996s.472.996 1.054.996zM303.863 85.928c.582 0 1.054-.446 1.054-.996s-.472-.996-1.054-.996c-.582 0-1.054.446-1.054.996s.472.996 1.054.996z" fill="#EDC7B2"/><path d="M305.972 77.24l-.881 15.889h-2.626l-1.382-16.884 4.889.996z" fill="#716C6B"/><path d="M305.089 93.015c-.086 0-.19.065-.207.147 0 0-.138.539-.812.539-.656 0-.795-.523-.795-.523a.32.32 0 00-.207-.212l-.069-.016c-.086-.033-.207 0-.259.081 0 0-.225.327-.553.392-.328.05-1.037.098-1.037.098a.84.84 0 00-.328.098s-.432.229-.432.898v.458c0 .098.087.163.173.163h4.388a.197.197 0 00.19-.163l.139-1.764c0-.082-.07-.163-.156-.163l-.035-.033z" fill="#7F5640"/><path d="M300.114 76.866c0 .213 1.538.376 3.438.376 1.901 0 3.438-.163 3.438-.376V65.714c0-.213-1.537-.376-3.438-.376-1.9 0-2.453.163-2.453.376l-.985 11.152z" fill="#fff"/><path d="M301.099 65.713c0 1.209 1.624 2.189 3.145 2.189 1.52 0 2.764-.98 2.764-2.189 0-1.208-1.244-2.188-2.764-2.188-1.521 0-3.145.98-3.145 2.188z" fill="#fff"/><path d="M304.053 61.238c.582 0 1.054-.446 1.054-.996s-.472-.996-1.054-.996c-.582 0-1.054.446-1.054.996s.472.996 1.054.996zM306.42 60.619c.22 0 .398-.168.398-.376a.387.387 0 00-.398-.376.387.387 0 00-.397.376c0 .208.178.376.397.376zM304.055 62.856c.143 0 .259-.11.259-.245a.252.252 0 00-.259-.245.252.252 0 00-.259.245c0 .135.116.245.259.245zM303.881 63.344c.143 0 .259-.11.259-.245a.252.252 0 00-.259-.244.252.252 0 00-.259.245c0 .135.116.244.259.244zM304.228 63.837c.143 0 .259-.11.259-.245a.252.252 0 00-.259-.245.252.252 0 00-.259.245c0 .135.116.245.259.245zM301.965 60.861c.363 0 .657-.277.657-.62 0-.342-.294-.62-.657-.62-.363 0-.656.278-.656.62 0 .343.293.62.656.62z" fill="#EDC7B2"/><path d="M306.161 60.861c.362 0 .656-.277.656-.62 0-.342-.294-.62-.656-.62-.363 0-.657.278-.657.62 0 .343.294.62.657.62z" fill="#EDC7B2"/><path d="M304.056 62.855c1.526 0 2.764-1.17 2.764-2.613s-1.238-2.612-2.764-2.612c-1.527 0-2.765 1.17-2.765 2.612 0 1.443 1.238 2.613 2.765 2.613z" fill="#EDC7B2"/><path d="M304.056 62.366c1.526 0 2.764-1.17 2.764-2.613s-1.238-2.612-2.764-2.612c-1.527 0-2.765 1.17-2.765 2.612 0 1.443 1.238 2.613 2.765 2.613z" fill="#EDC7B2"/><path d="M301.964 60.375a.135.135 0 00.138-.131.135.135 0 00-.138-.131c-.077 0-.139.059-.139.131 0 .072.062.131.139.131z" fill="#644B44" stroke="#644B44" stroke-width=".2" stroke-miterlimit="10"/><path d="M303.19 63.85c0 .556.467.997 1.054.997.588 0 1.054-.441 1.054-.997v-1.616c0-.555-.466-.996-1.054-.996-.587 0-1.054.44-1.054.996v1.616z" fill="#EDC7B2"/><path d="M306.456 61.715c.38-.474.605-1.061.605-1.715 0-1.567-1.348-2.84-3.006-2.84-.484 0-.933.114-1.331.293a11.092 11.092 0 002.436 3.707l1.296.555z" fill="#644B44"/><path d="M304.935 61.19c.362 0 .656-.278.656-.62 0-.343-.294-.62-.656-.62-.363 0-.657.277-.657.62 0 .342.294.62.657.62z" fill="#EDC7B2"/><path d="M302.723 57.45c-1.071.605-1.78.589-1.78.589.761.604 2.126.18 2.126.18l.742-.409-1.088-.36z" fill="#644B44"/><path d="M302.57 64.587c.57-.13 1.52.49 1.658 1.012.138.539-.224 1.078-.777 1.192l-6.082 1.633c-.57.13-1.14-.212-1.261-.735-.138-.539.225-1.077.778-1.192l5.684-1.91z" fill="#fff"/><path d="M299.924 62.839l-1.9 5.013c-.225.506-.83.751-1.365.555-.536-.212-.795-.784-.588-1.29l2.074-4.997 1.779.719z" fill="#fff"/><path d="M300.476 61.712a.196.196 0 00.017-.278.223.223 0 00-.293-.016l-.45.408a.196.196 0 00-.017.278c.069.082.207.082.294.017l.449-.41z" fill="#EDC7B2"/><path d="M300.028 62.12l-.415.572-1.33-.506.328-1.061s.45-1.535 1.123-1.355c.674.18.501.702.501.702l-.345.75s-.415.654.138.899z" fill="#EDC7B2"/><path d="M77.237 70.895c.642 0 1.162-.489 1.162-1.092 0-.603-.52-1.091-1.162-1.091-.641 0-1.161.488-1.161 1.091s.52 1.092 1.161 1.092z" fill="#EAE5E4"/><path d="M77.558 95.255l1.022-.225 1.722-17.164-4.289.231 1.545 17.159z" fill="#F4C6AF"/><path d="M76.766 93.405h2.53l1.006-15.539-4.289-.066.753 15.605z" fill="#86543C"/><path d="M75.504 77.458c0 1.49 1.047 3.067 2.632 3.067 1.585 0 2.169-1.505 2.169-2.995l-4.801-.072z" fill="#86543C"/><path d="M78.091 95.75s2.219.032 2.516.032c.296 0 .09-.435-.374-.626-.625-.256-1.471-.333-1.567-.838-.128-.675-1.169.235-1.169.235s.088.147-.038.423c-.058.126-.13.243-.082.667.077.099.37.105.714.108z" fill="#F4C6AF"/><path d="M75.079 69.473c.076-1.333 1.092-2.425 2.434-2.45 2.894-.054 3.067 2.955 3.239 4.36l-.447 6.147s-.163.189-2.166.225c-.89.016-2.7.127-2.635-.297.134-.892.517-1.28.517-1.28l-.942-6.705z" fill="#EAE5E4"/><path d="M75 63.667c0 1.52 1.31 2.751 2.927 2.751 1.616 0 2.926-1.231 2.926-2.75 0-1.52-1.31-2.751-2.926-2.751-1.617 0-2.927 1.231-2.927 2.75zm4.837.218c0-.071.061-.128.136-.128.076 0 .136.057.136.128 0 .07-.06.128-.136.128-.075 0-.136-.058-.136-.128z" fill="#F4C6AF"/><path d="M79.973 64.013c.075 0 .136-.058.136-.128s-.06-.128-.136-.128c-.075 0-.136.057-.136.128 0 .07.061.128.136.128z" fill="#684A43"/><path d="M77.762 65.462c.576 0 1.042.22 1.042.492v1.324c0 .272-.565.493-1.042.493-.477 0-1.042-.22-1.042-.493v-1.324c0-.272.466-.492 1.042-.492zM81.161 67.593c.316-1.058.21-2.011-.237-2.129-.447-.118-1.065.645-1.38 1.703-.316 1.058-.21 2.011.237 2.129.447.117 1.065-.645 1.38-1.703z" fill="#F4C6AF"/><path d="M79.865 66.817c.005-.301-.094-.547-.222-.549-.127-.002-.234.241-.24.542-.004.302.095.547.222.55.128.001.235-.242.24-.543z" fill="#F4C6AF"/><path d="M80.518 71.897c-.174.581-.816.92-1.435.757-.618-.163-.98-.766-.806-1.348l.727-3.673 2.24.59-.688 3.483a1.05 1.05 0 01-.038.19z" fill="#EAE5E4"/><path d="M77.237 68.712c.643 0 1.164.489 1.164 1.093l.37 2.6.007.044v.004l.005.043.001.01.003.038.001.046v.005a1.071 1.071 0 01-.56.935 1.223 1.223 0 01-1.426-.162l-.038-.038a1.086 1.086 0 01-.204-.295c-.006-.01-.01-.022-.016-.034a1.087 1.087 0 01-.056-.173l-.005-.022a1.05 1.05 0 01-.022-.21v-.002l-.37-2.596a1.045 1.045 0 01-.018-.194c0-.603.522-1.093 1.164-1.093z" fill="#EAE5E4"/><path d="M75 63.667c0-1.519 1.31-2.75 2.927-2.75 1.265 0 2.343.755 2.751 1.811-.39-.217-1.071-.616-1.351-.897 0 0-1.438 2-2.415 2.216 0 0 0 1.297.067 2.224C75.828 65.9 75 64.874 75 63.666z" fill="#684A43"/><path d="M77.459 94.976s.373.18.852.235c.48.054 1.428.072 1.922-.055 0 0 .59.199.666.47.077.27-2.951.215-2.951.215s-.46 0-.576-.054c-.115-.053-.095-.648.087-.81z" fill="#86543C"/><path d="M77.237 70.895c.642 0 1.162-.489 1.162-1.092 0-.603-.52-1.091-1.162-1.091-.641 0-1.161.488-1.161 1.091s.52 1.092 1.161 1.092zM77.625 73.686c.641 0 1.161-.489 1.161-1.092 0-.603-.52-1.092-1.161-1.092-.642 0-1.162.49-1.162 1.092 0 .603.52 1.092 1.162 1.092z" fill="#EAE5E4"/><path d="M77.11 64.843a.621.621 0 100-1.243.621.621 0 000 1.243z" fill="#F4C6AF"/><path d="M44.586 94.09c.572 0 1.037-.438 1.037-.978 0-.541-.465-.98-1.037-.98-.573 0-1.038.439-1.038.98 0 .54.465.979 1.038.979zM43.702 76.25v8.667h2.113l1.037-7.688-3.15-.979z" fill="#EDC7B2"/><path d="M43.702 84.916l-.154 8.196h2.075l.192-8.195" fill="#EDC7B2"/><path d="M44.586 94.09c.572 0 1.037-.438 1.037-.978 0-.541-.465-.98-1.037-.98-.573 0-1.038.439-1.038.98 0 .54.465.979 1.038.979zM49.157 94.09c.572 0 1.037-.438 1.037-.978 0-.541-.465-.98-1.038-.98-.572 0-1.037.439-1.037.98 0 .54.465.979 1.038.979zM50.04 76.25v8.667h-2.113l-1.075-7.688 3.188-.979z" fill="#EDC7B2"/><path d="M50.04 84.916l.154 8.196H48.08l-.154-8.195" fill="#EDC7B2"/><path d="M49.157 94.09c.572 0 1.037-.438 1.037-.978 0-.541-.465-.98-1.038-.98-.572 0-1.037.439-1.037.98 0 .54.465.979 1.038.979zM44.74 85.896c.572 0 1.036-.439 1.036-.98 0-.54-.464-.978-1.037-.978s-1.037.438-1.037.979c0 .54.464.979 1.037.979zM48.964 85.896c.573 0 1.038-.439 1.038-.98 0-.54-.465-.978-1.038-.978-.572 0-1.037.438-1.037.979 0 .54.465.979 1.037.979z" fill="#EDC7B2"/><path d="M47.044 77.23l-1.421 15.882h-2.075V76.25l3.496.98z" fill="#716C6B"/><path d="M46.698 77.23l1.383 15.882h2.113V76.25l-3.496.98z" fill="#716C6B"/><path d="M46.852 68.817c2.906 0 5.262-1.17 5.262-2.611 0-1.442-2.356-2.61-5.262-2.61-2.906 0-5.262 1.168-5.262 2.61s2.355 2.61 5.262 2.61z" fill="#E9E5E4"/><path d="M50.309 76.867c0 .217-1.537.362-3.457.362s-3.457-.181-3.457-.362V66.568c0-.217 1.536-.362 3.457-.362 1.92 0 3.457.181 3.457.362v10.299z" fill="#E9E5E4"/><path d="M46.852 61.238c.573 0 1.037-.438 1.037-.979 0-.54-.464-.979-1.037-.979s-1.037.438-1.037.98c0 .54.464.978 1.037.978zM46.852 62.87a.262.262 0 00.269-.254c0-.14-.12-.254-.27-.254a.262.262 0 00-.268.254c0 .14.12.254.269.254z" fill="#EDC7B2"/><path d="M46.852 63.378a.262.262 0 00.269-.254c0-.14-.12-.254-.27-.254a.262.262 0 00-.268.254c0 .14.12.254.269.254z" fill="#EDC7B2"/><path d="M46.852 63.85a.262.262 0 00.269-.255c0-.14-.12-.254-.27-.254a.262.262 0 00-.268.254c0 .14.12.254.269.254zM46.852 57.648a.262.262 0 00.269-.254c0-.14-.12-.253-.27-.253a.262.262 0 00-.268.254c0 .14.12.253.269.253zM48.964 60.875c.361 0 .653-.276.653-.616 0-.34-.292-.616-.653-.616-.36 0-.653.275-.653.616 0 .34.293.616.653.616zM44.74 60.875c.36 0 .652-.276.652-.616 0-.34-.292-.616-.653-.616-.36 0-.653.275-.653.616 0 .34.293.616.653.616z" fill="#EDC7B2"/><path d="M49.464 61.202c.36 0 .653-.276.653-.616 0-.34-.293-.616-.653-.616-.36 0-.653.276-.653.616 0 .34.292.616.653.616z" fill="#EDC7B2"/><path d="M49.233 60.623a.374.374 0 00.384-.363c0-.2-.172-.363-.384-.363a.374.374 0 00-.384.363c0 .2.172.363.384.363z" fill="#EDC7B2"/><path d="M46.852 62.87c1.527 0 2.765-1.169 2.765-2.61 0-1.443-1.238-2.611-2.765-2.611-1.528 0-2.766 1.168-2.766 2.61s1.238 2.611 2.766 2.611z" fill="#EDC7B2"/><path d="M46.852 62.4c1.527 0 2.765-1.169 2.765-2.61 0-1.443-1.238-2.611-2.765-2.611-1.528 0-2.766 1.168-2.766 2.61s1.238 2.611 2.766 2.611z" fill="#EDC7B2"/><path d="M48.042 60.405a.15.15 0 00.154-.145.15.15 0 00-.154-.146.15.15 0 00-.153.146c0 .08.069.145.153.145zM45.661 60.405a.15.15 0 00.154-.145.15.15 0 00-.154-.146.15.15 0 00-.154.146c0 .08.07.145.154.145z" fill="#644B44" stroke="#644B44" stroke-width=".09" stroke-miterlimit="10"/><path d="M44.24 61.201c.36 0 .653-.276.653-.616 0-.34-.293-.616-.653-.616-.36 0-.653.276-.653.616 0 .34.292.616.653.616z" fill="#EDC7B2"/><path d="M44.509 60.623a.374.374 0 00.384-.363c0-.201-.172-.363-.384-.363a.374.374 0 00-.384.363c0 .2.172.363.384.363z" fill="#EDC7B2"/><path d="M49.617 59.898v-.109c0-1.45-1.229-2.61-2.765-2.61-.884 0-1.69.398-2.19 1.015l4.955 1.704z" fill="#644B44"/><path d="M47.966 57.395l1.575 1.74c-.192-.76-.807-1.413-1.575-1.74zm-3.88 2.394v.072l3.303-2.61c-.192-.037-.345-.037-.537-.037-1.498-.036-2.766 1.124-2.766 2.575z" fill="#644B44"/><path d="M46.852 61.238c-.576 0-1.037.435-1.037.98v1.413c.307.11.691.182 1.037.182s.73-.073 1.037-.182v-1.414c.038-.508-.461-.979-1.037-.979z" fill="#EDC7B2"/><path d="M46.852 79.224c.573 0 1.037-.439 1.037-.98 0-.54-.464-.978-1.037-.978s-1.037.438-1.037.979c0 .54.464.979 1.037.979z" fill="#716C6B"/><path d="M44.048 66.605c.038-.544-.73-1.342-1.306-1.414-.576-.073-1.076.362-1.152.906l-.846 5.91c-.038.545.385 1.016.96 1.089.577.036 1.076-.363 1.153-.907l1.19-5.584z" fill="#E9E5E4"/><path d="M42.089 77.483l.768-5.258c.038-.544-.384-1.015-.96-1.087-.576-.037-1.076.362-1.153.906l-.614 5.33 1.959.11z" fill="#E9E5E4"/><path d="M42.05 78.753c.039.11-.038.218-.115.254-.077.037-.23-.036-.269-.109l-.192-.544c-.038-.108.039-.217.116-.254a.24.24 0 01.268.11l.192.543z" fill="#EDC7B2"/><path d="M41.82 78.172l-.077-.689-1.421-.145-.23 1.088s-.346 1.56.307 1.704c.653.145.806-.399.806-.399l.077-.834s-.077-.761.538-.725z" fill="#EDC7B2"/><path d="M45.623 93.003a.317.317 0 00-.23.145s-.154.544-.807.544c-.654 0-.807-.508-.807-.508-.039-.072-.115-.181-.192-.217l-.077-.037c-.077-.036-.192 0-.269.073 0 0-.23.326-.538.399-.307.072-1.037.109-1.037.109a.53.53 0 00-.307.108s-.422.218-.422.907v.471c0 .073.076.145.192.145h4.378c.077 0 .192-.072.192-.145l.154-1.776c0-.073-.077-.182-.154-.182l-.076-.036zM48.081 93.003c.077 0 .192.072.23.145 0 0 .154.544.807.544s.807-.508.807-.508c.038-.072.115-.181.192-.217l.077-.037c.076-.036.192 0 .268.073 0 0 .23.326.538.399l1.037.109a.53.53 0 01.308.108s.422.218.422.907v.471c0 .073-.077.145-.154.145h-4.378c-.077 0-.192-.072-.192-.145l-.154-1.776c0-.073.077-.182.154-.182l.038-.036z" fill="#644B44"/><path d="M45.661 63.668l4.379 8.593h-4.187l-.576-8.557.384-.036z" fill="#fff"/><path d="M49.694 66.713c-.038-.543.73-1.341 1.306-1.414.576-.036 1.076.363 1.153.907l.845 5.91c.038.544-.385 1.016-.96 1.088-.577.073-1.076-.362-1.153-.906l-1.19-5.585z" fill="#E9E5E4"/><path d="M46.237 71.246h5.647c.576.036 1.037.471.998 1.052-.038.543-.499.979-1.114.942l-5.684-.18.153-1.814z" fill="#E9E5E4"/><path d="M44.893 71.137c-.115-.036-.23 0-.27.073-.037.109 0 .218.078.254l.576.254c.115.036.23 0 .269-.073.038-.108 0-.217-.077-.254l-.576-.254z" fill="#EDC7B2"/><path d="M45.469 71.392l.73.181-.077 1.341-1.152.073s-1.69.108-1.729-.544c-.038-.652.538-.689.538-.689l.883.037c-.038.036.769.18.807-.399z" fill="#EDC7B2"/><path d="M48.427 63.704c-.116 2.72-.73 9.174-1.575 9.5l4.916.037c.346-.363-2.88-9.5-2.88-9.5s-.039 0-.461-.037zM48.619 57.758a2.7 2.7 0 00-1.69-.58l-2.075.798c-.46.471-.768 1.124-.768 1.813v.218l4.61-2.176-.077-.073z" fill="#fff"/><path d="M102.071 94.124c.587 0 1.062-.44 1.062-.981 0-.542-.475-.981-1.062-.981-.587 0-1.063.44-1.063.98 0 .543.476.982 1.063.982zM101.15 76.237v8.698h2.16l1.099-7.684-3.259-1.014z" fill="#EDC7B2"/><path d="M101.15 84.936l-.178 8.207h2.161l.177-8.207" fill="#EDC7B2"/><path d="M102.071 94.124c.587 0 1.062-.44 1.062-.981 0-.542-.475-.981-1.062-.981-.587 0-1.063.44-1.063.98 0 .543.476.982 1.063.982zM106.711 94.124c.587 0 1.063-.44 1.063-.981 0-.542-.476-.981-1.063-.981s-1.063.44-1.063.98c0 .543.476.982 1.063.982zM107.632 76.237v8.698h-2.161l-1.062-7.684 3.223-1.014z" fill="#EDC7B2"/><path d="M107.632 84.936l.177 8.207h-2.161l-.177-8.207" fill="#EDC7B2"/><path d="M106.711 94.124c.587 0 1.063-.44 1.063-.981 0-.542-.476-.981-1.063-.981s-1.063.44-1.063.98c0 .543.476.982 1.063.982zM102.248 85.916c.587 0 1.062-.439 1.062-.98 0-.543-.475-.982-1.062-.982-.587 0-1.063.44-1.063.981 0 .542.476.981 1.063.981zM106.534 85.916c.587 0 1.063-.439 1.063-.98 0-.543-.476-.982-1.063-.982s-1.063.44-1.063.981c0 .542.476.981 1.063.981z" fill="#EDC7B2"/><path d="M104.586 77.251l-1.453 15.892h-2.161V76.237l3.614 1.014z" fill="#fff"/><path d="M104.231 77.251l1.417 15.892h2.161V76.237l-3.578 1.014z" fill="#fff"/><path d="M104.409 68.814c2.973 0 5.384-1.171 5.384-2.616 0-1.444-2.411-2.616-5.384-2.616-2.974 0-5.385 1.172-5.385 2.616 0 1.445 2.411 2.616 5.385 2.616z" fill="#D3CFCD"/><path d="M107.915 76.859c0 .196-1.594.392-3.506.392-1.913 0-3.507-.164-3.507-.392v-10.3c0-.197 1.594-.393 3.507-.393 1.912 0 3.506.163 3.506.392v10.3z" fill="#D3CFCD"/><path d="M104.409 61.195c.587 0 1.062-.439 1.062-.98 0-.542-.475-.982-1.062-.982-.587 0-1.063.44-1.063.981 0 .542.476.981 1.063.981zM104.409 62.83c.136 0 .248-.102.248-.228 0-.127-.112-.23-.248-.23-.137 0-.248.103-.248.23 0 .126.111.229.248.229zM104.409 63.321c.136 0 .248-.102.248-.229s-.112-.229-.248-.229c-.137 0-.248.102-.248.229s.111.229.248.229zM104.409 63.812c.136 0 .248-.103.248-.23 0-.126-.112-.229-.248-.229-.137 0-.248.103-.248.23 0 .126.111.229.248.229zM104.409 57.599c.136 0 .248-.103.248-.23 0-.126-.112-.228-.248-.228-.137 0-.248.102-.248.229 0 .126.111.229.248.229zM106.534 60.835c.372 0 .673-.278.673-.621 0-.343-.301-.621-.673-.621-.372 0-.673.278-.673.621 0 .343.301.62.673.62zM102.248 60.835c.371 0 .673-.278.673-.621 0-.343-.302-.621-.673-.621-.372 0-.673.278-.673.621 0 .343.301.62.673.62z" fill="#EDC7B2"/><path d="M107.065 61.164c.372 0 .673-.278.673-.621 0-.343-.301-.621-.673-.621-.371 0-.673.278-.673.62 0 .344.302.622.673.622z" fill="#EDC7B2"/><path d="M106.817 60.608c.235 0 .425-.176.425-.393 0-.217-.19-.393-.425-.393-.234 0-.425.176-.425.393 0 .217.191.393.425.393z" fill="#EDC7B2"/><path d="M104.409 62.83c1.565 0 2.833-1.17 2.833-2.616 0-1.444-1.268-2.616-2.833-2.616-1.566 0-2.834 1.172-2.834 2.616 0 1.445 1.268 2.616 2.834 2.616z" fill="#EDC7B2"/><path d="M104.409 62.373c1.565 0 2.834-1.172 2.834-2.616 0-1.445-1.269-2.616-2.834-2.616-1.565 0-2.834 1.17-2.834 2.616 0 1.444 1.269 2.616 2.834 2.616z" fill="#EDC7B2"/><path d="M105.613 60.346c.078 0 .142-.059.142-.131 0-.073-.064-.131-.142-.131-.078 0-.142.058-.142.13 0 .073.064.132.142.132zM103.169 60.346c.078 0 .141-.059.141-.131 0-.073-.063-.131-.141-.131-.078 0-.142.058-.142.13 0 .073.064.132.142.132z" fill="#644B44" stroke="#644B44" stroke-width=".1" stroke-miterlimit="10"/><path d="M101.716 61.162c.372 0 .673-.278.673-.621 0-.343-.301-.62-.673-.62-.371 0-.673.277-.673.62 0 .343.302.62.673.62z" fill="#EDC7B2"/><path d="M101.964 60.608c.235 0 .425-.176.425-.393 0-.217-.19-.393-.425-.393-.234 0-.425.176-.425.393 0 .217.191.393.425.393z" fill="#EDC7B2"/><path d="M103.31 57.958c1.594-.49 2.834.098 3.72.85-.425-.98-1.417-1.667-2.621-1.667-1.559 0-2.834 1.177-2.834 2.616v.196l1.735-1.995z" fill="#7F5640"/><path d="M107.207 59.985v-.228c0-1.44-1.275-2.616-2.834-2.616-1.133 0-2.125.62-2.586 1.536.957-.196 3.649-.49 5.42 1.308z" fill="#644B44"/><path d="M104.409 61.228c-.603 0-1.063.458-1.063.981v1.406c.319.131.708.196 1.063.196.354 0 .744-.065 1.062-.196V62.21c0-.556-.496-.98-1.062-.98z" fill="#EDC7B2"/><path d="M104.409 79.213c.587 0 1.062-.44 1.062-.981 0-.542-.475-.981-1.062-.981-.587 0-1.063.44-1.063.98 0 .543.476.982 1.063.982z" fill="#fff"/><path d="M101.504 66.591c.071-.556-.744-1.373-1.346-1.406-.602-.033-1.134.36-1.17.916l-.85 5.918c-.07.556.39 1.047.992 1.08.603.032 1.134-.36 1.169-.916l1.205-5.592z" fill="#D3CFCD"/><path d="M100.501 66.886l-2.196 4.895c-.221.52.09 1.106.628 1.276.563.21 1.193-.07 1.371-.567l2.111-4.984-1.914-.62z" fill="#D3CFCD"/><path d="M101.263 66.074c-.006-.103.098-.214.209-.221.11-.007.226.09.232.194l.044.59c.006.105-.098.215-.209.222-.11.007-.226-.09-.232-.194l-.044-.59z" fill="#EDC7B2"/><path d="M101.317 66.676l-.094.692 1.344.468.543-.991s.783-1.444.18-1.729c-.637-.293-.887.19-.887.19l-.343.803s-.155.78-.743.567z" fill="#EDC7B2"/><path d="M107.278 66.689c-.071-.556.744-1.374 1.346-1.406.602-.066 1.134.36 1.169.915l.886 5.919c.07.556-.39 1.046-.992 1.079-.603.065-1.134-.36-1.169-.915l-1.24-5.592z" fill="#D3CFCD"/><path d="M109.297 77.578l-.779-5.265c-.071-.556.389-1.046.956-1.079.602-.065 1.134.36 1.169.883l.638 5.33-1.984.13z" fill="#D3CFCD"/><path d="M109.226 78.724c-.071.098-.071.228.036.294.106.065.248.065.318-.033l.39-.458c.071-.098.071-.229-.035-.294-.107-.066-.248-.066-.319.032l-.39.459z" fill="#EDC7B2"/><path d="M109.545 78.264l.106-.686 1.453-.131.248 1.08s.318 1.274-.39 1.405c-.709.131-.744-.13-.744-.13l-.106-.785s.071-.785-.567-.752z" fill="#EDC7B2"/><path d="M103.133 93.045c-.106 0-.212.065-.212.163 0 0-.142.524-.815.524-.673 0-.815-.523-.815-.523-.035-.099-.106-.197-.212-.23l-.071-.032c-.106-.033-.213 0-.248.098 0 0-.213.327-.567.392-.354.066-1.063.099-1.063.099-.106 0-.248.032-.318.098 0 0-.46.228-.46.882v.458c0 .098.07.164.176.164h4.499c.106 0 .177-.066.177-.164l.142-1.766c0-.098-.071-.163-.177-.163h-.036zM105.648 93.045c.107 0 .213.065.213.163 0 0 .142.524.815.524.673 0 .814-.523.814-.523.036-.099.107-.197.213-.23l.071-.032c.106-.033.212 0 .248.098 0 0 .212.327.567.392.354.066 1.062.099 1.062.099.107 0 .248.032.319.098 0 0 .461.228.461.882v.458c0 .098-.071.164-.178.164h-4.498c-.107 0-.177-.066-.177-.164l-.142-1.766c0-.098.071-.163.177-.163h.035z" fill="#fff"/></svg>