<svg xmlns="http://www.w3.org/2000/svg" width="21" height="20" fill="none"><path fill="#262221" d="M12.167 17.5a.6.6 0 0 1-.438-.188.6.6 0 0 1-.187-.437c0-.18.062-.33.187-.448a.617.617 0 0 1 .438-.177c.82 0 1.51-.167 2.073-.5.562-.333.843-.722.843-1.167 0-.32-.204-.632-.614-.937-.41-.306-.962-.542-1.656-.709l.979-.979c.875.264 1.517.629 1.927 1.094.41.465.614.976.614 1.531 0 .93-.423 1.65-1.27 2.157-.848.507-1.813.76-2.896.76ZM5.5 11.375c-.889-.194-1.528-.5-1.917-.917C3.194 10.042 3 9.611 3 9.167c0-.486.18-.924.542-1.313.36-.389 1.194-.82 2.5-1.292.916-.333 1.507-.604 1.77-.812.264-.208.396-.451.396-.73 0-.346-.152-.645-.458-.895-.306-.25-.778-.375-1.417-.375-.375 0-.694.049-.958.146-.264.097-.5.25-.708.458a.702.702 0 0 1-.427.198.607.607 0 0 1-.47-.135A.528.528 0 0 1 3.532 4a.598.598 0 0 1 .156-.438c.237-.305.59-.559 1.063-.76.472-.201 1-.302 1.583-.302.945 0 1.702.226 2.271.677.57.451.854 1.066.854 1.844a1.97 1.97 0 0 1-.593 1.448c-.396.396-1.17.809-2.323 1.24-.93.347-1.545.62-1.844.822-.299.202-.448.413-.448.636 0 .222.188.434.563.635.375.202.937.392 1.687.573l-1 1Zm10.333-3.208L13.167 5.5l.937-.938c.25-.25.528-.375.834-.375.305 0 .583.125.833.375l1 1c.25.25.375.528.375.834 0 .305-.125.583-.375.833l-.938.938ZM5.083 16.25h.875l7.188-7.188-.875-.874-7.188 7.187v.875Zm-1.25 1.25v-2.667l8.438-8.437 2.666 2.667L6.5 17.5H3.833Z"/></svg>