<svg xmlns="http://www.w3.org/2000/svg" width="52" height="53" viewBox="0 0 52 53"><style type="text/css">.st0{fill:#FFFFFF;}</style><path class="st0" d="M27.9 26.7c-.6-.7-1.5-1.1-2.6-1.2 1-.3 1.7-.7 2.1-1.2s.7-1.2.7-2.1c0-.6-.1-1.3-.4-1.8-.3-.5-.8-1-1.3-1.3-.5-.3-1.1-.5-1.8-.6-.7-.1-1.9-.2-3.7-.2h-4.2v15.4h4.4c1.8 0 3-.1 3.8-.2.8-.1 1.4-.3 1.9-.6.6-.3 1.1-.8 1.5-1.5.3-.6.5-1.4.5-2.2 0-.9-.3-1.8-.9-2.5zm-7.3-4.8h.9c1 0 1.7.1 2.1.4.4.2.5.6.5 1.2s-.2 1-.6 1.2c-.4.2-1.1.3-2.1.3h-.8v-3.1zm3.6 8.8c-.4.3-1.1.4-2.1.4h-1.5v-3.4h1.5c1 0 1.7.1 2.1.4.4.3.6.7.6 1.4.1.6-.2 1-.6 1.2zM33.3 30c-.4 0-.8.1-1.1.3-.3.2-.6.5-.7.9-.1.4-.2.8-.1 1.1.1.4.3.7.5 1 .3.3.6.5 1 .5.4.1.8 0 1.1-.1.4-.1.7-.4.9-.7.2-.3.3-.7.3-1.1 0-.5-.2-1-.6-1.4-.3-.3-.8-.5-1.3-.5zM35 18.4h-3.4v10.3h3.4v-10.3z"/></svg>